solid OpenSCAD_Model
  facet normal 0 1 0
    outer loop
      vertex 58.350000001490116 -12.200000002980232 0
      vertex 67.35000000149012 -12.200000002980232 5
      vertex 67.35000000149012 -12.200000002980232 0
    endloop
  endfacet
  facet normal 0 1 0
    outer loop
      vertex 58.350000001490116 -12.200000002980232 0
      vertex 58.350000001490116 -12.200000002980232 5
      vertex 67.35000000149012 -12.200000002980232 5
    endloop
  endfacet
  facet normal 1 0 0
    outer loop
      vertex 58.350000001490116 -10.200000002980232 0
      vertex 58.350000001490116 -12.200000002980232 5
      vertex 58.350000001490116 -12.200000002980232 0
    endloop
  endfacet
  facet normal 1 0 0
    outer loop
      vertex 58.350000001490116 -10.200000002980232 0
      vertex 58.350000001490116 -10.200000002980232 5
      vertex 58.350000001490116 -12.200000002980232 5
    endloop
  endfacet
  facet normal 0 -1 0
    outer loop
      vertex 72.55000000447035 -10.200000002980232 0
      vertex 58.350000001490116 -10.200000002980232 5
      vertex 58.350000001490116 -10.200000002980232 0
    endloop
  endfacet
  facet normal 0 -1 0
    outer loop
      vertex 72.55000000447035 -10.200000002980232 0
      vertex 72.55000000447035 -10.200000002980232 5
      vertex 58.350000001490116 -10.200000002980232 5
    endloop
  endfacet
  facet normal -1 0 0
    outer loop
      vertex 72.55000000447035 -11 0
      vertex 72.55000000447035 -10.200000002980232 5
      vertex 72.55000000447035 -10.200000002980232 0
    endloop
  endfacet
  facet normal -1 0 0
    outer loop
      vertex 72.55000000447035 -11 0
      vertex 72.55000000447035 -11 5
      vertex 72.55000000447035 -10.200000002980232 5
    endloop
  endfacet
  facet normal 0.2747211272215373 -0.9615239478339205 1.5250086096427377e-17
    outer loop
      vertex 75.35000000149012 -10.200000002980232 0
      vertex 72.55000000447035 -11 5
      vertex 72.55000000447035 -11 0
    endloop
  endfacet
  facet normal 0.2747211272215373 -0.9615239478339205 0
    outer loop
      vertex 75.35000000149012 -10.200000002980232 0
      vertex 75.35000000149012 -10.200000002980232 5
      vertex 72.55000000447035 -11 5
    endloop
  endfacet
  facet normal 1 0 0
    outer loop
      vertex 75.35000000149012 -8 0
      vertex 75.35000000149012 -10.200000002980232 5
      vertex 75.35000000149012 -10.200000002980232 0
    endloop
  endfacet
  facet normal 1 0 0
    outer loop
      vertex 75.35000000149012 -8 0
      vertex 75.35000000149012 -8 5
      vertex 75.35000000149012 -10.200000002980232 5
    endloop
  endfacet
  facet normal 0 1 0
    outer loop
      vertex 58.350000001490116 -8 0
      vertex 75.35000000149012 -8 5
      vertex 75.35000000149012 -8 0
    endloop
  endfacet
  facet normal 0 1 0
    outer loop
      vertex 58.350000001490116 -8 0
      vertex 58.350000001490116 -8 5
      vertex 75.35000000149012 -8 5
    endloop
  endfacet
  facet normal 1 0 0
    outer loop
      vertex 58.350000001490116 -6 0
      vertex 58.350000001490116 -8 5
      vertex 58.350000001490116 -8 0
    endloop
  endfacet
  facet normal 1 0 0
    outer loop
      vertex 58.350000001490116 -6 0
      vertex 58.350000001490116 -6 5
      vertex 58.350000001490116 -8 5
    endloop
  endfacet
  facet normal 0 -1 0
    outer loop
      vertex 71.85000000149012 -6 0
      vertex 58.350000001490116 -6 5
      vertex 58.350000001490116 -6 0
    endloop
  endfacet
  facet normal 0 -1 0
    outer loop
      vertex 71.85000000149012 -6 0
      vertex 71.85000000149012 -6 5
      vertex 58.350000001490116 -6 5
    endloop
  endfacet
  facet normal 0.7071067811865475 -0.7071067811865475 0
    outer loop
      vertex 73.35000000149012 -4.5 0
      vertex 71.85000000149012 -6 5
      vertex 71.85000000149012 -6 0
    endloop
  endfacet
  facet normal 0.7071067811865475 -0.7071067811865475 0
    outer loop
      vertex 73.35000000149012 -4.5 0
      vertex 73.35000000149012 -4.5 5
      vertex 71.85000000149012 -6 5
    endloop
  endfacet
  facet normal 1 0 0
    outer loop
      vertex 73.35000000149012 4.5 0
      vertex 73.35000000149012 -4.5 5
      vertex 73.35000000149012 -4.5 0
    endloop
  endfacet
  facet normal 1 0 0
    outer loop
      vertex 73.35000000149012 4.5 0
      vertex 73.35000000149012 4.5 5
      vertex 73.35000000149012 -4.5 5
    endloop
  endfacet
  facet normal 0.7071067811865475 0.7071067811865475 0
    outer loop
      vertex 71.85000000149012 6 0
      vertex 73.35000000149012 4.5 5
      vertex 73.35000000149012 4.5 0
    endloop
  endfacet
  facet normal 0.7071067811865475 0.7071067811865475 0
    outer loop
      vertex 71.85000000149012 6 0
      vertex 71.85000000149012 6 5
      vertex 73.35000000149012 4.5 5
    endloop
  endfacet
  facet normal 0 1 0
    outer loop
      vertex 58.350000001490116 6 0
      vertex 71.85000000149012 6 5
      vertex 71.85000000149012 6 0
    endloop
  endfacet
  facet normal 0 1 0
    outer loop
      vertex 58.350000001490116 6 0
      vertex 58.350000001490116 6 5
      vertex 71.85000000149012 6 5
    endloop
  endfacet
  facet normal 1 0 0
    outer loop
      vertex 58.350000001490116 8 0
      vertex 58.350000001490116 6 5
      vertex 58.350000001490116 6 0
    endloop
  endfacet
  facet normal 1 0 0
    outer loop
      vertex 58.350000001490116 8 0
      vertex 58.350000001490116 8 5
      vertex 58.350000001490116 6 5
    endloop
  endfacet
  facet normal 0 -1 0
    outer loop
      vertex 75.35000000149012 8 0
      vertex 58.350000001490116 8 5
      vertex 58.350000001490116 8 0
    endloop
  endfacet
  facet normal 0 -1 0
    outer loop
      vertex 75.35000000149012 8 0
      vertex 75.35000000149012 8 5
      vertex 58.350000001490116 8 5
    endloop
  endfacet
  facet normal 1 0 0
    outer loop
      vertex 75.35000000149012 10.200000002980232 0
      vertex 75.35000000149012 8 5
      vertex 75.35000000149012 8 0
    endloop
  endfacet
  facet normal 1 0 0
    outer loop
      vertex 75.35000000149012 10.200000002980232 0
      vertex 75.35000000149012 10.200000002980232 5
      vertex 75.35000000149012 8 5
    endloop
  endfacet
  facet normal 0.2747211272215373 0.9615239478339205 -1.5250086096427377e-17
    outer loop
      vertex 72.55000000447035 11 0
      vertex 75.35000000149012 10.200000002980232 5
      vertex 75.35000000149012 10.200000002980232 0
    endloop
  endfacet
  facet normal 0.2747211272215373 0.9615239478339205 0
    outer loop
      vertex 72.55000000447035 11 0
      vertex 72.55000000447035 11 5
      vertex 75.35000000149012 10.200000002980232 5
    endloop
  endfacet
  facet normal -1 0 0
    outer loop
      vertex 72.55000000447035 10.200000002980232 0
      vertex 72.55000000447035 11 5
      vertex 72.55000000447035 11 0
    endloop
  endfacet
  facet normal -1 0 0
    outer loop
      vertex 72.55000000447035 10.200000002980232 0
      vertex 72.55000000447035 10.200000002980232 5
      vertex 72.55000000447035 11 5
    endloop
  endfacet
  facet normal 0 1 0
    outer loop
      vertex 58.350000001490116 10.200000002980232 0
      vertex 72.55000000447035 10.200000002980232 5
      vertex 72.55000000447035 10.200000002980232 0
    endloop
  endfacet
  facet normal 0 1 0
    outer loop
      vertex 58.350000001490116 10.200000002980232 0
      vertex 58.350000001490116 10.200000002980232 5
      vertex 72.55000000447035 10.200000002980232 5
    endloop
  endfacet
  facet normal 1 0 0
    outer loop
      vertex 58.350000001490116 12.200000002980232 0
      vertex 58.350000001490116 10.200000002980232 5
      vertex 58.350000001490116 10.200000002980232 0
    endloop
  endfacet
  facet normal 1 0 0
    outer loop
      vertex 58.350000001490116 12.200000002980232 0
      vertex 58.350000001490116 12.200000002980232 5
      vertex 58.350000001490116 10.200000002980232 5
    endloop
  endfacet
  facet normal 0 -1 0
    outer loop
      vertex 67.35000000149012 12.200000002980232 0
      vertex 58.350000001490116 12.200000002980232 5
      vertex 58.350000001490116 12.200000002980232 0
    endloop
  endfacet
  facet normal 0 -1 0
    outer loop
      vertex 67.35000000149012 12.200000002980232 0
      vertex 67.35000000149012 12.200000002980232 5
      vertex 58.350000001490116 12.200000002980232 5
    endloop
  endfacet
  facet normal 1 0 0
    outer loop
      vertex 67.35000000149012 30 0
      vertex 67.35000000149012 12.200000002980232 5
      vertex 67.35000000149012 12.200000002980232 0
    endloop
  endfacet
  facet normal 1 0 0
    outer loop
      vertex 67.35000000149012 30 0
      vertex 67.35000000149012 30 5
      vertex 67.35000000149012 12.200000002980232 5
    endloop
  endfacet
  facet normal 0 1 0
    outer loop
      vertex -67.35000000149012 30 0
      vertex 67.35000000149012 30 5
      vertex 67.35000000149012 30 0
    endloop
  endfacet
  facet normal 0 1 0
    outer loop
      vertex -67.35000000149012 30 0
      vertex -67.35000000149012 30 5
      vertex 67.35000000149012 30 5
    endloop
  endfacet
  facet normal -1 0 0
    outer loop
      vertex -67.35000000149012 12.200000002980232 0
      vertex -67.35000000149012 30 5
      vertex -67.35000000149012 30 0
    endloop
  endfacet
  facet normal -1 0 0
    outer loop
      vertex -67.35000000149012 12.200000002980232 0
      vertex -67.35000000149012 12.200000002980232 5
      vertex -67.35000000149012 30 5
    endloop
  endfacet
  facet normal 0 -1 0
    outer loop
      vertex -58.350000001490116 12.200000002980232 0
      vertex -67.35000000149012 12.200000002980232 5
      vertex -67.35000000149012 12.200000002980232 0
    endloop
  endfacet
  facet normal 0 -1 0
    outer loop
      vertex -58.350000001490116 12.200000002980232 0
      vertex -58.350000001490116 12.200000002980232 5
      vertex -67.35000000149012 12.200000002980232 5
    endloop
  endfacet
  facet normal -1 0 0
    outer loop
      vertex -58.350000001490116 10.200000002980232 0
      vertex -58.350000001490116 12.200000002980232 5
      vertex -58.350000001490116 12.200000002980232 0
    endloop
  endfacet
  facet normal -1 0 0
    outer loop
      vertex -58.350000001490116 10.200000002980232 0
      vertex -58.350000001490116 10.200000002980232 5
      vertex -58.350000001490116 12.200000002980232 5
    endloop
  endfacet
  facet normal 0 1 0
    outer loop
      vertex -72.55000000447035 10.200000002980232 0
      vertex -58.350000001490116 10.200000002980232 5
      vertex -58.350000001490116 10.200000002980232 0
    endloop
  endfacet
  facet normal 0 1 0
    outer loop
      vertex -72.55000000447035 10.200000002980232 0
      vertex -72.55000000447035 10.200000002980232 5
      vertex -58.350000001490116 10.200000002980232 5
    endloop
  endfacet
  facet normal 1 0 0
    outer loop
      vertex -72.55000000447035 11 0
      vertex -72.55000000447035 10.200000002980232 5
      vertex -72.55000000447035 10.200000002980232 0
    endloop
  endfacet
  facet normal 1 0 0
    outer loop
      vertex -72.55000000447035 11 0
      vertex -72.55000000447035 11 5
      vertex -72.55000000447035 10.200000002980232 5
    endloop
  endfacet
  facet normal -0.2747211272215373 0.9615239478339205 1.5250086096427377e-17
    outer loop
      vertex -75.35000000149012 10.200000002980232 0
      vertex -72.55000000447035 11 5
      vertex -72.55000000447035 11 0
    endloop
  endfacet
  facet normal -0.2747211272215373 0.9615239478339205 0
    outer loop
      vertex -75.35000000149012 10.200000002980232 0
      vertex -75.35000000149012 10.200000002980232 5
      vertex -72.55000000447035 11 5
    endloop
  endfacet
  facet normal -1 0 0
    outer loop
      vertex -75.35000000149012 8 0
      vertex -75.35000000149012 10.200000002980232 5
      vertex -75.35000000149012 10.200000002980232 0
    endloop
  endfacet
  facet normal -1 0 0
    outer loop
      vertex -75.35000000149012 8 0
      vertex -75.35000000149012 8 5
      vertex -75.35000000149012 10.200000002980232 5
    endloop
  endfacet
  facet normal 0 -1 0
    outer loop
      vertex -58.350000001490116 8 0
      vertex -75.35000000149012 8 5
      vertex -75.35000000149012 8 0
    endloop
  endfacet
  facet normal 0 -1 0
    outer loop
      vertex -58.350000001490116 8 0
      vertex -58.350000001490116 8 5
      vertex -75.35000000149012 8 5
    endloop
  endfacet
  facet normal -1 0 0
    outer loop
      vertex -58.350000001490116 6 0
      vertex -58.350000001490116 8 5
      vertex -58.350000001490116 8 0
    endloop
  endfacet
  facet normal -1 0 0
    outer loop
      vertex -58.350000001490116 6 0
      vertex -58.350000001490116 6 5
      vertex -58.350000001490116 8 5
    endloop
  endfacet
  facet normal 0 1 0
    outer loop
      vertex -71.85000000149012 6 0
      vertex -58.350000001490116 6 5
      vertex -58.350000001490116 6 0
    endloop
  endfacet
  facet normal 0 1 0
    outer loop
      vertex -71.85000000149012 6 0
      vertex -71.85000000149012 6 5
      vertex -58.350000001490116 6 5
    endloop
  endfacet
  facet normal -0.7071067811865475 0.7071067811865475 0
    outer loop
      vertex -73.35000000149012 4.5 0
      vertex -71.85000000149012 6 5
      vertex -71.85000000149012 6 0
    endloop
  endfacet
  facet normal -0.7071067811865475 0.7071067811865475 0
    outer loop
      vertex -73.35000000149012 4.5 0
      vertex -73.35000000149012 4.5 5
      vertex -71.85000000149012 6 5
    endloop
  endfacet
  facet normal -1 0 0
    outer loop
      vertex -73.35000000149012 -4.5 0
      vertex -73.35000000149012 4.5 5
      vertex -73.35000000149012 4.5 0
    endloop
  endfacet
  facet normal -1 0 0
    outer loop
      vertex -73.35000000149012 -4.5 0
      vertex -73.35000000149012 -4.5 5
      vertex -73.35000000149012 4.5 5
    endloop
  endfacet
  facet normal -0.7071067811865475 -0.7071067811865475 0
    outer loop
      vertex -71.85000000149012 -6 0
      vertex -73.35000000149012 -4.5 5
      vertex -73.35000000149012 -4.5 0
    endloop
  endfacet
  facet normal -0.7071067811865475 -0.7071067811865475 0
    outer loop
      vertex -71.85000000149012 -6 0
      vertex -71.85000000149012 -6 5
      vertex -73.35000000149012 -4.5 5
    endloop
  endfacet
  facet normal 0 -1 0
    outer loop
      vertex -58.350000001490116 -6 0
      vertex -71.85000000149012 -6 5
      vertex -71.85000000149012 -6 0
    endloop
  endfacet
  facet normal 0 -1 0
    outer loop
      vertex -58.350000001490116 -6 0
      vertex -58.350000001490116 -6 5
      vertex -71.85000000149012 -6 5
    endloop
  endfacet
  facet normal -1 0 0
    outer loop
      vertex -58.350000001490116 -8 0
      vertex -58.350000001490116 -6 5
      vertex -58.350000001490116 -6 0
    endloop
  endfacet
  facet normal -1 0 0
    outer loop
      vertex -58.350000001490116 -8 0
      vertex -58.350000001490116 -8 5
      vertex -58.350000001490116 -6 5
    endloop
  endfacet
  facet normal 0 1 0
    outer loop
      vertex -75.35000000149012 -8 0
      vertex -58.350000001490116 -8 5
      vertex -58.350000001490116 -8 0
    endloop
  endfacet
  facet normal 0 1 0
    outer loop
      vertex -75.35000000149012 -8 0
      vertex -75.35000000149012 -8 5
      vertex -58.350000001490116 -8 5
    endloop
  endfacet
  facet normal -1 0 0
    outer loop
      vertex -75.35000000149012 -10.200000002980232 0
      vertex -75.35000000149012 -8 5
      vertex -75.35000000149012 -8 0
    endloop
  endfacet
  facet normal -1 0 0
    outer loop
      vertex -75.35000000149012 -10.200000002980232 0
      vertex -75.35000000149012 -10.200000002980232 5
      vertex -75.35000000149012 -8 5
    endloop
  endfacet
  facet normal -0.2747211272215373 -0.9615239478339205 -1.5250086096427377e-17
    outer loop
      vertex -72.55000000447035 -11 0
      vertex -75.35000000149012 -10.200000002980232 5
      vertex -75.35000000149012 -10.200000002980232 0
    endloop
  endfacet
  facet normal -0.2747211272215373 -0.9615239478339205 0
    outer loop
      vertex -72.55000000447035 -11 0
      vertex -72.55000000447035 -11 5
      vertex -75.35000000149012 -10.200000002980232 5
    endloop
  endfacet
  facet normal 1 0 0
    outer loop
      vertex -72.55000000447035 -10.200000002980232 0
      vertex -72.55000000447035 -11 5
      vertex -72.55000000447035 -11 0
    endloop
  endfacet
  facet normal 1 0 0
    outer loop
      vertex -72.55000000447035 -10.200000002980232 0
      vertex -72.55000000447035 -10.200000002980232 5
      vertex -72.55000000447035 -11 5
    endloop
  endfacet
  facet normal 0 -1 0
    outer loop
      vertex -58.350000001490116 -10.200000002980232 0
      vertex -72.55000000447035 -10.200000002980232 5
      vertex -72.55000000447035 -10.200000002980232 0
    endloop
  endfacet
  facet normal 0 -1 0
    outer loop
      vertex -58.350000001490116 -10.200000002980232 0
      vertex -58.350000001490116 -10.200000002980232 5
      vertex -72.55000000447035 -10.200000002980232 5
    endloop
  endfacet
  facet normal -1 0 0
    outer loop
      vertex -58.350000001490116 -12.200000002980232 0
      vertex -58.350000001490116 -10.200000002980232 5
      vertex -58.350000001490116 -10.200000002980232 0
    endloop
  endfacet
  facet normal -1 0 0
    outer loop
      vertex -58.350000001490116 -12.200000002980232 0
      vertex -58.350000001490116 -12.200000002980232 5
      vertex -58.350000001490116 -10.200000002980232 5
    endloop
  endfacet
  facet normal 0 1 0
    outer loop
      vertex -67.35000000149012 -12.200000002980232 0
      vertex -58.350000001490116 -12.200000002980232 5
      vertex -58.350000001490116 -12.200000002980232 0
    endloop
  endfacet
  facet normal 0 1 0
    outer loop
      vertex -67.35000000149012 -12.200000002980232 0
      vertex -67.35000000149012 -12.200000002980232 5
      vertex -58.350000001490116 -12.200000002980232 5
    endloop
  endfacet
  facet normal -1 0 0
    outer loop
      vertex -67.35000000149012 -30 0
      vertex -67.35000000149012 -12.200000002980232 5
      vertex -67.35000000149012 -12.200000002980232 0
    endloop
  endfacet
  facet normal -1 0 0
    outer loop
      vertex -67.35000000149012 -30 0
      vertex -67.35000000149012 -30 5
      vertex -67.35000000149012 -12.200000002980232 5
    endloop
  endfacet
  facet normal 0 -1 0
    outer loop
      vertex 67.35000000149012 -30 0
      vertex -67.35000000149012 -30 5
      vertex -67.35000000149012 -30 0
    endloop
  endfacet
  facet normal 0 -1 0
    outer loop
      vertex 67.35000000149012 -30 0
      vertex 67.35000000149012 -30 5
      vertex -67.35000000149012 -30 5
    endloop
  endfacet
  facet normal 1 0 0
    outer loop
      vertex 67.35000000149012 -12.200000002980232 0
      vertex 67.35000000149012 -30 5
      vertex 67.35000000149012 -30 0
    endloop
  endfacet
  facet normal 1 0 0
    outer loop
      vertex 67.35000000149012 -12.200000002980232 0
      vertex 67.35000000149012 -12.200000002980232 5
      vertex 67.35000000149012 -30 5
    endloop
  endfacet
  facet normal 0.14673047745596915 0.9891765095196828 0
    outer loop
      vertex -46.91072257608175 -15.846282243728638 0
      vertex -46.91072257608175 -15.846282243728638 5
      vertex -46.134137123823166 -15.961477816104889 0
    endloop
  endfacet
  facet normal 0.14673047745596915 0.9891765095196828 0
    outer loop
      vertex -46.134137123823166 -15.961477816104889 5
      vertex -46.134137123823166 -15.961477816104889 0
      vertex -46.91072257608175 -15.846282243728638 5
    endloop
  endfacet
  facet normal 0.2429801756401818 0.9700312542623905 0
    outer loop
      vertex -47.6722774207592 -15.65552268922329 0
      vertex -47.6722774207592 -15.65552268922329 5
      vertex -46.91072257608175 -15.846282243728638 0
    endloop
  endfacet
  facet normal 0.2429801756401818 0.9700312542623905 0
    outer loop
      vertex -46.91072257608175 -15.846282243728638 5
      vertex -46.91072257608175 -15.846282243728638 0
      vertex -47.6722774207592 -15.65552268922329 5
    endloop
  endfacet
  facet normal 0.3368898600571533 0.9415440627982695 0
    outer loop
      vertex -48.41146746277809 -15.391036257147789 0
      vertex -48.41146746277809 -15.391036257147789 5
      vertex -47.6722774207592 -15.65552268922329 0
    endloop
  endfacet
  facet normal 0.3368898600571533 0.9415440627982695 0
    outer loop
      vertex -47.6722774207592 -15.65552268922329 5
      vertex -47.6722774207592 -15.65552268922329 0
      vertex -48.41146746277809 -15.391036257147789 5
    endloop
  endfacet
  facet normal 0.4275550916774866 0.9039892939524538 0
    outer loop
      vertex -49.12117389589548 -15.05537011474371 0
      vertex -49.12117389589548 -15.05537011474371 5
      vertex -48.41146746277809 -15.391036257147789 0
    endloop
  endfacet
  facet normal 0.4275550916774866 0.9039892939524538 0
    outer loop
      vertex -48.41146746277809 -15.391036257147789 5
      vertex -48.41146746277809 -15.391036257147789 0
      vertex -49.12117389589548 -15.05537011474371 5
    endloop
  endfacet
  facet normal 0.5141027463543802 0.8577286087049234 0
    outer loop
      vertex -49.79456186294556 -14.651756897568703 0
      vertex -49.79456186294556 -14.651756897568703 5
      vertex -49.12117389589548 -15.05537011474371 0
    endloop
  endfacet
  facet normal 0.5141027463543802 0.8577286087049234 0
    outer loop
      vertex -49.12117389589548 -15.05537011474371 5
      vertex -49.12117389589548 -15.05537011474371 0
      vertex -49.79456186294556 -14.651756897568703 5
    endloop
  endfacet
  facet normal 0.5956993034784503 0.8032075322326658 0
    outer loop
      vertex -50.42514627426863 -14.184083625674248 0
      vertex -50.42514627426863 -14.184083625674248 5
      vertex -49.79456186294556 -14.651756897568703 0
    endloop
  endfacet
  facet normal 0.5956993034784503 0.8032075322326658 0
    outer loop
      vertex -49.79456186294556 -14.651756897568703 5
      vertex -49.79456186294556 -14.651756897568703 0
      vertex -50.42514627426863 -14.184083625674248 5
    endloop
  endfacet
  facet normal 0.6715589535927202 0.7409511264917887 0
    outer loop
      vertex -51.00685425102711 -13.656854249536991 0
      vertex -51.00685425102711 -13.656854249536991 5
      vertex -50.42514627426863 -14.184083625674248 0
    endloop
  endfacet
  facet normal 0.6715589535927202 0.7409511264917887 0
    outer loop
      vertex -50.42514627426863 -14.184083625674248 5
      vertex -50.42514627426863 -14.184083625674248 0
      vertex -51.00685425102711 -13.656854249536991 5
    endloop
  endfacet
  facet normal 0.7409511264917887 0.6715589535927202 0
    outer loop
      vertex -51.534083627164364 -13.075146272778511 0
      vertex -51.534083627164364 -13.075146272778511 5
      vertex -51.00685425102711 -13.656854249536991 0
    endloop
  endfacet
  facet normal 0.7409511264917887 0.6715589535927202 0
    outer loop
      vertex -51.00685425102711 -13.656854249536991 5
      vertex -51.00685425102711 -13.656854249536991 0
      vertex -51.534083627164364 -13.075146272778511 5
    endloop
  endfacet
  facet normal 0.8032075322326658 0.5956993034784503 0
    outer loop
      vertex -52.00175689905882 -12.44456186145544 0
      vertex -52.00175689905882 -12.44456186145544 5
      vertex -51.534083627164364 -13.075146272778511 0
    endloop
  endfacet
  facet normal 0.8032075322326658 0.5956993034784503 0
    outer loop
      vertex -51.534083627164364 -13.075146272778511 5
      vertex -51.534083627164364 -13.075146272778511 0
      vertex -52.00175689905882 -12.44456186145544 5
    endloop
  endfacet
  facet normal 0.8577286087049234 0.5141027463543802 0
    outer loop
      vertex -52.405370116233826 -11.771173894405365 0
      vertex -52.405370116233826 -11.771173894405365 5
      vertex -52.00175689905882 -12.44456186145544 0
    endloop
  endfacet
  facet normal 0.8577286087049234 0.5141027463543802 0
    outer loop
      vertex -52.00175689905882 -12.44456186145544 5
      vertex -52.00175689905882 -12.44456186145544 0
      vertex -52.405370116233826 -11.771173894405365 5
    endloop
  endfacet
  facet normal 0.9039892939524538 0.4275550916774866 0
    outer loop
      vertex -52.741036258637905 -11.061467461287975 0
      vertex -52.741036258637905 -11.061467461287975 5
      vertex -52.405370116233826 -11.771173894405365 0
    endloop
  endfacet
  facet normal 0.9039892939524538 0.4275550916774866 0
    outer loop
      vertex -52.405370116233826 -11.771173894405365 5
      vertex -52.405370116233826 -11.771173894405365 0
      vertex -52.741036258637905 -11.061467461287975 5
    endloop
  endfacet
  facet normal 0.9415440627982695 0.3368898600571533 0
    outer loop
      vertex -53.005522690713406 -10.322277419269085 0
      vertex -53.005522690713406 -10.322277419269085 5
      vertex -52.741036258637905 -11.061467461287975 0
    endloop
  endfacet
  facet normal 0.9415440627982695 0.3368898600571533 0
    outer loop
      vertex -52.741036258637905 -11.061467461287975 5
      vertex -52.741036258637905 -11.061467461287975 0
      vertex -53.005522690713406 -10.322277419269085 5
    endloop
  endfacet
  facet normal 0.9700312542623905 0.2429801756401818 0
    outer loop
      vertex -53.196282245218754 -9.560722574591637 0
      vertex -53.196282245218754 -9.560722574591637 5
      vertex -53.005522690713406 -10.322277419269085 0
    endloop
  endfacet
  facet normal 0.9700312542623905 0.2429801756401818 0
    outer loop
      vertex -53.005522690713406 -10.322277419269085 5
      vertex -53.005522690713406 -10.322277419269085 0
      vertex -53.196282245218754 -9.560722574591637 5
    endloop
  endfacet
  facet normal 0.9891765095196828 0.14673047745596915 0
    outer loop
      vertex -53.311477817595005 -8.78413712233305 0
      vertex -53.311477817595005 -8.78413712233305 5
      vertex -53.196282245218754 -9.560722574591637 0
    endloop
  endfacet
  facet normal 0.9891765095196828 0.14673047745596915 0
    outer loop
      vertex -53.196282245218754 -9.560722574591637 5
      vertex -53.196282245218754 -9.560722574591637 0
      vertex -53.311477817595005 -8.78413712233305 5
    endloop
  endfacet
  facet normal 0.9987954563744936 0.049067670880805034 0
    outer loop
      vertex -53.350000001490116 -8 0
      vertex -53.350000001490116 -8 5
      vertex -53.311477817595005 -8.78413712233305 0
    endloop
  endfacet
  facet normal 0.9987954563744936 0.049067670880805034 0
    outer loop
      vertex -53.311477817595005 -8.78413712233305 5
      vertex -53.311477817595005 -8.78413712233305 0
      vertex -53.350000001490116 -8 5
    endloop
  endfacet
  facet normal 1 0 0
    outer loop
      vertex -53.350000001490116 8 0
      vertex -53.350000001490116 8 5
      vertex -53.350000001490116 -8 0
    endloop
  endfacet
  facet normal 1 0 0
    outer loop
      vertex -53.350000001490116 -8 5
      vertex -53.350000001490116 -8 0
      vertex -53.350000001490116 8 5
    endloop
  endfacet
  facet normal 0.9987954563744936 -0.049067670880805034 0
    outer loop
      vertex -53.311477817595005 8.78413712233305 0
      vertex -53.311477817595005 8.78413712233305 5
      vertex -53.350000001490116 8 0
    endloop
  endfacet
  facet normal 0.9987954563744936 -0.049067670880805034 0
    outer loop
      vertex -53.350000001490116 8 5
      vertex -53.350000001490116 8 0
      vertex -53.311477817595005 8.78413712233305 5
    endloop
  endfacet
  facet normal 0.9891765095196828 -0.14673047745596915 0
    outer loop
      vertex -53.196282245218754 9.560722574591637 0
      vertex -53.196282245218754 9.560722574591637 5
      vertex -53.311477817595005 8.78413712233305 0
    endloop
  endfacet
  facet normal 0.9891765095196828 -0.14673047745596915 0
    outer loop
      vertex -53.311477817595005 8.78413712233305 5
      vertex -53.311477817595005 8.78413712233305 0
      vertex -53.196282245218754 9.560722574591637 5
    endloop
  endfacet
  facet normal 0.9700312542623905 -0.2429801756401818 0
    outer loop
      vertex -53.005522690713406 10.322277419269085 0
      vertex -53.005522690713406 10.322277419269085 5
      vertex -53.196282245218754 9.560722574591637 0
    endloop
  endfacet
  facet normal 0.9700312542623905 -0.2429801756401818 0
    outer loop
      vertex -53.196282245218754 9.560722574591637 5
      vertex -53.196282245218754 9.560722574591637 0
      vertex -53.005522690713406 10.322277419269085 5
    endloop
  endfacet
  facet normal 0.9415440627982695 -0.3368898600571533 0
    outer loop
      vertex -52.741036258637905 11.061467461287975 0
      vertex -52.741036258637905 11.061467461287975 5
      vertex -53.005522690713406 10.322277419269085 0
    endloop
  endfacet
  facet normal 0.9415440627982695 -0.3368898600571533 0
    outer loop
      vertex -53.005522690713406 10.322277419269085 5
      vertex -53.005522690713406 10.322277419269085 0
      vertex -52.741036258637905 11.061467461287975 5
    endloop
  endfacet
  facet normal 0.9039892939524538 -0.4275550916774866 0
    outer loop
      vertex -52.405370116233826 11.771173894405365 0
      vertex -52.405370116233826 11.771173894405365 5
      vertex -52.741036258637905 11.061467461287975 0
    endloop
  endfacet
  facet normal 0.9039892939524538 -0.4275550916774866 0
    outer loop
      vertex -52.741036258637905 11.061467461287975 5
      vertex -52.741036258637905 11.061467461287975 0
      vertex -52.405370116233826 11.771173894405365 5
    endloop
  endfacet
  facet normal 0.8577286087049234 -0.5141027463543802 0
    outer loop
      vertex -52.00175689905882 12.44456186145544 0
      vertex -52.00175689905882 12.44456186145544 5
      vertex -52.405370116233826 11.771173894405365 0
    endloop
  endfacet
  facet normal 0.8577286087049234 -0.5141027463543802 0
    outer loop
      vertex -52.405370116233826 11.771173894405365 5
      vertex -52.405370116233826 11.771173894405365 0
      vertex -52.00175689905882 12.44456186145544 5
    endloop
  endfacet
  facet normal 0.8032075322326658 -0.5956993034784503 0
    outer loop
      vertex -51.534083627164364 13.075146272778511 0
      vertex -51.534083627164364 13.075146272778511 5
      vertex -52.00175689905882 12.44456186145544 0
    endloop
  endfacet
  facet normal 0.8032075322326658 -0.5956993034784503 0
    outer loop
      vertex -52.00175689905882 12.44456186145544 5
      vertex -52.00175689905882 12.44456186145544 0
      vertex -51.534083627164364 13.075146272778511 5
    endloop
  endfacet
  facet normal 0.7409511264917887 -0.6715589535927202 0
    outer loop
      vertex -51.00685425102711 13.656854249536991 0
      vertex -51.00685425102711 13.656854249536991 5
      vertex -51.534083627164364 13.075146272778511 0
    endloop
  endfacet
  facet normal 0.7409511264917887 -0.6715589535927202 0
    outer loop
      vertex -51.534083627164364 13.075146272778511 5
      vertex -51.534083627164364 13.075146272778511 0
      vertex -51.00685425102711 13.656854249536991 5
    endloop
  endfacet
  facet normal 0.6715589535927202 -0.7409511264917887 0
    outer loop
      vertex -50.42514627426863 14.184083625674248 0
      vertex -50.42514627426863 14.184083625674248 5
      vertex -51.00685425102711 13.656854249536991 0
    endloop
  endfacet
  facet normal 0.6715589535927202 -0.7409511264917887 0
    outer loop
      vertex -51.00685425102711 13.656854249536991 5
      vertex -51.00685425102711 13.656854249536991 0
      vertex -50.42514627426863 14.184083625674248 5
    endloop
  endfacet
  facet normal 0.5956993034784503 -0.8032075322326658 0
    outer loop
      vertex -49.79456186294556 14.651756897568703 0
      vertex -49.79456186294556 14.651756897568703 5
      vertex -50.42514627426863 14.184083625674248 0
    endloop
  endfacet
  facet normal 0.5956993034784503 -0.8032075322326658 0
    outer loop
      vertex -50.42514627426863 14.184083625674248 5
      vertex -50.42514627426863 14.184083625674248 0
      vertex -49.79456186294556 14.651756897568703 5
    endloop
  endfacet
  facet normal 0.5141027463543802 -0.8577286087049234 0
    outer loop
      vertex -49.12117389589548 15.05537011474371 0
      vertex -49.12117389589548 15.05537011474371 5
      vertex -49.79456186294556 14.651756897568703 0
    endloop
  endfacet
  facet normal 0.5141027463543802 -0.8577286087049234 0
    outer loop
      vertex -49.79456186294556 14.651756897568703 5
      vertex -49.79456186294556 14.651756897568703 0
      vertex -49.12117389589548 15.05537011474371 5
    endloop
  endfacet
  facet normal 0.4275550916774866 -0.9039892939524538 0
    outer loop
      vertex -48.41146746277809 15.391036257147789 0
      vertex -48.41146746277809 15.391036257147789 5
      vertex -49.12117389589548 15.05537011474371 0
    endloop
  endfacet
  facet normal 0.4275550916774866 -0.9039892939524538 0
    outer loop
      vertex -49.12117389589548 15.05537011474371 5
      vertex -49.12117389589548 15.05537011474371 0
      vertex -48.41146746277809 15.391036257147789 5
    endloop
  endfacet
  facet normal 0.3368898600571533 -0.9415440627982695 0
    outer loop
      vertex -47.6722774207592 15.65552268922329 0
      vertex -47.6722774207592 15.65552268922329 5
      vertex -48.41146746277809 15.391036257147789 0
    endloop
  endfacet
  facet normal 0.3368898600571533 -0.9415440627982695 0
    outer loop
      vertex -48.41146746277809 15.391036257147789 5
      vertex -48.41146746277809 15.391036257147789 0
      vertex -47.6722774207592 15.65552268922329 5
    endloop
  endfacet
  facet normal 0.2429801756401818 -0.9700312542623905 0
    outer loop
      vertex -46.91072257608175 15.846282243728638 0
      vertex -46.91072257608175 15.846282243728638 5
      vertex -47.6722774207592 15.65552268922329 0
    endloop
  endfacet
  facet normal 0.2429801756401818 -0.9700312542623905 0
    outer loop
      vertex -47.6722774207592 15.65552268922329 5
      vertex -47.6722774207592 15.65552268922329 0
      vertex -46.91072257608175 15.846282243728638 5
    endloop
  endfacet
  facet normal 0.14673047745596915 -0.9891765095196828 0
    outer loop
      vertex -46.134137123823166 15.961477816104889 0
      vertex -46.134137123823166 15.961477816104889 5
      vertex -46.91072257608175 15.846282243728638 0
    endloop
  endfacet
  facet normal 0.14673047745596915 -0.9891765095196828 0
    outer loop
      vertex -46.91072257608175 15.846282243728638 5
      vertex -46.91072257608175 15.846282243728638 0
      vertex -46.134137123823166 15.961477816104889 5
    endloop
  endfacet
  facet normal 0.049067670880805034 -0.9987954563744936 0
    outer loop
      vertex -45.350000001490116 16 0
      vertex -45.350000001490116 16 5
      vertex -46.134137123823166 15.961477816104889 0
    endloop
  endfacet
  facet normal 0.049067670880805034 -0.9987954563744936 0
    outer loop
      vertex -46.134137123823166 15.961477816104889 5
      vertex -46.134137123823166 15.961477816104889 0
      vertex -45.350000001490116 16 5
    endloop
  endfacet
  facet normal 0 -1 0
    outer loop
      vertex 45.350000001490116 16 0
      vertex 45.350000001490116 16 5
      vertex -45.350000001490116 16 0
    endloop
  endfacet
  facet normal 0 -1 0
    outer loop
      vertex -45.350000001490116 16 5
      vertex -45.350000001490116 16 0
      vertex 45.350000001490116 16 5
    endloop
  endfacet
  facet normal -0.049067670880805034 -0.9987954563744936 0
    outer loop
      vertex 46.134137123823166 15.961477816104889 0
      vertex 46.134137123823166 15.961477816104889 5
      vertex 45.350000001490116 16 0
    endloop
  endfacet
  facet normal -0.049067670880805034 -0.9987954563744936 0
    outer loop
      vertex 45.350000001490116 16 5
      vertex 45.350000001490116 16 0
      vertex 46.134137123823166 15.961477816104889 5
    endloop
  endfacet
  facet normal -0.14673047745596915 -0.9891765095196828 0
    outer loop
      vertex 46.91072257608175 15.846282243728638 0
      vertex 46.91072257608175 15.846282243728638 5
      vertex 46.134137123823166 15.961477816104889 0
    endloop
  endfacet
  facet normal -0.14673047745596915 -0.9891765095196828 0
    outer loop
      vertex 46.134137123823166 15.961477816104889 5
      vertex 46.134137123823166 15.961477816104889 0
      vertex 46.91072257608175 15.846282243728638 5
    endloop
  endfacet
  facet normal -0.2429801756401818 -0.9700312542623905 0
    outer loop
      vertex 47.6722774207592 15.65552268922329 0
      vertex 47.6722774207592 15.65552268922329 5
      vertex 46.91072257608175 15.846282243728638 0
    endloop
  endfacet
  facet normal -0.2429801756401818 -0.9700312542623905 0
    outer loop
      vertex 46.91072257608175 15.846282243728638 5
      vertex 46.91072257608175 15.846282243728638 0
      vertex 47.6722774207592 15.65552268922329 5
    endloop
  endfacet
  facet normal -0.3368898600571533 -0.9415440627982695 0
    outer loop
      vertex 48.41146746277809 15.391036257147789 0
      vertex 48.41146746277809 15.391036257147789 5
      vertex 47.6722774207592 15.65552268922329 0
    endloop
  endfacet
  facet normal -0.3368898600571533 -0.9415440627982695 0
    outer loop
      vertex 47.6722774207592 15.65552268922329 5
      vertex 47.6722774207592 15.65552268922329 0
      vertex 48.41146746277809 15.391036257147789 5
    endloop
  endfacet
  facet normal -0.4275550916774866 -0.9039892939524538 0
    outer loop
      vertex 49.12117389589548 15.05537011474371 0
      vertex 49.12117389589548 15.05537011474371 5
      vertex 48.41146746277809 15.391036257147789 0
    endloop
  endfacet
  facet normal -0.4275550916774866 -0.9039892939524538 0
    outer loop
      vertex 48.41146746277809 15.391036257147789 5
      vertex 48.41146746277809 15.391036257147789 0
      vertex 49.12117389589548 15.05537011474371 5
    endloop
  endfacet
  facet normal -0.5141027463543802 -0.8577286087049234 0
    outer loop
      vertex 49.79456186294556 14.651756897568703 0
      vertex 49.79456186294556 14.651756897568703 5
      vertex 49.12117389589548 15.05537011474371 0
    endloop
  endfacet
  facet normal -0.5141027463543802 -0.8577286087049234 0
    outer loop
      vertex 49.12117389589548 15.05537011474371 5
      vertex 49.12117389589548 15.05537011474371 0
      vertex 49.79456186294556 14.651756897568703 5
    endloop
  endfacet
  facet normal -0.5956993034784503 -0.8032075322326658 0
    outer loop
      vertex 50.42514627426863 14.184083625674248 0
      vertex 50.42514627426863 14.184083625674248 5
      vertex 49.79456186294556 14.651756897568703 0
    endloop
  endfacet
  facet normal -0.5956993034784503 -0.8032075322326658 0
    outer loop
      vertex 49.79456186294556 14.651756897568703 5
      vertex 49.79456186294556 14.651756897568703 0
      vertex 50.42514627426863 14.184083625674248 5
    endloop
  endfacet
  facet normal -0.6715589535927202 -0.7409511264917887 0
    outer loop
      vertex 51.00685425102711 13.656854249536991 0
      vertex 51.00685425102711 13.656854249536991 5
      vertex 50.42514627426863 14.184083625674248 0
    endloop
  endfacet
  facet normal -0.6715589535927202 -0.7409511264917887 0
    outer loop
      vertex 50.42514627426863 14.184083625674248 5
      vertex 50.42514627426863 14.184083625674248 0
      vertex 51.00685425102711 13.656854249536991 5
    endloop
  endfacet
  facet normal -0.7409511264917887 -0.6715589535927202 0
    outer loop
      vertex 51.534083627164364 13.075146272778511 0
      vertex 51.534083627164364 13.075146272778511 5
      vertex 51.00685425102711 13.656854249536991 0
    endloop
  endfacet
  facet normal -0.7409511264917887 -0.6715589535927202 0
    outer loop
      vertex 51.00685425102711 13.656854249536991 5
      vertex 51.00685425102711 13.656854249536991 0
      vertex 51.534083627164364 13.075146272778511 5
    endloop
  endfacet
  facet normal -0.8032075322326658 -0.5956993034784503 0
    outer loop
      vertex 52.00175689905882 12.44456186145544 0
      vertex 52.00175689905882 12.44456186145544 5
      vertex 51.534083627164364 13.075146272778511 0
    endloop
  endfacet
  facet normal -0.8032075322326658 -0.5956993034784503 0
    outer loop
      vertex 51.534083627164364 13.075146272778511 5
      vertex 51.534083627164364 13.075146272778511 0
      vertex 52.00175689905882 12.44456186145544 5
    endloop
  endfacet
  facet normal -0.8577286087049234 -0.5141027463543802 0
    outer loop
      vertex 52.405370116233826 11.771173894405365 0
      vertex 52.405370116233826 11.771173894405365 5
      vertex 52.00175689905882 12.44456186145544 0
    endloop
  endfacet
  facet normal -0.8577286087049234 -0.5141027463543802 0
    outer loop
      vertex 52.00175689905882 12.44456186145544 5
      vertex 52.00175689905882 12.44456186145544 0
      vertex 52.405370116233826 11.771173894405365 5
    endloop
  endfacet
  facet normal -0.9039892939524538 -0.4275550916774866 0
    outer loop
      vertex 52.741036258637905 11.061467461287975 0
      vertex 52.741036258637905 11.061467461287975 5
      vertex 52.405370116233826 11.771173894405365 0
    endloop
  endfacet
  facet normal -0.9039892939524538 -0.4275550916774866 0
    outer loop
      vertex 52.405370116233826 11.771173894405365 5
      vertex 52.405370116233826 11.771173894405365 0
      vertex 52.741036258637905 11.061467461287975 5
    endloop
  endfacet
  facet normal -0.9415440627982695 -0.3368898600571533 0
    outer loop
      vertex 53.005522690713406 10.322277419269085 0
      vertex 53.005522690713406 10.322277419269085 5
      vertex 52.741036258637905 11.061467461287975 0
    endloop
  endfacet
  facet normal -0.9415440627982695 -0.3368898600571533 0
    outer loop
      vertex 52.741036258637905 11.061467461287975 5
      vertex 52.741036258637905 11.061467461287975 0
      vertex 53.005522690713406 10.322277419269085 5
    endloop
  endfacet
  facet normal -0.9700312542623905 -0.2429801756401818 0
    outer loop
      vertex 53.196282245218754 9.560722574591637 0
      vertex 53.196282245218754 9.560722574591637 5
      vertex 53.005522690713406 10.322277419269085 0
    endloop
  endfacet
  facet normal -0.9700312542623905 -0.2429801756401818 0
    outer loop
      vertex 53.005522690713406 10.322277419269085 5
      vertex 53.005522690713406 10.322277419269085 0
      vertex 53.196282245218754 9.560722574591637 5
    endloop
  endfacet
  facet normal -0.9891765095196828 -0.14673047745596915 0
    outer loop
      vertex 53.311477817595005 8.78413712233305 0
      vertex 53.311477817595005 8.78413712233305 5
      vertex 53.196282245218754 9.560722574591637 0
    endloop
  endfacet
  facet normal -0.9891765095196828 -0.14673047745596915 0
    outer loop
      vertex 53.196282245218754 9.560722574591637 5
      vertex 53.196282245218754 9.560722574591637 0
      vertex 53.311477817595005 8.78413712233305 5
    endloop
  endfacet
  facet normal -0.9987954563744936 -0.049067670880805034 0
    outer loop
      vertex 53.350000001490116 8 0
      vertex 53.350000001490116 8 5
      vertex 53.311477817595005 8.78413712233305 0
    endloop
  endfacet
  facet normal -0.9987954563744936 -0.049067670880805034 0
    outer loop
      vertex 53.311477817595005 8.78413712233305 5
      vertex 53.311477817595005 8.78413712233305 0
      vertex 53.350000001490116 8 5
    endloop
  endfacet
  facet normal -1 0 0
    outer loop
      vertex 53.350000001490116 -8 0
      vertex 53.350000001490116 -8 5
      vertex 53.350000001490116 8 0
    endloop
  endfacet
  facet normal -1 0 0
    outer loop
      vertex 53.350000001490116 8 5
      vertex 53.350000001490116 8 0
      vertex 53.350000001490116 -8 5
    endloop
  endfacet
  facet normal -0.9987954563744936 0.049067670880805034 0
    outer loop
      vertex 53.311477817595005 -8.78413712233305 0
      vertex 53.311477817595005 -8.78413712233305 5
      vertex 53.350000001490116 -8 0
    endloop
  endfacet
  facet normal -0.9987954563744936 0.049067670880805034 0
    outer loop
      vertex 53.350000001490116 -8 5
      vertex 53.350000001490116 -8 0
      vertex 53.311477817595005 -8.78413712233305 5
    endloop
  endfacet
  facet normal -0.9891765095196828 0.14673047745596915 0
    outer loop
      vertex 53.196282245218754 -9.560722574591637 0
      vertex 53.196282245218754 -9.560722574591637 5
      vertex 53.311477817595005 -8.78413712233305 0
    endloop
  endfacet
  facet normal -0.9891765095196828 0.14673047745596915 0
    outer loop
      vertex 53.311477817595005 -8.78413712233305 5
      vertex 53.311477817595005 -8.78413712233305 0
      vertex 53.196282245218754 -9.560722574591637 5
    endloop
  endfacet
  facet normal -0.9700312542623905 0.2429801756401818 0
    outer loop
      vertex 53.005522690713406 -10.322277419269085 0
      vertex 53.005522690713406 -10.322277419269085 5
      vertex 53.196282245218754 -9.560722574591637 0
    endloop
  endfacet
  facet normal -0.9700312542623905 0.2429801756401818 0
    outer loop
      vertex 53.196282245218754 -9.560722574591637 5
      vertex 53.196282245218754 -9.560722574591637 0
      vertex 53.005522690713406 -10.322277419269085 5
    endloop
  endfacet
  facet normal -0.9415440627982695 0.3368898600571533 0
    outer loop
      vertex 52.741036258637905 -11.061467461287975 0
      vertex 52.741036258637905 -11.061467461287975 5
      vertex 53.005522690713406 -10.322277419269085 0
    endloop
  endfacet
  facet normal -0.9415440627982695 0.3368898600571533 0
    outer loop
      vertex 53.005522690713406 -10.322277419269085 5
      vertex 53.005522690713406 -10.322277419269085 0
      vertex 52.741036258637905 -11.061467461287975 5
    endloop
  endfacet
  facet normal -0.9039892939524538 0.4275550916774866 0
    outer loop
      vertex 52.405370116233826 -11.771173894405365 0
      vertex 52.405370116233826 -11.771173894405365 5
      vertex 52.741036258637905 -11.061467461287975 0
    endloop
  endfacet
  facet normal -0.9039892939524538 0.4275550916774866 0
    outer loop
      vertex 52.741036258637905 -11.061467461287975 5
      vertex 52.741036258637905 -11.061467461287975 0
      vertex 52.405370116233826 -11.771173894405365 5
    endloop
  endfacet
  facet normal -0.8577286087049234 0.5141027463543802 0
    outer loop
      vertex 52.00175689905882 -12.44456186145544 0
      vertex 52.00175689905882 -12.44456186145544 5
      vertex 52.405370116233826 -11.771173894405365 0
    endloop
  endfacet
  facet normal -0.8577286087049234 0.5141027463543802 0
    outer loop
      vertex 52.405370116233826 -11.771173894405365 5
      vertex 52.405370116233826 -11.771173894405365 0
      vertex 52.00175689905882 -12.44456186145544 5
    endloop
  endfacet
  facet normal -0.8032075322326658 0.5956993034784503 0
    outer loop
      vertex 51.534083627164364 -13.075146272778511 0
      vertex 51.534083627164364 -13.075146272778511 5
      vertex 52.00175689905882 -12.44456186145544 0
    endloop
  endfacet
  facet normal -0.8032075322326658 0.5956993034784503 0
    outer loop
      vertex 52.00175689905882 -12.44456186145544 5
      vertex 52.00175689905882 -12.44456186145544 0
      vertex 51.534083627164364 -13.075146272778511 5
    endloop
  endfacet
  facet normal -0.7409511264917887 0.6715589535927202 0
    outer loop
      vertex 51.00685425102711 -13.656854249536991 0
      vertex 51.00685425102711 -13.656854249536991 5
      vertex 51.534083627164364 -13.075146272778511 0
    endloop
  endfacet
  facet normal -0.7409511264917887 0.6715589535927202 0
    outer loop
      vertex 51.534083627164364 -13.075146272778511 5
      vertex 51.534083627164364 -13.075146272778511 0
      vertex 51.00685425102711 -13.656854249536991 5
    endloop
  endfacet
  facet normal -0.6715589535927202 0.7409511264917887 0
    outer loop
      vertex 50.42514627426863 -14.184083625674248 0
      vertex 50.42514627426863 -14.184083625674248 5
      vertex 51.00685425102711 -13.656854249536991 0
    endloop
  endfacet
  facet normal -0.6715589535927202 0.7409511264917887 0
    outer loop
      vertex 51.00685425102711 -13.656854249536991 5
      vertex 51.00685425102711 -13.656854249536991 0
      vertex 50.42514627426863 -14.184083625674248 5
    endloop
  endfacet
  facet normal -0.5956993034784503 0.8032075322326658 0
    outer loop
      vertex 49.79456186294556 -14.651756897568703 0
      vertex 49.79456186294556 -14.651756897568703 5
      vertex 50.42514627426863 -14.184083625674248 0
    endloop
  endfacet
  facet normal -0.5956993034784503 0.8032075322326658 0
    outer loop
      vertex 50.42514627426863 -14.184083625674248 5
      vertex 50.42514627426863 -14.184083625674248 0
      vertex 49.79456186294556 -14.651756897568703 5
    endloop
  endfacet
  facet normal -0.5141027463543802 0.8577286087049234 0
    outer loop
      vertex 49.12117389589548 -15.05537011474371 0
      vertex 49.12117389589548 -15.05537011474371 5
      vertex 49.79456186294556 -14.651756897568703 0
    endloop
  endfacet
  facet normal -0.5141027463543802 0.8577286087049234 0
    outer loop
      vertex 49.79456186294556 -14.651756897568703 5
      vertex 49.79456186294556 -14.651756897568703 0
      vertex 49.12117389589548 -15.05537011474371 5
    endloop
  endfacet
  facet normal -0.4275550916774866 0.9039892939524538 0
    outer loop
      vertex 48.41146746277809 -15.391036257147789 0
      vertex 48.41146746277809 -15.391036257147789 5
      vertex 49.12117389589548 -15.05537011474371 0
    endloop
  endfacet
  facet normal -0.4275550916774866 0.9039892939524538 0
    outer loop
      vertex 49.12117389589548 -15.05537011474371 5
      vertex 49.12117389589548 -15.05537011474371 0
      vertex 48.41146746277809 -15.391036257147789 5
    endloop
  endfacet
  facet normal -0.3368898600571533 0.9415440627982695 0
    outer loop
      vertex 47.6722774207592 -15.65552268922329 0
      vertex 47.6722774207592 -15.65552268922329 5
      vertex 48.41146746277809 -15.391036257147789 0
    endloop
  endfacet
  facet normal -0.3368898600571533 0.9415440627982695 0
    outer loop
      vertex 48.41146746277809 -15.391036257147789 5
      vertex 48.41146746277809 -15.391036257147789 0
      vertex 47.6722774207592 -15.65552268922329 5
    endloop
  endfacet
  facet normal -0.2429801756401818 0.9700312542623905 0
    outer loop
      vertex 46.91072257608175 -15.846282243728638 0
      vertex 46.91072257608175 -15.846282243728638 5
      vertex 47.6722774207592 -15.65552268922329 0
    endloop
  endfacet
  facet normal -0.2429801756401818 0.9700312542623905 0
    outer loop
      vertex 47.6722774207592 -15.65552268922329 5
      vertex 47.6722774207592 -15.65552268922329 0
      vertex 46.91072257608175 -15.846282243728638 5
    endloop
  endfacet
  facet normal -0.14673047745596915 0.9891765095196828 0
    outer loop
      vertex 46.134137123823166 -15.961477816104889 0
      vertex 46.134137123823166 -15.961477816104889 5
      vertex 46.91072257608175 -15.846282243728638 0
    endloop
  endfacet
  facet normal -0.14673047745596915 0.9891765095196828 0
    outer loop
      vertex 46.91072257608175 -15.846282243728638 5
      vertex 46.91072257608175 -15.846282243728638 0
      vertex 46.134137123823166 -15.961477816104889 5
    endloop
  endfacet
  facet normal -0.049067670880805034 0.9987954563744936 0
    outer loop
      vertex 45.350000001490116 -16 0
      vertex 45.350000001490116 -16 5
      vertex 46.134137123823166 -15.961477816104889 0
    endloop
  endfacet
  facet normal -0.049067670880805034 0.9987954563744936 0
    outer loop
      vertex 46.134137123823166 -15.961477816104889 5
      vertex 46.134137123823166 -15.961477816104889 0
      vertex 45.350000001490116 -16 5
    endloop
  endfacet
  facet normal 0 1 0
    outer loop
      vertex -45.350000001490116 -16 0
      vertex -45.350000001490116 -16 5
      vertex 45.350000001490116 -16 0
    endloop
  endfacet
  facet normal 0 1 0
    outer loop
      vertex 45.350000001490116 -16 5
      vertex 45.350000001490116 -16 0
      vertex -45.350000001490116 -16 5
    endloop
  endfacet
  facet normal 0.049067670880805034 0.9987954563744936 0
    outer loop
      vertex -46.134137123823166 -15.961477816104889 0
      vertex -46.134137123823166 -15.961477816104889 5
      vertex -45.350000001490116 -16 0
    endloop
  endfacet
  facet normal 0.049067670880805034 0.9987954563744936 0
    outer loop
      vertex -45.350000001490116 -16 5
      vertex -45.350000001490116 -16 0
      vertex -46.134137123823166 -15.961477816104889 5
    endloop
  endfacet
  facet normal 0 0 1
    outer loop
      vertex 72.55000000447035 -10.200000002980232 5
      vertex 72.55000000447035 -11 5
      vertex 75.35000000149012 -10.200000002980232 5
    endloop
  endfacet
  facet normal 0 0 1
    outer loop
      vertex 75.35000000149012 10.200000002980232 5
      vertex 72.55000000447035 11 5
      vertex 72.55000000447035 10.200000002980232 5
    endloop
  endfacet
  facet normal 0 0 1
    outer loop
      vertex -72.55000000447035 10.200000002980232 5
      vertex -72.55000000447035 11 5
      vertex -75.35000000149012 10.200000002980232 5
    endloop
  endfacet
  facet normal 0 0 1
    outer loop
      vertex -75.35000000149012 -10.200000002980232 5
      vertex -72.55000000447035 -11 5
      vertex -72.55000000447035 -10.200000002980232 5
    endloop
  endfacet
  facet normal 0 0 1
    outer loop
      vertex 58.350000001490116 6 5
      vertex 58.350000001490116 8 5
      vertex 53.350000001490116 8 5
    endloop
  endfacet
  facet normal 0 0 1
    outer loop
      vertex 58.350000001490116 12.200000002980232 5
      vertex 67.35000000149012 12.200000002980232 5
      vertex 67.35000000149012 30 5
    endloop
  endfacet
  facet normal 0 0 1
    outer loop
      vertex -67.35000000149012 30 5
      vertex -67.35000000149012 12.200000002980232 5
      vertex -58.350000001490116 12.200000002980232 5
    endloop
  endfacet
  facet normal 0 0 1
    outer loop
      vertex -58.350000001490116 -12.200000002980232 5
      vertex -67.35000000149012 -12.200000002980232 5
      vertex -67.35000000149012 -30 5
    endloop
  endfacet
  facet normal 0 0 1
    outer loop
      vertex 67.35000000149012 -30 5
      vertex 67.35000000149012 -12.200000002980232 5
      vertex 58.350000001490116 -12.200000002980232 5
    endloop
  endfacet
  facet normal 0 0 1
    outer loop
      vertex 72.55000000447035 -10.200000002980232 5
      vertex 75.35000000149012 -10.200000002980232 5
      vertex 75.35000000149012 -8 5
    endloop
  endfacet
  facet normal 0 0 1
    outer loop
      vertex 75.35000000149012 8 5
      vertex 75.35000000149012 10.200000002980232 5
      vertex 72.55000000447035 10.200000002980232 5
    endloop
  endfacet
  facet normal 0 0 1
    outer loop
      vertex -72.55000000447035 10.200000002980232 5
      vertex -75.35000000149012 10.200000002980232 5
      vertex -75.35000000149012 8 5
    endloop
  endfacet
  facet normal 0 0 1
    outer loop
      vertex -75.35000000149012 -8 5
      vertex -75.35000000149012 -10.200000002980232 5
      vertex -72.55000000447035 -10.200000002980232 5
    endloop
  endfacet
  facet normal 0 0 1
    outer loop
      vertex 72.55000000447035 -10.200000002980232 5
      vertex 75.35000000149012 -8 5
      vertex 58.350000001490116 -8 5
    endloop
  endfacet
  facet normal 0 0 1
    outer loop
      vertex 58.350000001490116 -10.200000002980232 5
      vertex 72.55000000447035 -10.200000002980232 5
      vertex 58.350000001490116 -8 5
    endloop
  endfacet
  facet normal 0 0 1
    outer loop
      vertex 58.350000001490116 8 5
      vertex 75.35000000149012 8 5
      vertex 72.55000000447035 10.200000002980232 5
    endloop
  endfacet
  facet normal 0 0 1
    outer loop
      vertex 58.350000001490116 8 5
      vertex 72.55000000447035 10.200000002980232 5
      vertex 58.350000001490116 10.200000002980232 5
    endloop
  endfacet
  facet normal 0 0 1
    outer loop
      vertex -72.55000000447035 10.200000002980232 5
      vertex -75.35000000149012 8 5
      vertex -58.350000001490116 8 5
    endloop
  endfacet
  facet normal 0 0 1
    outer loop
      vertex -58.350000001490116 10.200000002980232 5
      vertex -72.55000000447035 10.200000002980232 5
      vertex -58.350000001490116 8 5
    endloop
  endfacet
  facet normal 0 0 1
    outer loop
      vertex -58.350000001490116 -8 5
      vertex -75.35000000149012 -8 5
      vertex -72.55000000447035 -10.200000002980232 5
    endloop
  endfacet
  facet normal 0 0 1
    outer loop
      vertex -58.350000001490116 -8 5
      vertex -72.55000000447035 -10.200000002980232 5
      vertex -58.350000001490116 -10.200000002980232 5
    endloop
  endfacet
  facet normal 0 0 1
    outer loop
      vertex 53.311477817595005 8.78413712233305 5
      vertex 53.350000001490116 8 5
      vertex 58.350000001490116 8 5
    endloop
  endfacet
  facet normal 0 0 1
    outer loop
      vertex 53.311477817595005 8.78413712233305 5
      vertex 58.350000001490116 8 5
      vertex 58.350000001490116 10.200000002980232 5
    endloop
  endfacet
  facet normal 0 0 1
    outer loop
      vertex 53.196282245218754 9.560722574591637 5
      vertex 53.311477817595005 8.78413712233305 5
      vertex 58.350000001490116 10.200000002980232 5
    endloop
  endfacet
  facet normal 0 0 1
    outer loop
      vertex 53.005522690713406 10.322277419269085 5
      vertex 53.196282245218754 9.560722574591637 5
      vertex 58.350000001490116 10.200000002980232 5
    endloop
  endfacet
  facet normal 0 0 1
    outer loop
      vertex 53.005522690713406 10.322277419269085 5
      vertex 58.350000001490116 10.200000002980232 5
      vertex 58.350000001490116 12.200000002980232 5
    endloop
  endfacet
  facet normal 0 0 1
    outer loop
      vertex 52.741036258637905 11.061467461287975 5
      vertex 53.005522690713406 10.322277419269085 5
      vertex 58.350000001490116 12.200000002980232 5
    endloop
  endfacet
  facet normal 0 0 1
    outer loop
      vertex 52.405370116233826 11.771173894405365 5
      vertex 52.741036258637905 11.061467461287975 5
      vertex 58.350000001490116 12.200000002980232 5
    endloop
  endfacet
  facet normal 0 0 1
    outer loop
      vertex 58.350000001490116 6 5
      vertex 53.350000001490116 8 5
      vertex 53.350000001490116 -8 5
    endloop
  endfacet
  facet normal 0 0 1
    outer loop
      vertex 52.00175689905882 12.44456186145544 5
      vertex 52.405370116233826 11.771173894405365 5
      vertex 58.350000001490116 12.200000002980232 5
    endloop
  endfacet
  facet normal 0 0 1
    outer loop
      vertex 52.00175689905882 12.44456186145544 5
      vertex 58.350000001490116 12.200000002980232 5
      vertex 67.35000000149012 30 5
    endloop
  endfacet
  facet normal 0 0 1
    outer loop
      vertex 51.534083627164364 13.075146272778511 5
      vertex 52.00175689905882 12.44456186145544 5
      vertex 67.35000000149012 30 5
    endloop
  endfacet
  facet normal 0 0 1
    outer loop
      vertex 51.00685425102711 13.656854249536991 5
      vertex 51.534083627164364 13.075146272778511 5
      vertex 67.35000000149012 30 5
    endloop
  endfacet
  facet normal 0 0 1
    outer loop
      vertex 50.42514627426863 14.184083625674248 5
      vertex 51.00685425102711 13.656854249536991 5
      vertex 67.35000000149012 30 5
    endloop
  endfacet
  facet normal 0 0 1
    outer loop
      vertex 49.79456186294556 14.651756897568703 5
      vertex 50.42514627426863 14.184083625674248 5
      vertex 67.35000000149012 30 5
    endloop
  endfacet
  facet normal 0 0 1
    outer loop
      vertex 49.12117389589548 15.05537011474371 5
      vertex 49.79456186294556 14.651756897568703 5
      vertex 67.35000000149012 30 5
    endloop
  endfacet
  facet normal 0 0 1
    outer loop
      vertex 48.41146746277809 15.391036257147789 5
      vertex 49.12117389589548 15.05537011474371 5
      vertex 67.35000000149012 30 5
    endloop
  endfacet
  facet normal 0 0 1
    outer loop
      vertex 47.6722774207592 15.65552268922329 5
      vertex 48.41146746277809 15.391036257147789 5
      vertex 67.35000000149012 30 5
    endloop
  endfacet
  facet normal 0 0 1
    outer loop
      vertex 46.91072257608175 15.846282243728638 5
      vertex 47.6722774207592 15.65552268922329 5
      vertex 67.35000000149012 30 5
    endloop
  endfacet
  facet normal 0 0 1
    outer loop
      vertex 71.85000000149012 6 5
      vertex 58.350000001490116 6 5
      vertex 53.350000001490116 -8 5
    endloop
  endfacet
  facet normal 0 0 1
    outer loop
      vertex 73.35000000149012 4.5 5
      vertex 71.85000000149012 6 5
      vertex 53.350000001490116 -8 5
    endloop
  endfacet
  facet normal 0 0 1
    outer loop
      vertex 58.350000001490116 -6 5
      vertex 71.85000000149012 -6 5
      vertex 73.35000000149012 -4.5 5
    endloop
  endfacet
  facet normal 0 0 1
    outer loop
      vertex 58.350000001490116 -6 5
      vertex 73.35000000149012 -4.5 5
      vertex 73.35000000149012 4.5 5
    endloop
  endfacet
  facet normal 0 0 1
    outer loop
      vertex 58.350000001490116 -6 5
      vertex 73.35000000149012 4.5 5
      vertex 53.350000001490116 -8 5
    endloop
  endfacet
  facet normal 0 0 1
    outer loop
      vertex 58.350000001490116 -8 5
      vertex 58.350000001490116 -6 5
      vertex 53.350000001490116 -8 5
    endloop
  endfacet
  facet normal 0 0 1
    outer loop
      vertex 58.350000001490116 -8 5
      vertex 53.350000001490116 -8 5
      vertex 53.311477817595005 -8.78413712233305 5
    endloop
  endfacet
  facet normal 0 0 1
    outer loop
      vertex 58.350000001490116 -10.200000002980232 5
      vertex 58.350000001490116 -8 5
      vertex 53.311477817595005 -8.78413712233305 5
    endloop
  endfacet
  facet normal 0 0 1
    outer loop
      vertex 58.350000001490116 -10.200000002980232 5
      vertex 53.311477817595005 -8.78413712233305 5
      vertex 53.196282245218754 -9.560722574591637 5
    endloop
  endfacet
  facet normal 0 0 1
    outer loop
      vertex 58.350000001490116 -10.200000002980232 5
      vertex 53.196282245218754 -9.560722574591637 5
      vertex 53.005522690713406 -10.322277419269085 5
    endloop
  endfacet
  facet normal 0 0 1
    outer loop
      vertex 58.350000001490116 -12.200000002980232 5
      vertex 58.350000001490116 -10.200000002980232 5
      vertex 53.005522690713406 -10.322277419269085 5
    endloop
  endfacet
  facet normal 0 0 1
    outer loop
      vertex 58.350000001490116 -12.200000002980232 5
      vertex 53.005522690713406 -10.322277419269085 5
      vertex 52.741036258637905 -11.061467461287975 5
    endloop
  endfacet
  facet normal 0 0 1
    outer loop
      vertex 58.350000001490116 -12.200000002980232 5
      vertex 52.741036258637905 -11.061467461287975 5
      vertex 52.405370116233826 -11.771173894405365 5
    endloop
  endfacet
  facet normal 0 0 1
    outer loop
      vertex 58.350000001490116 -12.200000002980232 5
      vertex 52.405370116233826 -11.771173894405365 5
      vertex 52.00175689905882 -12.44456186145544 5
    endloop
  endfacet
  facet normal 0 0 1
    outer loop
      vertex 67.35000000149012 -30 5
      vertex 58.350000001490116 -12.200000002980232 5
      vertex 52.00175689905882 -12.44456186145544 5
    endloop
  endfacet
  facet normal 0 0 1
    outer loop
      vertex 67.35000000149012 -30 5
      vertex 52.00175689905882 -12.44456186145544 5
      vertex 51.534083627164364 -13.075146272778511 5
    endloop
  endfacet
  facet normal 0 0 1
    outer loop
      vertex 67.35000000149012 -30 5
      vertex 51.534083627164364 -13.075146272778511 5
      vertex 51.00685425102711 -13.656854249536991 5
    endloop
  endfacet
  facet normal 0 0 1
    outer loop
      vertex 67.35000000149012 -30 5
      vertex 51.00685425102711 -13.656854249536991 5
      vertex 50.42514627426863 -14.184083625674248 5
    endloop
  endfacet
  facet normal 0 0 1
    outer loop
      vertex 67.35000000149012 -30 5
      vertex 50.42514627426863 -14.184083625674248 5
      vertex 49.79456186294556 -14.651756897568703 5
    endloop
  endfacet
  facet normal 0 0 1
    outer loop
      vertex 67.35000000149012 -30 5
      vertex 49.79456186294556 -14.651756897568703 5
      vertex 49.12117389589548 -15.05537011474371 5
    endloop
  endfacet
  facet normal 0 0 1
    outer loop
      vertex 67.35000000149012 -30 5
      vertex 49.12117389589548 -15.05537011474371 5
      vertex 48.41146746277809 -15.391036257147789 5
    endloop
  endfacet
  facet normal 0 0 1
    outer loop
      vertex 67.35000000149012 -30 5
      vertex 48.41146746277809 -15.391036257147789 5
      vertex 47.6722774207592 -15.65552268922329 5
    endloop
  endfacet
  facet normal 0 0 1
    outer loop
      vertex 67.35000000149012 -30 5
      vertex 47.6722774207592 -15.65552268922329 5
      vertex 46.91072257608175 -15.846282243728638 5
    endloop
  endfacet
  facet normal 0 0 1
    outer loop
      vertex -58.350000001490116 6 5
      vertex -71.85000000149012 6 5
      vertex -73.35000000149012 4.5 5
    endloop
  endfacet
  facet normal 0 0 1
    outer loop
      vertex -58.350000001490116 6 5
      vertex -73.35000000149012 4.5 5
      vertex -73.35000000149012 -4.5 5
    endloop
  endfacet
  facet normal 0 0 1
    outer loop
      vertex -58.350000001490116 6 5
      vertex -73.35000000149012 -4.5 5
      vertex -71.85000000149012 -6 5
    endloop
  endfacet
  facet normal 0 0 1
    outer loop
      vertex -58.350000001490116 6 5
      vertex -71.85000000149012 -6 5
      vertex -58.350000001490116 -6 5
    endloop
  endfacet
  facet normal 0 0 1
    outer loop
      vertex 46.134137123823166 15.961477816104889 5
      vertex 46.91072257608175 15.846282243728638 5
      vertex 67.35000000149012 30 5
    endloop
  endfacet
  facet normal 0 0 1
    outer loop
      vertex 46.134137123823166 15.961477816104889 5
      vertex 67.35000000149012 30 5
      vertex -67.35000000149012 30 5
    endloop
  endfacet
  facet normal 0 0 1
    outer loop
      vertex 45.350000001490116 16 5
      vertex 46.134137123823166 15.961477816104889 5
      vertex -67.35000000149012 30 5
    endloop
  endfacet
  facet normal 0 0 1
    outer loop
      vertex -45.350000001490116 16 5
      vertex 45.350000001490116 16 5
      vertex -67.35000000149012 30 5
    endloop
  endfacet
  facet normal 0 0 1
    outer loop
      vertex -46.134137123823166 15.961477816104889 5
      vertex -45.350000001490116 16 5
      vertex -67.35000000149012 30 5
    endloop
  endfacet
  facet normal 0 0 1
    outer loop
      vertex -46.91072257608175 15.846282243728638 5
      vertex -46.134137123823166 15.961477816104889 5
      vertex -67.35000000149012 30 5
    endloop
  endfacet
  facet normal 0 0 1
    outer loop
      vertex -47.6722774207592 15.65552268922329 5
      vertex -46.91072257608175 15.846282243728638 5
      vertex -67.35000000149012 30 5
    endloop
  endfacet
  facet normal 0 0 1
    outer loop
      vertex -48.41146746277809 15.391036257147789 5
      vertex -47.6722774207592 15.65552268922329 5
      vertex -67.35000000149012 30 5
    endloop
  endfacet
  facet normal 0 0 1
    outer loop
      vertex -49.12117389589548 15.05537011474371 5
      vertex -48.41146746277809 15.391036257147789 5
      vertex -67.35000000149012 30 5
    endloop
  endfacet
  facet normal 0 0 1
    outer loop
      vertex -49.79456186294556 14.651756897568703 5
      vertex -49.12117389589548 15.05537011474371 5
      vertex -67.35000000149012 30 5
    endloop
  endfacet
  facet normal 0 0 1
    outer loop
      vertex -50.42514627426863 14.184083625674248 5
      vertex -49.79456186294556 14.651756897568703 5
      vertex -67.35000000149012 30 5
    endloop
  endfacet
  facet normal 0 0 1
    outer loop
      vertex -51.00685425102711 13.656854249536991 5
      vertex -50.42514627426863 14.184083625674248 5
      vertex -67.35000000149012 30 5
    endloop
  endfacet
  facet normal 0 0 1
    outer loop
      vertex -51.534083627164364 13.075146272778511 5
      vertex -51.00685425102711 13.656854249536991 5
      vertex -67.35000000149012 30 5
    endloop
  endfacet
  facet normal 0 0 1
    outer loop
      vertex -52.00175689905882 12.44456186145544 5
      vertex -51.534083627164364 13.075146272778511 5
      vertex -67.35000000149012 30 5
    endloop
  endfacet
  facet normal 0 0 1
    outer loop
      vertex -52.00175689905882 12.44456186145544 5
      vertex -67.35000000149012 30 5
      vertex -58.350000001490116 12.200000002980232 5
    endloop
  endfacet
  facet normal 0 0 1
    outer loop
      vertex -52.405370116233826 11.771173894405365 5
      vertex -52.00175689905882 12.44456186145544 5
      vertex -58.350000001490116 12.200000002980232 5
    endloop
  endfacet
  facet normal 0 0 1
    outer loop
      vertex -52.741036258637905 11.061467461287975 5
      vertex -52.405370116233826 11.771173894405365 5
      vertex -58.350000001490116 12.200000002980232 5
    endloop
  endfacet
  facet normal 0 0 1
    outer loop
      vertex -53.005522690713406 10.322277419269085 5
      vertex -52.741036258637905 11.061467461287975 5
      vertex -58.350000001490116 12.200000002980232 5
    endloop
  endfacet
  facet normal 0 0 1
    outer loop
      vertex -53.005522690713406 10.322277419269085 5
      vertex -58.350000001490116 12.200000002980232 5
      vertex -58.350000001490116 10.200000002980232 5
    endloop
  endfacet
  facet normal 0 0 1
    outer loop
      vertex -53.196282245218754 9.560722574591637 5
      vertex -53.005522690713406 10.322277419269085 5
      vertex -58.350000001490116 10.200000002980232 5
    endloop
  endfacet
  facet normal 0 0 1
    outer loop
      vertex -53.311477817595005 8.78413712233305 5
      vertex -53.196282245218754 9.560722574591637 5
      vertex -58.350000001490116 10.200000002980232 5
    endloop
  endfacet
  facet normal 0 0 1
    outer loop
      vertex -53.311477817595005 8.78413712233305 5
      vertex -58.350000001490116 10.200000002980232 5
      vertex -58.350000001490116 8 5
    endloop
  endfacet
  facet normal 0 0 1
    outer loop
      vertex -53.350000001490116 8 5
      vertex -53.311477817595005 8.78413712233305 5
      vertex -58.350000001490116 8 5
    endloop
  endfacet
  facet normal 0 0 1
    outer loop
      vertex -53.350000001490116 8 5
      vertex -58.350000001490116 8 5
      vertex -58.350000001490116 6 5
    endloop
  endfacet
  facet normal 0 0 1
    outer loop
      vertex -53.350000001490116 8 5
      vertex -58.350000001490116 6 5
      vertex -58.350000001490116 -6 5
    endloop
  endfacet
  facet normal 0 0 1
    outer loop
      vertex -53.350000001490116 -8 5
      vertex -53.350000001490116 8 5
      vertex -58.350000001490116 -6 5
    endloop
  endfacet
  facet normal 0 0 1
    outer loop
      vertex -53.350000001490116 -8 5
      vertex -58.350000001490116 -6 5
      vertex -58.350000001490116 -8 5
    endloop
  endfacet
  facet normal 0 0 1
    outer loop
      vertex -53.311477817595005 -8.78413712233305 5
      vertex -53.350000001490116 -8 5
      vertex -58.350000001490116 -8 5
    endloop
  endfacet
  facet normal 0 0 1
    outer loop
      vertex -53.311477817595005 -8.78413712233305 5
      vertex -58.350000001490116 -8 5
      vertex -58.350000001490116 -10.200000002980232 5
    endloop
  endfacet
  facet normal 0 0 1
    outer loop
      vertex -53.196282245218754 -9.560722574591637 5
      vertex -53.311477817595005 -8.78413712233305 5
      vertex -58.350000001490116 -10.200000002980232 5
    endloop
  endfacet
  facet normal 0 0 1
    outer loop
      vertex -53.005522690713406 -10.322277419269085 5
      vertex -53.196282245218754 -9.560722574591637 5
      vertex -58.350000001490116 -10.200000002980232 5
    endloop
  endfacet
  facet normal 0 0 1
    outer loop
      vertex -53.005522690713406 -10.322277419269085 5
      vertex -58.350000001490116 -10.200000002980232 5
      vertex -58.350000001490116 -12.200000002980232 5
    endloop
  endfacet
  facet normal 0 0 1
    outer loop
      vertex -52.741036258637905 -11.061467461287975 5
      vertex -53.005522690713406 -10.322277419269085 5
      vertex -58.350000001490116 -12.200000002980232 5
    endloop
  endfacet
  facet normal 0 0 1
    outer loop
      vertex -52.405370116233826 -11.771173894405365 5
      vertex -52.741036258637905 -11.061467461287975 5
      vertex -58.350000001490116 -12.200000002980232 5
    endloop
  endfacet
  facet normal 0 0 1
    outer loop
      vertex -52.00175689905882 -12.44456186145544 5
      vertex -52.405370116233826 -11.771173894405365 5
      vertex -58.350000001490116 -12.200000002980232 5
    endloop
  endfacet
  facet normal 0 0 1
    outer loop
      vertex -52.00175689905882 -12.44456186145544 5
      vertex -58.350000001490116 -12.200000002980232 5
      vertex -67.35000000149012 -30 5
    endloop
  endfacet
  facet normal 0 0 1
    outer loop
      vertex -51.534083627164364 -13.075146272778511 5
      vertex -52.00175689905882 -12.44456186145544 5
      vertex -67.35000000149012 -30 5
    endloop
  endfacet
  facet normal 0 0 1
    outer loop
      vertex -51.00685425102711 -13.656854249536991 5
      vertex -51.534083627164364 -13.075146272778511 5
      vertex -67.35000000149012 -30 5
    endloop
  endfacet
  facet normal 0 0 1
    outer loop
      vertex -50.42514627426863 -14.184083625674248 5
      vertex -51.00685425102711 -13.656854249536991 5
      vertex -67.35000000149012 -30 5
    endloop
  endfacet
  facet normal 0 0 1
    outer loop
      vertex -49.79456186294556 -14.651756897568703 5
      vertex -50.42514627426863 -14.184083625674248 5
      vertex -67.35000000149012 -30 5
    endloop
  endfacet
  facet normal 0 0 1
    outer loop
      vertex -49.12117389589548 -15.05537011474371 5
      vertex -49.79456186294556 -14.651756897568703 5
      vertex -67.35000000149012 -30 5
    endloop
  endfacet
  facet normal 0 0 1
    outer loop
      vertex -48.41146746277809 -15.391036257147789 5
      vertex -49.12117389589548 -15.05537011474371 5
      vertex -67.35000000149012 -30 5
    endloop
  endfacet
  facet normal 0 0 1
    outer loop
      vertex -47.6722774207592 -15.65552268922329 5
      vertex -48.41146746277809 -15.391036257147789 5
      vertex -67.35000000149012 -30 5
    endloop
  endfacet
  facet normal 0 0 1
    outer loop
      vertex -46.91072257608175 -15.846282243728638 5
      vertex -47.6722774207592 -15.65552268922329 5
      vertex -67.35000000149012 -30 5
    endloop
  endfacet
  facet normal 0 0 1
    outer loop
      vertex 67.35000000149012 -30 5
      vertex 46.91072257608175 -15.846282243728638 5
      vertex 46.134137123823166 -15.961477816104889 5
    endloop
  endfacet
  facet normal 0 0 1
    outer loop
      vertex -67.35000000149012 -30 5
      vertex 67.35000000149012 -30 5
      vertex 46.134137123823166 -15.961477816104889 5
    endloop
  endfacet
  facet normal 0 0 1
    outer loop
      vertex -67.35000000149012 -30 5
      vertex 46.134137123823166 -15.961477816104889 5
      vertex 45.350000001490116 -16 5
    endloop
  endfacet
  facet normal 0 0 1
    outer loop
      vertex -67.35000000149012 -30 5
      vertex 45.350000001490116 -16 5
      vertex -45.350000001490116 -16 5
    endloop
  endfacet
  facet normal 0 0 1
    outer loop
      vertex -67.35000000149012 -30 5
      vertex -45.350000001490116 -16 5
      vertex -46.134137123823166 -15.961477816104889 5
    endloop
  endfacet
  facet normal 0 0 1
    outer loop
      vertex -46.91072257608175 -15.846282243728638 5
      vertex -67.35000000149012 -30 5
      vertex -46.134137123823166 -15.961477816104889 5
    endloop
  endfacet
  facet normal 0 0 -1
    outer loop
      vertex 75.35000000149012 -10.200000002980232 0
      vertex 72.55000000447035 -11 0
      vertex 72.55000000447035 -10.200000002980232 0
    endloop
  endfacet
  facet normal 0 0 -1
    outer loop
      vertex 72.55000000447035 10.200000002980232 0
      vertex 72.55000000447035 11 0
      vertex 75.35000000149012 10.200000002980232 0
    endloop
  endfacet
  facet normal 0 0 -1
    outer loop
      vertex -75.35000000149012 10.200000002980232 0
      vertex -72.55000000447035 11 0
      vertex -72.55000000447035 10.200000002980232 0
    endloop
  endfacet
  facet normal 0 0 -1
    outer loop
      vertex -72.55000000447035 -10.200000002980232 0
      vertex -72.55000000447035 -11 0
      vertex -75.35000000149012 -10.200000002980232 0
    endloop
  endfacet
  facet normal 0 0 -1
    outer loop
      vertex 53.350000001490116 8 0
      vertex 58.350000001490116 8 0
      vertex 58.350000001490116 6 0
    endloop
  endfacet
  facet normal 0 0 -1
    outer loop
      vertex 67.35000000149012 30 0
      vertex 67.35000000149012 12.200000002980232 0
      vertex 58.350000001490116 12.200000002980232 0
    endloop
  endfacet
  facet normal 0 0 -1
    outer loop
      vertex -58.350000001490116 12.200000002980232 0
      vertex -67.35000000149012 12.200000002980232 0
      vertex -67.35000000149012 30 0
    endloop
  endfacet
  facet normal 0 0 -1
    outer loop
      vertex -67.35000000149012 -30 0
      vertex -67.35000000149012 -12.200000002980232 0
      vertex -58.350000001490116 -12.200000002980232 0
    endloop
  endfacet
  facet normal 0 0 -1
    outer loop
      vertex 58.350000001490116 -12.200000002980232 0
      vertex 67.35000000149012 -12.200000002980232 0
      vertex 67.35000000149012 -30 0
    endloop
  endfacet
  facet normal 0 0 -1
    outer loop
      vertex 75.35000000149012 -8 0
      vertex 75.35000000149012 -10.200000002980232 0
      vertex 72.55000000447035 -10.200000002980232 0
    endloop
  endfacet
  facet normal 0 0 -1
    outer loop
      vertex 72.55000000447035 10.200000002980232 0
      vertex 75.35000000149012 10.200000002980232 0
      vertex 75.35000000149012 8 0
    endloop
  endfacet
  facet normal 0 0 -1
    outer loop
      vertex -75.35000000149012 8 0
      vertex -75.35000000149012 10.200000002980232 0
      vertex -72.55000000447035 10.200000002980232 0
    endloop
  endfacet
  facet normal 0 0 -1
    outer loop
      vertex -72.55000000447035 -10.200000002980232 0
      vertex -75.35000000149012 -10.200000002980232 0
      vertex -75.35000000149012 -8 0
    endloop
  endfacet
  facet normal 0 0 -1
    outer loop
      vertex 58.350000001490116 -8 0
      vertex 75.35000000149012 -8 0
      vertex 72.55000000447035 -10.200000002980232 0
    endloop
  endfacet
  facet normal 0 0 -1
    outer loop
      vertex 58.350000001490116 -8 0
      vertex 72.55000000447035 -10.200000002980232 0
      vertex 58.350000001490116 -10.200000002980232 0
    endloop
  endfacet
  facet normal 0 0 -1
    outer loop
      vertex 72.55000000447035 10.200000002980232 0
      vertex 75.35000000149012 8 0
      vertex 58.350000001490116 8 0
    endloop
  endfacet
  facet normal 0 0 -1
    outer loop
      vertex 58.350000001490116 10.200000002980232 0
      vertex 72.55000000447035 10.200000002980232 0
      vertex 58.350000001490116 8 0
    endloop
  endfacet
  facet normal 0 0 -1
    outer loop
      vertex -58.350000001490116 8 0
      vertex -75.35000000149012 8 0
      vertex -72.55000000447035 10.200000002980232 0
    endloop
  endfacet
  facet normal 0 0 -1
    outer loop
      vertex -58.350000001490116 8 0
      vertex -72.55000000447035 10.200000002980232 0
      vertex -58.350000001490116 10.200000002980232 0
    endloop
  endfacet
  facet normal 0 0 -1
    outer loop
      vertex -72.55000000447035 -10.200000002980232 0
      vertex -75.35000000149012 -8 0
      vertex -58.350000001490116 -8 0
    endloop
  endfacet
  facet normal 0 0 -1
    outer loop
      vertex -58.350000001490116 -10.200000002980232 0
      vertex -72.55000000447035 -10.200000002980232 0
      vertex -58.350000001490116 -8 0
    endloop
  endfacet
  facet normal 0 0 -1
    outer loop
      vertex 58.350000001490116 8 0
      vertex 53.350000001490116 8 0
      vertex 53.311477817595005 8.78413712233305 0
    endloop
  endfacet
  facet normal 0 0 -1
    outer loop
      vertex 58.350000001490116 10.200000002980232 0
      vertex 58.350000001490116 8 0
      vertex 53.311477817595005 8.78413712233305 0
    endloop
  endfacet
  facet normal 0 0 -1
    outer loop
      vertex 58.350000001490116 10.200000002980232 0
      vertex 53.311477817595005 8.78413712233305 0
      vertex 53.196282245218754 9.560722574591637 0
    endloop
  endfacet
  facet normal 0 0 -1
    outer loop
      vertex 58.350000001490116 10.200000002980232 0
      vertex 53.196282245218754 9.560722574591637 0
      vertex 53.005522690713406 10.322277419269085 0
    endloop
  endfacet
  facet normal 0 0 -1
    outer loop
      vertex 58.350000001490116 12.200000002980232 0
      vertex 58.350000001490116 10.200000002980232 0
      vertex 53.005522690713406 10.322277419269085 0
    endloop
  endfacet
  facet normal 0 0 -1
    outer loop
      vertex 58.350000001490116 12.200000002980232 0
      vertex 53.005522690713406 10.322277419269085 0
      vertex 52.741036258637905 11.061467461287975 0
    endloop
  endfacet
  facet normal 0 0 -1
    outer loop
      vertex 58.350000001490116 12.200000002980232 0
      vertex 52.741036258637905 11.061467461287975 0
      vertex 52.405370116233826 11.771173894405365 0
    endloop
  endfacet
  facet normal 0 0 -1
    outer loop
      vertex 53.350000001490116 -8 0
      vertex 53.350000001490116 8 0
      vertex 58.350000001490116 6 0
    endloop
  endfacet
  facet normal 0 0 -1
    outer loop
      vertex 58.350000001490116 12.200000002980232 0
      vertex 52.405370116233826 11.771173894405365 0
      vertex 52.00175689905882 12.44456186145544 0
    endloop
  endfacet
  facet normal 0 0 -1
    outer loop
      vertex 67.35000000149012 30 0
      vertex 58.350000001490116 12.200000002980232 0
      vertex 52.00175689905882 12.44456186145544 0
    endloop
  endfacet
  facet normal 0 0 -1
    outer loop
      vertex 67.35000000149012 30 0
      vertex 52.00175689905882 12.44456186145544 0
      vertex 51.534083627164364 13.075146272778511 0
    endloop
  endfacet
  facet normal 0 0 -1
    outer loop
      vertex 67.35000000149012 30 0
      vertex 51.534083627164364 13.075146272778511 0
      vertex 51.00685425102711 13.656854249536991 0
    endloop
  endfacet
  facet normal 0 0 -1
    outer loop
      vertex 67.35000000149012 30 0
      vertex 51.00685425102711 13.656854249536991 0
      vertex 50.42514627426863 14.184083625674248 0
    endloop
  endfacet
  facet normal 0 0 -1
    outer loop
      vertex 67.35000000149012 30 0
      vertex 50.42514627426863 14.184083625674248 0
      vertex 49.79456186294556 14.651756897568703 0
    endloop
  endfacet
  facet normal 0 0 -1
    outer loop
      vertex 67.35000000149012 30 0
      vertex 49.79456186294556 14.651756897568703 0
      vertex 49.12117389589548 15.05537011474371 0
    endloop
  endfacet
  facet normal 0 0 -1
    outer loop
      vertex 67.35000000149012 30 0
      vertex 49.12117389589548 15.05537011474371 0
      vertex 48.41146746277809 15.391036257147789 0
    endloop
  endfacet
  facet normal 0 0 -1
    outer loop
      vertex 67.35000000149012 30 0
      vertex 48.41146746277809 15.391036257147789 0
      vertex 47.6722774207592 15.65552268922329 0
    endloop
  endfacet
  facet normal 0 0 -1
    outer loop
      vertex 67.35000000149012 30 0
      vertex 47.6722774207592 15.65552268922329 0
      vertex 46.91072257608175 15.846282243728638 0
    endloop
  endfacet
  facet normal 0 0 -1
    outer loop
      vertex 53.350000001490116 -8 0
      vertex 58.350000001490116 6 0
      vertex 71.85000000149012 6 0
    endloop
  endfacet
  facet normal 0 0 -1
    outer loop
      vertex 53.350000001490116 -8 0
      vertex 71.85000000149012 6 0
      vertex 73.35000000149012 4.5 0
    endloop
  endfacet
  facet normal 0 0 -1
    outer loop
      vertex 73.35000000149012 -4.5 0
      vertex 71.85000000149012 -6 0
      vertex 58.350000001490116 -6 0
    endloop
  endfacet
  facet normal 0 0 -1
    outer loop
      vertex 73.35000000149012 4.5 0
      vertex 73.35000000149012 -4.5 0
      vertex 58.350000001490116 -6 0
    endloop
  endfacet
  facet normal 0 0 -1
    outer loop
      vertex 53.350000001490116 -8 0
      vertex 73.35000000149012 4.5 0
      vertex 58.350000001490116 -6 0
    endloop
  endfacet
  facet normal 0 0 -1
    outer loop
      vertex 53.350000001490116 -8 0
      vertex 58.350000001490116 -6 0
      vertex 58.350000001490116 -8 0
    endloop
  endfacet
  facet normal 0 0 -1
    outer loop
      vertex 53.311477817595005 -8.78413712233305 0
      vertex 53.350000001490116 -8 0
      vertex 58.350000001490116 -8 0
    endloop
  endfacet
  facet normal 0 0 -1
    outer loop
      vertex 53.311477817595005 -8.78413712233305 0
      vertex 58.350000001490116 -8 0
      vertex 58.350000001490116 -10.200000002980232 0
    endloop
  endfacet
  facet normal 0 0 -1
    outer loop
      vertex 53.196282245218754 -9.560722574591637 0
      vertex 53.311477817595005 -8.78413712233305 0
      vertex 58.350000001490116 -10.200000002980232 0
    endloop
  endfacet
  facet normal 0 0 -1
    outer loop
      vertex 53.005522690713406 -10.322277419269085 0
      vertex 53.196282245218754 -9.560722574591637 0
      vertex 58.350000001490116 -10.200000002980232 0
    endloop
  endfacet
  facet normal 0 0 -1
    outer loop
      vertex 53.005522690713406 -10.322277419269085 0
      vertex 58.350000001490116 -10.200000002980232 0
      vertex 58.350000001490116 -12.200000002980232 0
    endloop
  endfacet
  facet normal 0 0 -1
    outer loop
      vertex 52.741036258637905 -11.061467461287975 0
      vertex 53.005522690713406 -10.322277419269085 0
      vertex 58.350000001490116 -12.200000002980232 0
    endloop
  endfacet
  facet normal 0 0 -1
    outer loop
      vertex 52.405370116233826 -11.771173894405365 0
      vertex 52.741036258637905 -11.061467461287975 0
      vertex 58.350000001490116 -12.200000002980232 0
    endloop
  endfacet
  facet normal 0 0 -1
    outer loop
      vertex 52.00175689905882 -12.44456186145544 0
      vertex 52.405370116233826 -11.771173894405365 0
      vertex 58.350000001490116 -12.200000002980232 0
    endloop
  endfacet
  facet normal 0 0 -1
    outer loop
      vertex 52.00175689905882 -12.44456186145544 0
      vertex 58.350000001490116 -12.200000002980232 0
      vertex 67.35000000149012 -30 0
    endloop
  endfacet
  facet normal 0 0 -1
    outer loop
      vertex 51.534083627164364 -13.075146272778511 0
      vertex 52.00175689905882 -12.44456186145544 0
      vertex 67.35000000149012 -30 0
    endloop
  endfacet
  facet normal 0 0 -1
    outer loop
      vertex 51.00685425102711 -13.656854249536991 0
      vertex 51.534083627164364 -13.075146272778511 0
      vertex 67.35000000149012 -30 0
    endloop
  endfacet
  facet normal 0 0 -1
    outer loop
      vertex 50.42514627426863 -14.184083625674248 0
      vertex 51.00685425102711 -13.656854249536991 0
      vertex 67.35000000149012 -30 0
    endloop
  endfacet
  facet normal 0 0 -1
    outer loop
      vertex 49.79456186294556 -14.651756897568703 0
      vertex 50.42514627426863 -14.184083625674248 0
      vertex 67.35000000149012 -30 0
    endloop
  endfacet
  facet normal 0 0 -1
    outer loop
      vertex 49.12117389589548 -15.05537011474371 0
      vertex 49.79456186294556 -14.651756897568703 0
      vertex 67.35000000149012 -30 0
    endloop
  endfacet
  facet normal 0 0 -1
    outer loop
      vertex 48.41146746277809 -15.391036257147789 0
      vertex 49.12117389589548 -15.05537011474371 0
      vertex 67.35000000149012 -30 0
    endloop
  endfacet
  facet normal 0 0 -1
    outer loop
      vertex 47.6722774207592 -15.65552268922329 0
      vertex 48.41146746277809 -15.391036257147789 0
      vertex 67.35000000149012 -30 0
    endloop
  endfacet
  facet normal 0 0 -1
    outer loop
      vertex 46.91072257608175 -15.846282243728638 0
      vertex 47.6722774207592 -15.65552268922329 0
      vertex 67.35000000149012 -30 0
    endloop
  endfacet
  facet normal 0 0 -1
    outer loop
      vertex -73.35000000149012 4.5 0
      vertex -71.85000000149012 6 0
      vertex -58.350000001490116 6 0
    endloop
  endfacet
  facet normal 0 0 -1
    outer loop
      vertex -73.35000000149012 -4.5 0
      vertex -73.35000000149012 4.5 0
      vertex -58.350000001490116 6 0
    endloop
  endfacet
  facet normal 0 0 -1
    outer loop
      vertex -71.85000000149012 -6 0
      vertex -73.35000000149012 -4.5 0
      vertex -58.350000001490116 6 0
    endloop
  endfacet
  facet normal 0 0 -1
    outer loop
      vertex -58.350000001490116 -6 0
      vertex -71.85000000149012 -6 0
      vertex -58.350000001490116 6 0
    endloop
  endfacet
  facet normal 0 0 -1
    outer loop
      vertex 67.35000000149012 30 0
      vertex 46.91072257608175 15.846282243728638 0
      vertex 46.134137123823166 15.961477816104889 0
    endloop
  endfacet
  facet normal 0 0 -1
    outer loop
      vertex -67.35000000149012 30 0
      vertex 67.35000000149012 30 0
      vertex 46.134137123823166 15.961477816104889 0
    endloop
  endfacet
  facet normal 0 0 -1
    outer loop
      vertex -67.35000000149012 30 0
      vertex 46.134137123823166 15.961477816104889 0
      vertex 45.350000001490116 16 0
    endloop
  endfacet
  facet normal 0 0 -1
    outer loop
      vertex -67.35000000149012 30 0
      vertex 45.350000001490116 16 0
      vertex -45.350000001490116 16 0
    endloop
  endfacet
  facet normal 0 0 -1
    outer loop
      vertex -67.35000000149012 30 0
      vertex -45.350000001490116 16 0
      vertex -46.134137123823166 15.961477816104889 0
    endloop
  endfacet
  facet normal 0 0 -1
    outer loop
      vertex -67.35000000149012 30 0
      vertex -46.134137123823166 15.961477816104889 0
      vertex -46.91072257608175 15.846282243728638 0
    endloop
  endfacet
  facet normal 0 0 -1
    outer loop
      vertex -67.35000000149012 30 0
      vertex -46.91072257608175 15.846282243728638 0
      vertex -47.6722774207592 15.65552268922329 0
    endloop
  endfacet
  facet normal 0 0 -1
    outer loop
      vertex -67.35000000149012 30 0
      vertex -47.6722774207592 15.65552268922329 0
      vertex -48.41146746277809 15.391036257147789 0
    endloop
  endfacet
  facet normal 0 0 -1
    outer loop
      vertex -67.35000000149012 30 0
      vertex -48.41146746277809 15.391036257147789 0
      vertex -49.12117389589548 15.05537011474371 0
    endloop
  endfacet
  facet normal 0 0 -1
    outer loop
      vertex -67.35000000149012 30 0
      vertex -49.12117389589548 15.05537011474371 0
      vertex -49.79456186294556 14.651756897568703 0
    endloop
  endfacet
  facet normal 0 0 -1
    outer loop
      vertex -67.35000000149012 30 0
      vertex -49.79456186294556 14.651756897568703 0
      vertex -50.42514627426863 14.184083625674248 0
    endloop
  endfacet
  facet normal 0 0 -1
    outer loop
      vertex -67.35000000149012 30 0
      vertex -50.42514627426863 14.184083625674248 0
      vertex -51.00685425102711 13.656854249536991 0
    endloop
  endfacet
  facet normal 0 0 -1
    outer loop
      vertex -67.35000000149012 30 0
      vertex -51.00685425102711 13.656854249536991 0
      vertex -51.534083627164364 13.075146272778511 0
    endloop
  endfacet
  facet normal 0 0 -1
    outer loop
      vertex -67.35000000149012 30 0
      vertex -51.534083627164364 13.075146272778511 0
      vertex -52.00175689905882 12.44456186145544 0
    endloop
  endfacet
  facet normal 0 0 -1
    outer loop
      vertex -58.350000001490116 12.200000002980232 0
      vertex -67.35000000149012 30 0
      vertex -52.00175689905882 12.44456186145544 0
    endloop
  endfacet
  facet normal 0 0 -1
    outer loop
      vertex -58.350000001490116 12.200000002980232 0
      vertex -52.00175689905882 12.44456186145544 0
      vertex -52.405370116233826 11.771173894405365 0
    endloop
  endfacet
  facet normal 0 0 -1
    outer loop
      vertex -58.350000001490116 12.200000002980232 0
      vertex -52.405370116233826 11.771173894405365 0
      vertex -52.741036258637905 11.061467461287975 0
    endloop
  endfacet
  facet normal 0 0 -1
    outer loop
      vertex -58.350000001490116 12.200000002980232 0
      vertex -52.741036258637905 11.061467461287975 0
      vertex -53.005522690713406 10.322277419269085 0
    endloop
  endfacet
  facet normal 0 0 -1
    outer loop
      vertex -58.350000001490116 10.200000002980232 0
      vertex -58.350000001490116 12.200000002980232 0
      vertex -53.005522690713406 10.322277419269085 0
    endloop
  endfacet
  facet normal 0 0 -1
    outer loop
      vertex -58.350000001490116 10.200000002980232 0
      vertex -53.005522690713406 10.322277419269085 0
      vertex -53.196282245218754 9.560722574591637 0
    endloop
  endfacet
  facet normal 0 0 -1
    outer loop
      vertex -58.350000001490116 10.200000002980232 0
      vertex -53.196282245218754 9.560722574591637 0
      vertex -53.311477817595005 8.78413712233305 0
    endloop
  endfacet
  facet normal 0 0 -1
    outer loop
      vertex -58.350000001490116 8 0
      vertex -58.350000001490116 10.200000002980232 0
      vertex -53.311477817595005 8.78413712233305 0
    endloop
  endfacet
  facet normal 0 0 -1
    outer loop
      vertex -58.350000001490116 8 0
      vertex -53.311477817595005 8.78413712233305 0
      vertex -53.350000001490116 8 0
    endloop
  endfacet
  facet normal 0 0 -1
    outer loop
      vertex -58.350000001490116 6 0
      vertex -58.350000001490116 8 0
      vertex -53.350000001490116 8 0
    endloop
  endfacet
  facet normal 0 0 -1
    outer loop
      vertex -58.350000001490116 -6 0
      vertex -58.350000001490116 6 0
      vertex -53.350000001490116 8 0
    endloop
  endfacet
  facet normal 0 0 -1
    outer loop
      vertex -58.350000001490116 -6 0
      vertex -53.350000001490116 8 0
      vertex -53.350000001490116 -8 0
    endloop
  endfacet
  facet normal 0 0 -1
    outer loop
      vertex -58.350000001490116 -8 0
      vertex -58.350000001490116 -6 0
      vertex -53.350000001490116 -8 0
    endloop
  endfacet
  facet normal 0 0 -1
    outer loop
      vertex -58.350000001490116 -8 0
      vertex -53.350000001490116 -8 0
      vertex -53.311477817595005 -8.78413712233305 0
    endloop
  endfacet
  facet normal 0 0 -1
    outer loop
      vertex -58.350000001490116 -10.200000002980232 0
      vertex -58.350000001490116 -8 0
      vertex -53.311477817595005 -8.78413712233305 0
    endloop
  endfacet
  facet normal 0 0 -1
    outer loop
      vertex -58.350000001490116 -10.200000002980232 0
      vertex -53.311477817595005 -8.78413712233305 0
      vertex -53.196282245218754 -9.560722574591637 0
    endloop
  endfacet
  facet normal 0 0 -1
    outer loop
      vertex -58.350000001490116 -10.200000002980232 0
      vertex -53.196282245218754 -9.560722574591637 0
      vertex -53.005522690713406 -10.322277419269085 0
    endloop
  endfacet
  facet normal 0 0 -1
    outer loop
      vertex -58.350000001490116 -12.200000002980232 0
      vertex -58.350000001490116 -10.200000002980232 0
      vertex -53.005522690713406 -10.322277419269085 0
    endloop
  endfacet
  facet normal 0 0 -1
    outer loop
      vertex -58.350000001490116 -12.200000002980232 0
      vertex -53.005522690713406 -10.322277419269085 0
      vertex -52.741036258637905 -11.061467461287975 0
    endloop
  endfacet
  facet normal 0 0 -1
    outer loop
      vertex -58.350000001490116 -12.200000002980232 0
      vertex -52.741036258637905 -11.061467461287975 0
      vertex -52.405370116233826 -11.771173894405365 0
    endloop
  endfacet
  facet normal 0 0 -1
    outer loop
      vertex -58.350000001490116 -12.200000002980232 0
      vertex -52.405370116233826 -11.771173894405365 0
      vertex -52.00175689905882 -12.44456186145544 0
    endloop
  endfacet
  facet normal 0 0 -1
    outer loop
      vertex -67.35000000149012 -30 0
      vertex -58.350000001490116 -12.200000002980232 0
      vertex -52.00175689905882 -12.44456186145544 0
    endloop
  endfacet
  facet normal 0 0 -1
    outer loop
      vertex -67.35000000149012 -30 0
      vertex -52.00175689905882 -12.44456186145544 0
      vertex -51.534083627164364 -13.075146272778511 0
    endloop
  endfacet
  facet normal 0 0 -1
    outer loop
      vertex -67.35000000149012 -30 0
      vertex -51.534083627164364 -13.075146272778511 0
      vertex -51.00685425102711 -13.656854249536991 0
    endloop
  endfacet
  facet normal 0 0 -1
    outer loop
      vertex -67.35000000149012 -30 0
      vertex -51.00685425102711 -13.656854249536991 0
      vertex -50.42514627426863 -14.184083625674248 0
    endloop
  endfacet
  facet normal 0 0 -1
    outer loop
      vertex -67.35000000149012 -30 0
      vertex -50.42514627426863 -14.184083625674248 0
      vertex -49.79456186294556 -14.651756897568703 0
    endloop
  endfacet
  facet normal 0 0 -1
    outer loop
      vertex -67.35000000149012 -30 0
      vertex -49.79456186294556 -14.651756897568703 0
      vertex -49.12117389589548 -15.05537011474371 0
    endloop
  endfacet
  facet normal 0 0 -1
    outer loop
      vertex -67.35000000149012 -30 0
      vertex -49.12117389589548 -15.05537011474371 0
      vertex -48.41146746277809 -15.391036257147789 0
    endloop
  endfacet
  facet normal 0 0 -1
    outer loop
      vertex -67.35000000149012 -30 0
      vertex -48.41146746277809 -15.391036257147789 0
      vertex -47.6722774207592 -15.65552268922329 0
    endloop
  endfacet
  facet normal 0 0 -1
    outer loop
      vertex -67.35000000149012 -30 0
      vertex -47.6722774207592 -15.65552268922329 0
      vertex -46.91072257608175 -15.846282243728638 0
    endloop
  endfacet
  facet normal 0 0 -1
    outer loop
      vertex 46.134137123823166 -15.961477816104889 0
      vertex 46.91072257608175 -15.846282243728638 0
      vertex 67.35000000149012 -30 0
    endloop
  endfacet
  facet normal 0 0 -1
    outer loop
      vertex 46.134137123823166 -15.961477816104889 0
      vertex 67.35000000149012 -30 0
      vertex -67.35000000149012 -30 0
    endloop
  endfacet
  facet normal 0 0 -1
    outer loop
      vertex 45.350000001490116 -16 0
      vertex 46.134137123823166 -15.961477816104889 0
      vertex -67.35000000149012 -30 0
    endloop
  endfacet
  facet normal 0 0 -1
    outer loop
      vertex -45.350000001490116 -16 0
      vertex 45.350000001490116 -16 0
      vertex -67.35000000149012 -30 0
    endloop
  endfacet
  facet normal 0 0 -1
    outer loop
      vertex -46.134137123823166 -15.961477816104889 0
      vertex -45.350000001490116 -16 0
      vertex -67.35000000149012 -30 0
    endloop
  endfacet
  facet normal 0 0 -1
    outer loop
      vertex -46.134137123823166 -15.961477816104889 0
      vertex -67.35000000149012 -30 0
      vertex -46.91072257608175 -15.846282243728638 0
    endloop
  endfacet
endsolid OpenSCAD_Model
