solid OpenSCAD_Model
  facet normal -0.7518398074789777 -0.6593458151000686 0
    outer loop
      vertex 3.1199399791262943 1.673715712973838 2
      vertex 3.378679656440357 1.3786796564403572 2
      vertex 3.1199399791262943 1.673715712973838 7
    endloop
  endfacet
  facet normal -0.6593458151000688 -0.7518398074789775 -5.612662096278312e-19
    outer loop
      vertex 3.378679656440357 1.3786796564403572 2
      vertex 3.673715712973838 1.1199399791262943 2
      vertex 3.673715712973838 1.1199399791262943 7
    endloop
  endfacet
  facet normal -0.5555702330196016 -0.8314696123025456 -8.50101687124824e-19
    outer loop
      vertex 3.673715712973838 1.1199399791262943 2
      vertex 4 0.901923788646684 2
      vertex 4 0.901923788646684 7
    endloop
  endfacet
  facet normal -0.8314696123025453 -0.5555702330196018 2.603329129117711e-18
    outer loop
      vertex 3.1199399791262943 1.673715712973838 2
      vertex 2.901923788646684 2 7
      vertex 2.901923788646684 2 2
    endloop
  endfacet
  facet normal -0.9469301294951054 -0.32143946530316264 1.6519934946664102e-18
    outer loop
      vertex 2.72836140246614 2.3519497029047307 2
      vertex 2.602222521132795 2.723542864692438 7
      vertex 2.602222521132795 2.723542864692438 2
    endloop
  endfacet
  facet normal -0.8968727415326887 -0.4422886902190006 -7.590700569098907e-19
    outer loop
      vertex 2.901923788646684 2 2
      vertex 2.72836140246614 2.3519497029047307 7
      vertex 2.72836140246614 2.3519497029047307 2
    endloop
  endfacet
  facet normal -0.9807852804032307 -0.19509032201612733 -3.4268281664528646e-19
    outer loop
      vertex 2.602222521132795 2.723542864692438 2
      vertex 2.525665415878569 3.1084214233398453 7
      vertex 2.525665415878569 3.1084214233398453 2
    endloop
  endfacet
  facet normal -0.9978589232386035 -0.06540312923014358 2.579344986167171e-19
    outer loop
      vertex 2.525665415878569 3.1084214233398453 2
      vertex 2.5 3.5 7
      vertex 2.5 3.5 2
    endloop
  endfacet
  facet normal -0.6593458151000688 -0.7518398074789775 0
    outer loop
      vertex 3.378679656440357 1.3786796564403572 2
      vertex 3.673715712973838 1.1199399791262943 7
      vertex 3.378679656440357 1.3786796564403572 7
    endloop
  endfacet
  facet normal -0.7518398074789777 -0.6593458151000686 0
    outer loop
      vertex 3.378679656440357 1.3786796564403572 2
      vertex 3.378679656440357 1.3786796564403572 7
      vertex 3.1199399791262943 1.673715712973838 7
    endloop
  endfacet
  facet normal -0.5555702330196016 -0.8314696123025456 0
    outer loop
      vertex 3.673715712973838 1.1199399791262943 2
      vertex 4 0.901923788646684 7
      vertex 3.673715712973838 1.1199399791262943 7
    endloop
  endfacet
  facet normal -0.8968727415326887 -0.4422886902190006 0
    outer loop
      vertex 2.901923788646684 2 2
      vertex 2.901923788646684 2 7
      vertex 2.72836140246614 2.3519497029047307 7
    endloop
  endfacet
  facet normal -0.9469301294951054 -0.32143946530316264 0
    outer loop
      vertex 2.72836140246614 2.3519497029047307 2
      vertex 2.72836140246614 2.3519497029047307 7
      vertex 2.602222521132795 2.723542864692438 7
    endloop
  endfacet
  facet normal -0.9807852804032307 -0.19509032201612733 0
    outer loop
      vertex 2.602222521132795 2.723542864692438 2
      vertex 2.602222521132795 2.723542864692438 7
      vertex 2.525665415878569 3.1084214233398453 7
    endloop
  endfacet
  facet normal -0.9978589232386035 -0.06540312923014358 0
    outer loop
      vertex 2.525665415878569 3.1084214233398453 2
      vertex 2.525665415878569 3.1084214233398453 7
      vertex 2.5 3.5 7
    endloop
  endfacet
  facet normal -0.8314696123025453 -0.5555702330196018 0
    outer loop
      vertex 3.1199399791262943 1.673715712973838 2
      vertex 3.1199399791262943 1.673715712973838 7
      vertex 2.901923788646684 2 7
    endloop
  endfacet
  facet normal -0.9978589232386035 0.06540312923014358 -2.579344986167171e-19
    outer loop
      vertex 2.5 3.5 2
      vertex 2.525665415878569 3.8915785766601547 7
      vertex 2.525665415878569 3.8915785766601547 2
    endloop
  endfacet
  facet normal -0.9807852804032307 0.19509032201612733 3.4268281664528646e-19
    outer loop
      vertex 2.525665415878569 3.8915785766601547 2
      vertex 2.602222521132795 4.276457135307562 7
      vertex 2.602222521132795 4.276457135307562 2
    endloop
  endfacet
  facet normal -0.9469301294951052 0.321439465303163 1.6267125184316758e-18
    outer loop
      vertex 2.602222521132795 4.276457135307562 2
      vertex 2.72836140246614 4.648050297095269 7
      vertex 2.72836140246614 4.648050297095269 2
    endloop
  endfacet
  facet normal -0.8968727415326889 0.44228869021900014 1.1409834834030116e-18
    outer loop
      vertex 2.72836140246614 4.648050297095269 2
      vertex 2.901923788646684 5 7
      vertex 2.901923788646684 5 2
    endloop
  endfacet
  facet normal -0.8314696123025456 0.5555702330196016 8.50101687124824e-19
    outer loop
      vertex 2.901923788646684 5 2
      vertex 3.1199399791262943 5.326284287026162 7
      vertex 3.1199399791262943 5.326284287026162 2
    endloop
  endfacet
  facet normal -0.7518398074789775 0.6593458151000688 5.612662096278312e-19
    outer loop
      vertex 3.1199399791262943 5.326284287026162 2
      vertex 3.378679656440357 5.621320343559643 7
      vertex 3.378679656440357 5.621320343559643 2
    endloop
  endfacet
  facet normal -0.6593458151000688 0.7518398074789775 0
    outer loop
      vertex 3.378679656440357 5.621320343559643 2
      vertex 3.378679656440357 5.621320343559643 7
      vertex 3.673715712973838 5.880060020873706 2
    endloop
  endfacet
  facet normal -0.5555702330196016 0.8314696123025456 0
    outer loop
      vertex 3.673715712973838 5.880060020873706 2
      vertex 3.673715712973838 5.880060020873706 7
      vertex 4 6.098076211353316 2
    endloop
  endfacet
  facet normal -0.9978589232386035 0.06540312923014358 0
    outer loop
      vertex 2.5 3.5 2
      vertex 2.5 3.5 7
      vertex 2.525665415878569 3.8915785766601547 7
    endloop
  endfacet
  facet normal -0.9807852804032307 0.19509032201612733 0
    outer loop
      vertex 2.525665415878569 3.8915785766601547 2
      vertex 2.525665415878569 3.8915785766601547 7
      vertex 2.602222521132795 4.276457135307562 7
    endloop
  endfacet
  facet normal -0.9469301294951052 0.321439465303163 0
    outer loop
      vertex 2.602222521132795 4.276457135307562 2
      vertex 2.602222521132795 4.276457135307562 7
      vertex 2.72836140246614 4.648050297095269 7
    endloop
  endfacet
  facet normal -0.8968727415326889 0.44228869021900014 0
    outer loop
      vertex 2.72836140246614 4.648050297095269 2
      vertex 2.72836140246614 4.648050297095269 7
      vertex 2.901923788646684 5 7
    endloop
  endfacet
  facet normal -0.8314696123025456 0.5555702330196016 0
    outer loop
      vertex 2.901923788646684 5 2
      vertex 2.901923788646684 5 7
      vertex 3.1199399791262943 5.326284287026162 7
    endloop
  endfacet
  facet normal -0.7518398074789775 0.6593458151000688 0
    outer loop
      vertex 3.1199399791262943 5.326284287026162 2
      vertex 3.1199399791262943 5.326284287026162 7
      vertex 3.378679656440357 5.621320343559643 7
    endloop
  endfacet
  facet normal -0.6593458151000688 0.7518398074789775 0
    outer loop
      vertex 3.673715712973838 5.880060020873706 2
      vertex 3.378679656440357 5.621320343559643 7
      vertex 3.673715712973838 5.880060020873706 7
    endloop
  endfacet
  facet normal -0.5555702330196016 0.8314696123025456 0
    outer loop
      vertex 4 6.098076211353316 2
      vertex 3.673715712973838 5.880060020873706 7
      vertex 4 6.098076211353316 7
    endloop
  endfacet
  facet normal -0.44228869021900014 -0.8968727415326889 0
    outer loop
      vertex 4.351949702904731 0.72836140246614 2
      vertex 4.351949702904731 0.72836140246614 7
      vertex 4 0.901923788646684 2
    endloop
  endfacet
  facet normal -0.321439465303163 -0.9469301294951052 -1.6267125184316758e-18
    outer loop
      vertex 4.351949702904731 0.72836140246614 2
      vertex 4.723542864692438 0.602222521132795 2
      vertex 4.723542864692438 0.602222521132795 7
    endloop
  endfacet
  facet normal -0.19509032201612753 -0.9807852804032305 -6.975512288934387e-19
    outer loop
      vertex 4.723542864692438 0.602222521132795 2
      vertex 5.108421423339845 0.525665415878569 2
      vertex 5.108421423339845 0.525665415878569 7
    endloop
  endfacet
  facet normal -0.0654031292301435 -0.9978589232386035 -2.463193568038614e-19
    outer loop
      vertex 5.108421423339845 0.525665415878569 2
      vertex 5.5 0.5 2
      vertex 5.5 0.5 7
    endloop
  endfacet
  facet normal 0.0654031292301435 -0.9978589232386035 2.463193568038614e-19
    outer loop
      vertex 5.5 0.5 2
      vertex 5.891578576660155 0.525665415878569 2
      vertex 5.891578576660155 0.525665415878569 7
    endloop
  endfacet
  facet normal 0.19509032201612753 -0.9807852804032305 6.975512288934387e-19
    outer loop
      vertex 5.891578576660155 0.525665415878569 2
      vertex 6.276457135307562 0.602222521132795 2
      vertex 6.276457135307562 0.602222521132795 7
    endloop
  endfacet
  facet normal 0.321439465303163 -0.9469301294951052 1.6267125184316758e-18
    outer loop
      vertex 6.276457135307562 0.602222521132795 2
      vertex 6.648050297095269 0.72836140246614 2
      vertex 6.648050297095269 0.72836140246614 7
    endloop
  endfacet
  facet normal 0.44228869021900014 -0.8968727415326889 1.1409834834030116e-18
    outer loop
      vertex 6.648050297095269 0.72836140246614 2
      vertex 7 0.901923788646684 2
      vertex 7 0.901923788646684 7
    endloop
  endfacet
  facet normal 0.5555702330196016 -0.8314696123025456 8.50101687124824e-19
    outer loop
      vertex 7 0.901923788646684 2
      vertex 7.326284287026162 1.1199399791262943 2
      vertex 7.326284287026162 1.1199399791262943 7
    endloop
  endfacet
  facet normal 0.6593458151000688 -0.7518398074789775 5.612662096278312e-19
    outer loop
      vertex 7.326284287026162 1.1199399791262943 2
      vertex 7.621320343559643 1.3786796564403572 2
      vertex 7.621320343559643 1.3786796564403572 7
    endloop
  endfacet
  facet normal 0.7518398074789777 -0.6593458151000686 0
    outer loop
      vertex 7.621320343559643 1.3786796564403572 2
      vertex 7.880060020873706 1.673715712973838 2
      vertex 7.621320343559643 1.3786796564403572 7
    endloop
  endfacet
  facet normal 0.8314696123025453 -0.5555702330196018 0
    outer loop
      vertex 7.880060020873706 1.673715712973838 2
      vertex 8.098076211353316 2 2
      vertex 7.880060020873706 1.673715712973838 7
    endloop
  endfacet
  facet normal -0.44228869021900014 -0.8968727415326889 0
    outer loop
      vertex 4 0.901923788646684 2
      vertex 4.351949702904731 0.72836140246614 7
      vertex 4 0.901923788646684 7
    endloop
  endfacet
  facet normal -0.321439465303163 -0.9469301294951052 0
    outer loop
      vertex 4.351949702904731 0.72836140246614 2
      vertex 4.723542864692438 0.602222521132795 7
      vertex 4.351949702904731 0.72836140246614 7
    endloop
  endfacet
  facet normal -0.19509032201612753 -0.9807852804032305 0
    outer loop
      vertex 4.723542864692438 0.602222521132795 2
      vertex 5.108421423339845 0.525665415878569 7
      vertex 4.723542864692438 0.602222521132795 7
    endloop
  endfacet
  facet normal -0.0654031292301435 -0.9978589232386035 0
    outer loop
      vertex 5.108421423339845 0.525665415878569 2
      vertex 5.5 0.5 7
      vertex 5.108421423339845 0.525665415878569 7
    endloop
  endfacet
  facet normal 0.0654031292301435 -0.9978589232386035 0
    outer loop
      vertex 5.5 0.5 2
      vertex 5.891578576660155 0.525665415878569 7
      vertex 5.5 0.5 7
    endloop
  endfacet
  facet normal 0.19509032201612753 -0.9807852804032305 0
    outer loop
      vertex 5.891578576660155 0.525665415878569 2
      vertex 6.276457135307562 0.602222521132795 7
      vertex 5.891578576660155 0.525665415878569 7
    endloop
  endfacet
  facet normal 0.321439465303163 -0.9469301294951052 0
    outer loop
      vertex 6.276457135307562 0.602222521132795 2
      vertex 6.648050297095269 0.72836140246614 7
      vertex 6.276457135307562 0.602222521132795 7
    endloop
  endfacet
  facet normal 0.44228869021900014 -0.8968727415326889 0
    outer loop
      vertex 6.648050297095269 0.72836140246614 2
      vertex 7 0.901923788646684 7
      vertex 6.648050297095269 0.72836140246614 7
    endloop
  endfacet
  facet normal 0.5555702330196016 -0.8314696123025456 0
    outer loop
      vertex 7 0.901923788646684 2
      vertex 7.326284287026162 1.1199399791262943 7
      vertex 7 0.901923788646684 7
    endloop
  endfacet
  facet normal 0.6593458151000688 -0.7518398074789775 0
    outer loop
      vertex 7.326284287026162 1.1199399791262943 2
      vertex 7.621320343559643 1.3786796564403572 7
      vertex 7.326284287026162 1.1199399791262943 7
    endloop
  endfacet
  facet normal 0.7518398074789777 -0.6593458151000686 0
    outer loop
      vertex 7.880060020873706 1.673715712973838 2
      vertex 7.880060020873706 1.673715712973838 7
      vertex 7.621320343559643 1.3786796564403572 7
    endloop
  endfacet
  facet normal -0.44228869021900014 0.8968727415326889 0
    outer loop
      vertex 4 6.098076211353316 2
      vertex 4 6.098076211353316 7
      vertex 4.351949702904731 6.27163859753386 2
    endloop
  endfacet
  facet normal -0.321439465303163 0.9469301294951052 0
    outer loop
      vertex 4.351949702904731 6.27163859753386 2
      vertex 4.351949702904731 6.27163859753386 7
      vertex 4.723542864692438 6.397777478867205 2
    endloop
  endfacet
  facet normal -0.19509032201612753 0.9807852804032305 0
    outer loop
      vertex 4.723542864692438 6.397777478867205 2
      vertex 4.723542864692438 6.397777478867205 7
      vertex 5.108421423339845 6.474334584121431 2
    endloop
  endfacet
  facet normal -0.0654031292301435 0.9978589232386035 0
    outer loop
      vertex 5.108421423339845 6.474334584121431 2
      vertex 5.108421423339845 6.474334584121431 7
      vertex 5.5 6.5 2
    endloop
  endfacet
  facet normal 0.0654031292301435 0.9978589232386035 0
    outer loop
      vertex 5.5 6.5 2
      vertex 5.5 6.5 7
      vertex 5.891578576660155 6.474334584121431 2
    endloop
  endfacet
  facet normal 0.19509032201612753 0.9807852804032305 0
    outer loop
      vertex 5.891578576660155 6.474334584121431 2
      vertex 5.891578576660155 6.474334584121431 7
      vertex 6.276457135307562 6.397777478867205 2
    endloop
  endfacet
  facet normal 0.321439465303163 0.9469301294951052 0
    outer loop
      vertex 6.276457135307562 6.397777478867205 2
      vertex 6.276457135307562 6.397777478867205 7
      vertex 6.648050297095269 6.27163859753386 2
    endloop
  endfacet
  facet normal 0.44228869021900014 0.8968727415326889 0
    outer loop
      vertex 6.648050297095269 6.27163859753386 2
      vertex 6.648050297095269 6.27163859753386 7
      vertex 7 6.098076211353316 2
    endloop
  endfacet
  facet normal 0.5555702330196016 0.8314696123025456 0
    outer loop
      vertex 7 6.098076211353316 2
      vertex 7 6.098076211353316 7
      vertex 7.326284287026162 5.880060020873706 2
    endloop
  endfacet
  facet normal 0.6593458151000688 0.7518398074789775 0
    outer loop
      vertex 7.326284287026162 5.880060020873706 2
      vertex 7.326284287026162 5.880060020873706 7
      vertex 7.621320343559643 5.621320343559643 2
    endloop
  endfacet
  facet normal 0.7518398074789775 0.6593458151000688 -5.612662096278312e-19
    outer loop
      vertex 7.621320343559643 5.621320343559643 2
      vertex 7.880060020873706 5.326284287026162 7
      vertex 7.880060020873706 5.326284287026162 2
    endloop
  endfacet
  facet normal -0.44228869021900014 0.8968727415326889 0
    outer loop
      vertex 4.351949702904731 6.27163859753386 2
      vertex 4 6.098076211353316 7
      vertex 4.351949702904731 6.27163859753386 7
    endloop
  endfacet
  facet normal -0.321439465303163 0.9469301294951052 0
    outer loop
      vertex 4.723542864692438 6.397777478867205 2
      vertex 4.351949702904731 6.27163859753386 7
      vertex 4.723542864692438 6.397777478867205 7
    endloop
  endfacet
  facet normal -0.19509032201612753 0.9807852804032305 0
    outer loop
      vertex 5.108421423339845 6.474334584121431 2
      vertex 4.723542864692438 6.397777478867205 7
      vertex 5.108421423339845 6.474334584121431 7
    endloop
  endfacet
  facet normal -0.0654031292301435 0.9978589232386035 0
    outer loop
      vertex 5.5 6.5 2
      vertex 5.108421423339845 6.474334584121431 7
      vertex 5.5 6.5 7
    endloop
  endfacet
  facet normal 0.0654031292301435 0.9978589232386035 0
    outer loop
      vertex 5.891578576660155 6.474334584121431 2
      vertex 5.5 6.5 7
      vertex 5.891578576660155 6.474334584121431 7
    endloop
  endfacet
  facet normal 0.8314696123025456 0.5555702330196016 0
    outer loop
      vertex 7.880060020873706 5.326284287026162 2
      vertex 7.880060020873706 5.326284287026162 7
      vertex 8.098076211353316 5 7
    endloop
  endfacet
  facet normal 0.19509032201612753 0.9807852804032305 0
    outer loop
      vertex 6.276457135307562 6.397777478867205 2
      vertex 5.891578576660155 6.474334584121431 7
      vertex 6.276457135307562 6.397777478867205 7
    endloop
  endfacet
  facet normal 0.321439465303163 0.9469301294951052 0
    outer loop
      vertex 6.648050297095269 6.27163859753386 2
      vertex 6.276457135307562 6.397777478867205 7
      vertex 6.648050297095269 6.27163859753386 7
    endloop
  endfacet
  facet normal 0.44228869021900014 0.8968727415326889 0
    outer loop
      vertex 7 6.098076211353316 2
      vertex 6.648050297095269 6.27163859753386 7
      vertex 7 6.098076211353316 7
    endloop
  endfacet
  facet normal 0.5555702330196016 0.8314696123025456 0
    outer loop
      vertex 7.326284287026162 5.880060020873706 2
      vertex 7 6.098076211353316 7
      vertex 7.326284287026162 5.880060020873706 7
    endloop
  endfacet
  facet normal 0.7518398074789775 0.6593458151000688 0
    outer loop
      vertex 7.621320343559643 5.621320343559643 2
      vertex 7.621320343559643 5.621320343559643 7
      vertex 7.880060020873706 5.326284287026162 7
    endloop
  endfacet
  facet normal 0.6593458151000688 0.7518398074789775 0
    outer loop
      vertex 7.621320343559643 5.621320343559643 2
      vertex 7.326284287026162 5.880060020873706 7
      vertex 7.621320343559643 5.621320343559643 7
    endloop
  endfacet
  facet normal 0.8968727415326887 -0.4422886902190006 0
    outer loop
      vertex 8.098076211353316 2 2
      vertex 8.27163859753386 2.3519497029047307 2
      vertex 8.098076211353316 2 7
    endloop
  endfacet
  facet normal 0.9469301294951054 -0.32143946530316264 0
    outer loop
      vertex 8.27163859753386 2.3519497029047307 2
      vertex 8.397777478867205 2.723542864692438 2
      vertex 8.27163859753386 2.3519497029047307 7
    endloop
  endfacet
  facet normal 0.9807852804032307 -0.19509032201612733 0
    outer loop
      vertex 8.397777478867205 2.723542864692438 2
      vertex 8.474334584121431 3.1084214233398453 2
      vertex 8.397777478867205 2.723542864692438 7
    endloop
  endfacet
  facet normal 0.9978589232386035 -0.06540312923014358 0
    outer loop
      vertex 8.474334584121431 3.1084214233398453 2
      vertex 8.5 3.5 2
      vertex 8.474334584121431 3.1084214233398453 7
    endloop
  endfacet
  facet normal 0.8314696123025453 -0.5555702330196018 0
    outer loop
      vertex 8.098076211353316 2 2
      vertex 8.098076211353316 2 7
      vertex 7.880060020873706 1.673715712973838 7
    endloop
  endfacet
  facet normal 0.8968727415326887 -0.4422886902190006 0
    outer loop
      vertex 8.27163859753386 2.3519497029047307 2
      vertex 8.27163859753386 2.3519497029047307 7
      vertex 8.098076211353316 2 7
    endloop
  endfacet
  facet normal 0.9469301294951054 -0.32143946530316264 0
    outer loop
      vertex 8.397777478867205 2.723542864692438 2
      vertex 8.397777478867205 2.723542864692438 7
      vertex 8.27163859753386 2.3519497029047307 7
    endloop
  endfacet
  facet normal 0.9807852804032307 -0.19509032201612733 0
    outer loop
      vertex 8.474334584121431 3.1084214233398453 2
      vertex 8.474334584121431 3.1084214233398453 7
      vertex 8.397777478867205 2.723542864692438 7
    endloop
  endfacet
  facet normal 0.9978589232386035 -0.06540312923014358 0
    outer loop
      vertex 8.5 3.5 2
      vertex 8.5 3.5 7
      vertex 8.474334584121431 3.1084214233398453 7
    endloop
  endfacet
  facet normal 0.9978589232386035 0.06540312923014358 2.579344986167171e-19
    outer loop
      vertex 8.474334584121431 3.8915785766601547 2
      vertex 8.5 3.5 7
      vertex 8.5 3.5 2
    endloop
  endfacet
  facet normal 0.9807852804032307 0.19509032201612733 0
    outer loop
      vertex 8.474334584121431 3.8915785766601547 2
      vertex 8.397777478867205 4.276457135307562 2
      vertex 8.474334584121431 3.8915785766601547 7
    endloop
  endfacet
  facet normal 0.8968727415326889 0.44228869021900014 0
    outer loop
      vertex 8.27163859753386 4.648050297095269 2
      vertex 8.098076211353316 5 2
      vertex 8.27163859753386 4.648050297095269 7
    endloop
  endfacet
  facet normal 0.9469301294951052 0.321439465303163 0
    outer loop
      vertex 8.397777478867205 4.276457135307562 2
      vertex 8.27163859753386 4.648050297095269 2
      vertex 8.397777478867205 4.276457135307562 7
    endloop
  endfacet
  facet normal 0.8314696123025456 0.5555702330196016 -8.50101687124824e-19
    outer loop
      vertex 7.880060020873706 5.326284287026162 2
      vertex 8.098076211353316 5 7
      vertex 8.098076211353316 5 2
    endloop
  endfacet
  facet normal 0.9978589232386035 0.06540312923014358 0
    outer loop
      vertex 8.474334584121431 3.8915785766601547 2
      vertex 8.474334584121431 3.8915785766601547 7
      vertex 8.5 3.5 7
    endloop
  endfacet
  facet normal 0.9807852804032307 0.19509032201612733 0
    outer loop
      vertex 8.397777478867205 4.276457135307562 2
      vertex 8.397777478867205 4.276457135307562 7
      vertex 8.474334584121431 3.8915785766601547 7
    endloop
  endfacet
  facet normal 0.9469301294951052 0.321439465303163 0
    outer loop
      vertex 8.27163859753386 4.648050297095269 2
      vertex 8.27163859753386 4.648050297095269 7
      vertex 8.397777478867205 4.276457135307562 7
    endloop
  endfacet
  facet normal 0.8968727415326889 0.44228869021900014 0
    outer loop
      vertex 8.098076211353316 5 2
      vertex 8.098076211353316 5 7
      vertex 8.27163859753386 4.648050297095269 7
    endloop
  endfacet
  facet normal 0 0 1
    outer loop
      vertex 2.901923788646684 2 7
      vertex 2.72836140246614 4.648050297095269 7
      vertex 2.72836140246614 2.3519497029047307 7
    endloop
  endfacet
  facet normal 0 0 1
    outer loop
      vertex 3.1199399791262943 1.673715712973838 7
      vertex 2.901923788646684 5 7
      vertex 2.901923788646684 2 7
    endloop
  endfacet
  facet normal 0 0 1
    outer loop
      vertex 2.602222521132795 2.723542864692438 7
      vertex 2.525665415878569 3.8915785766601547 7
      vertex 2.525665415878569 3.1084214233398453 7
    endloop
  endfacet
  facet normal 0 0 1
    outer loop
      vertex 2.72836140246614 2.3519497029047307 7
      vertex 2.602222521132795 4.276457135307562 7
      vertex 2.602222521132795 2.723542864692438 7
    endloop
  endfacet
  facet normal 0 0 1
    outer loop
      vertex 3.1199399791262943 1.673715712973838 7
      vertex 3.378679656440357 1.3786796564403572 7
      vertex 3.1199399791262943 5.326284287026162 7
    endloop
  endfacet
  facet normal 0 0 1
    outer loop
      vertex 3.378679656440357 1.3786796564403572 7
      vertex 3.673715712973838 1.1199399791262943 7
      vertex 3.378679656440357 5.621320343559643 7
    endloop
  endfacet
  facet normal 0 0 1
    outer loop
      vertex 3.673715712973838 1.1199399791262943 7
      vertex 4 0.901923788646684 7
      vertex 3.673715712973838 5.880060020873706 7
    endloop
  endfacet
  facet normal 0 0 1
    outer loop
      vertex 2.525665415878569 3.1084214233398453 7
      vertex 2.525665415878569 3.8915785766601547 7
      vertex 2.5 3.5 7
    endloop
  endfacet
  facet normal 0 0 1
    outer loop
      vertex 2.602222521132795 2.723542864692438 7
      vertex 2.602222521132795 4.276457135307562 7
      vertex 2.525665415878569 3.8915785766601547 7
    endloop
  endfacet
  facet normal 0 0 1
    outer loop
      vertex 2.72836140246614 2.3519497029047307 7
      vertex 2.72836140246614 4.648050297095269 7
      vertex 2.602222521132795 4.276457135307562 7
    endloop
  endfacet
  facet normal 0 0 1
    outer loop
      vertex 2.901923788646684 2 7
      vertex 2.901923788646684 5 7
      vertex 2.72836140246614 4.648050297095269 7
    endloop
  endfacet
  facet normal 0 0 1
    outer loop
      vertex 3.1199399791262943 1.673715712973838 7
      vertex 3.1199399791262943 5.326284287026162 7
      vertex 2.901923788646684 5 7
    endloop
  endfacet
  facet normal 0 0 1
    outer loop
      vertex 3.378679656440357 1.3786796564403572 7
      vertex 3.378679656440357 5.621320343559643 7
      vertex 3.1199399791262943 5.326284287026162 7
    endloop
  endfacet
  facet normal 0 0 1
    outer loop
      vertex 3.673715712973838 1.1199399791262943 7
      vertex 3.673715712973838 5.880060020873706 7
      vertex 3.378679656440357 5.621320343559643 7
    endloop
  endfacet
  facet normal 0 0 1
    outer loop
      vertex 3.673715712973838 5.880060020873706 7
      vertex 4 0.901923788646684 7
      vertex 4 6.098076211353316 7
    endloop
  endfacet
  facet normal 0 0 1
    outer loop
      vertex 4.723542864692438 0.602222521132795 7
      vertex 5.108421423339845 0.525665415878569 7
      vertex 4.95 2.5473720558371173 7
    endloop
  endfacet
  facet normal 0 0 1
    outer loop
      vertex 4.351949702904731 0.72836140246614 7
      vertex 4.723542864692438 0.602222521132795 7
      vertex 4.547372055837117 2.95 7
    endloop
  endfacet
  facet normal 0 0 1
    outer loop
      vertex 5.108421423339845 0.525665415878569 7
      vertex 5.5 0.5 7
      vertex 5.356421188557944 2.4094106524888086 7
    endloop
  endfacet
  facet normal 0 0 1
    outer loop
      vertex 5.5 0.5 7
      vertex 5.891578576660155 0.525665415878569 7
      vertex 5.643578811442056 2.4094106524888086 7
    endloop
  endfacet
  facet normal 0 0 1
    outer loop
      vertex 5.891578576660155 0.525665415878569 7
      vertex 6.276457135307562 0.602222521132795 7
      vertex 5.784700949612773 2.4374815910820247 7
    endloop
  endfacet
  facet normal 0 0 1
    outer loop
      vertex 4.351949702904731 0.72836140246614 7
      vertex 4 6.098076211353316 7
      vertex 4 0.901923788646684 7
    endloop
  endfacet
  facet normal 0 0 1
    outer loop
      vertex 4.351949702904731 0.72836140246614 7
      vertex 4.547372055837117 2.95 7
      vertex 4.483732514237585 3.0790482243984014 7
    endloop
  endfacet
  facet normal 0 0 1
    outer loop
      vertex 4.351949702904731 0.72836140246614 7
      vertex 4.483732514237585 3.0790482243984014 7
      vertex 4.437481591082024 3.215299050387227 7
    endloop
  endfacet
  facet normal 0 0 1
    outer loop
      vertex 4.351949702904731 0.72836140246614 7
      vertex 4.437481591082024 3.215299050387227 7
      vertex 4.409410652488809 3.356421188557943 7
    endloop
  endfacet
  facet normal 0 0 1
    outer loop
      vertex 4.351949702904731 0.72836140246614 7
      vertex 4.409410652488809 3.356421188557943 7
      vertex 4.4 3.5 7
    endloop
  endfacet
  facet normal 0 0 1
    outer loop
      vertex 4.723542864692438 0.602222521132795 7
      vertex 4.7221825406947975 2.7221825406947975 7
      vertex 4.627311325679641 2.830362428090407 7
    endloop
  endfacet
  facet normal 0 0 1
    outer loop
      vertex 4.723542864692438 0.602222521132795 7
      vertex 4.627311325679641 2.830362428090407 7
      vertex 4.547372055837117 2.95 7
    endloop
  endfacet
  facet normal 0 0 1
    outer loop
      vertex 4.723542864692438 0.602222521132795 7
      vertex 4.95 2.5473720558371173 7
      vertex 4.830362428090408 2.627311325679641 7
    endloop
  endfacet
  facet normal 0 0 1
    outer loop
      vertex 4.723542864692438 0.602222521132795 7
      vertex 4.830362428090408 2.627311325679641 7
      vertex 4.7221825406947975 2.7221825406947975 7
    endloop
  endfacet
  facet normal 0 0 1
    outer loop
      vertex 5.108421423339845 0.525665415878569 7
      vertex 5.079048224398401 2.483732514237585 7
      vertex 4.95 2.5473720558371173 7
    endloop
  endfacet
  facet normal 0 0 1
    outer loop
      vertex 5.108421423339845 0.525665415878569 7
      vertex 5.215299050387227 2.4374815910820247 7
      vertex 5.079048224398401 2.483732514237585 7
    endloop
  endfacet
  facet normal 0 0 1
    outer loop
      vertex 5.108421423339845 0.525665415878569 7
      vertex 5.356421188557944 2.4094106524888086 7
      vertex 5.215299050387227 2.4374815910820247 7
    endloop
  endfacet
  facet normal 0 0 1
    outer loop
      vertex 5.5 0.5 7
      vertex 5.5 2.4 7
      vertex 5.356421188557944 2.4094106524888086 7
    endloop
  endfacet
  facet normal 0 0 1
    outer loop
      vertex 5.5 0.5 7
      vertex 5.643578811442056 2.4094106524888086 7
      vertex 5.5 2.4 7
    endloop
  endfacet
  facet normal 0 0 1
    outer loop
      vertex 5.891578576660155 0.525665415878569 7
      vertex 5.784700949612773 2.4374815910820247 7
      vertex 5.643578811442056 2.4094106524888086 7
    endloop
  endfacet
  facet normal 0 0 1
    outer loop
      vertex 5.784700949612773 2.4374815910820247 7
      vertex 6.276457135307562 0.602222521132795 7
      vertex 5.920951775601599 2.483732514237585 7
    endloop
  endfacet
  facet normal 0 0 1
    outer loop
      vertex 6.276457135307562 0.602222521132795 7
      vertex 6.648050297095269 0.72836140246614 7
      vertex 6.169637571909592 2.627311325679641 7
    endloop
  endfacet
  facet normal 0 0 1
    outer loop
      vertex 5.920951775601599 2.483732514237585 7
      vertex 6.276457135307562 0.602222521132795 7
      vertex 6.05 2.5473720558371173 7
    endloop
  endfacet
  facet normal 0 0 1
    outer loop
      vertex 6.276457135307562 0.602222521132795 7
      vertex 6.169637571909592 2.627311325679641 7
      vertex 6.05 2.5473720558371173 7
    endloop
  endfacet
  facet normal 0 0 1
    outer loop
      vertex 6.648050297095269 0.72836140246614 7
      vertex 6.2778174593052025 2.7221825406947975 7
      vertex 6.169637571909592 2.627311325679641 7
    endloop
  endfacet
  facet normal 0 0 1
    outer loop
      vertex 6.648050297095269 0.72836140246614 7
      vertex 6.372688674320359 2.830362428090407 7
      vertex 6.2778174593052025 2.7221825406947975 7
    endloop
  endfacet
  facet normal 0 0 1
    outer loop
      vertex 6.648050297095269 0.72836140246614 7
      vertex 6.452627944162883 2.95 7
      vertex 6.372688674320359 2.830362428090407 7
    endloop
  endfacet
  facet normal 0 0 1
    outer loop
      vertex 6.648050297095269 0.72836140246614 7
      vertex 6.516267485762415 3.0790482243984014 7
      vertex 6.452627944162883 2.95 7
    endloop
  endfacet
  facet normal 0 0 1
    outer loop
      vertex 6.648050297095269 0.72836140246614 7
      vertex 6.562518408917976 3.215299050387227 7
      vertex 6.516267485762415 3.0790482243984014 7
    endloop
  endfacet
  facet normal 0 0 1
    outer loop
      vertex 6.648050297095269 0.72836140246614 7
      vertex 6.590589347511191 3.356421188557943 7
      vertex 6.562518408917976 3.215299050387227 7
    endloop
  endfacet
  facet normal 0 0 1
    outer loop
      vertex 6.648050297095269 0.72836140246614 7
      vertex 6.6 3.5 7
      vertex 6.590589347511191 3.356421188557943 7
    endloop
  endfacet
  facet normal 0 0 1
    outer loop
      vertex 6.648050297095269 0.72836140246614 7
      vertex 7 0.901923788646684 7
      vertex 6.648050297095269 6.27163859753386 7
    endloop
  endfacet
  facet normal 0 0 1
    outer loop
      vertex 7 0.901923788646684 7
      vertex 7.326284287026162 1.1199399791262943 7
      vertex 7 6.098076211353316 7
    endloop
  endfacet
  facet normal 0 0 1
    outer loop
      vertex 7.326284287026162 1.1199399791262943 7
      vertex 7.621320343559643 1.3786796564403572 7
      vertex 7.326284287026162 5.880060020873706 7
    endloop
  endfacet
  facet normal 0 0 1
    outer loop
      vertex 7.621320343559643 1.3786796564403572 7
      vertex 7.880060020873706 1.673715712973838 7
      vertex 7.621320343559643 5.621320343559643 7
    endloop
  endfacet
  facet normal 0 0 1
    outer loop
      vertex 7.880060020873706 1.673715712973838 7
      vertex 8.098076211353316 2 7
      vertex 7.880060020873706 5.326284287026162 7
    endloop
  endfacet
  facet normal 0 0 1
    outer loop
      vertex 4.351949702904731 0.72836140246614 7
      vertex 4.4 3.5 7
      vertex 4.351949702904731 6.27163859753386 7
    endloop
  endfacet
  facet normal 0 0 1
    outer loop
      vertex 4.351949702904731 0.72836140246614 7
      vertex 4.351949702904731 6.27163859753386 7
      vertex 4 6.098076211353316 7
    endloop
  endfacet
  facet normal 0 0 1
    outer loop
      vertex 4.4 3.5 7
      vertex 4.409410652488809 3.643578811442057 7
      vertex 4.351949702904731 6.27163859753386 7
    endloop
  endfacet
  facet normal 0 0 1
    outer loop
      vertex 4.409410652488809 3.643578811442057 7
      vertex 4.437481591082024 3.784700949612773 7
      vertex 4.351949702904731 6.27163859753386 7
    endloop
  endfacet
  facet normal 0 0 1
    outer loop
      vertex 4.437481591082024 3.784700949612773 7
      vertex 4.483732514237585 3.9209517756015986 7
      vertex 4.351949702904731 6.27163859753386 7
    endloop
  endfacet
  facet normal 0 0 1
    outer loop
      vertex 4.483732514237585 3.9209517756015986 7
      vertex 4.547372055837117 4.05 7
      vertex 4.351949702904731 6.27163859753386 7
    endloop
  endfacet
  facet normal 0 0 1
    outer loop
      vertex 4.547372055837117 4.05 7
      vertex 4.627311325679641 4.169637571909592 7
      vertex 4.351949702904731 6.27163859753386 7
    endloop
  endfacet
  facet normal 0 0 1
    outer loop
      vertex 4.627311325679641 4.169637571909592 7
      vertex 4.7221825406947975 4.2778174593052025 7
      vertex 4.351949702904731 6.27163859753386 7
    endloop
  endfacet
  facet normal 0 0 1
    outer loop
      vertex 4.7221825406947975 4.2778174593052025 7
      vertex 4.830362428090408 4.372688674320359 7
      vertex 4.351949702904731 6.27163859753386 7
    endloop
  endfacet
  facet normal 0 0 1
    outer loop
      vertex 4.830362428090408 4.372688674320359 7
      vertex 4.95 4.452627944162883 7
      vertex 4.723542864692438 6.397777478867205 7
    endloop
  endfacet
  facet normal 0 0 1
    outer loop
      vertex 4.95 4.452627944162883 7
      vertex 5.079048224398401 4.516267485762415 7
      vertex 4.723542864692438 6.397777478867205 7
    endloop
  endfacet
  facet normal 0 0 1
    outer loop
      vertex 5.079048224398401 4.516267485762415 7
      vertex 5.215299050387227 4.562518408917976 7
      vertex 4.723542864692438 6.397777478867205 7
    endloop
  endfacet
  facet normal 0 0 1
    outer loop
      vertex 5.215299050387227 4.562518408917976 7
      vertex 5.356421188557944 4.590589347511191 7
      vertex 5.108421423339845 6.474334584121431 7
    endloop
  endfacet
  facet normal 0 0 1
    outer loop
      vertex 5.356421188557944 4.590589347511191 7
      vertex 5.5 4.6 7
      vertex 5.5 6.5 7
    endloop
  endfacet
  facet normal 0 0 1
    outer loop
      vertex 5.643578811442056 4.590589347511191 7
      vertex 5.5 6.5 7
      vertex 5.5 4.6 7
    endloop
  endfacet
  facet normal 0 0 1
    outer loop
      vertex 5.643578811442056 4.590589347511191 7
      vertex 5.784700949612773 4.562518408917976 7
      vertex 5.891578576660155 6.474334584121431 7
    endloop
  endfacet
  facet normal 0 0 1
    outer loop
      vertex 5.784700949612773 4.562518408917976 7
      vertex 5.920951775601599 4.516267485762415 7
      vertex 5.891578576660155 6.474334584121431 7
    endloop
  endfacet
  facet normal 0 0 1
    outer loop
      vertex 5.920951775601599 4.516267485762415 7
      vertex 6.05 4.452627944162883 7
      vertex 5.891578576660155 6.474334584121431 7
    endloop
  endfacet
  facet normal 0 0 1
    outer loop
      vertex 4.830362428090408 4.372688674320359 7
      vertex 4.723542864692438 6.397777478867205 7
      vertex 4.351949702904731 6.27163859753386 7
    endloop
  endfacet
  facet normal 0 0 1
    outer loop
      vertex 5.215299050387227 4.562518408917976 7
      vertex 5.108421423339845 6.474334584121431 7
      vertex 4.723542864692438 6.397777478867205 7
    endloop
  endfacet
  facet normal 0 0 1
    outer loop
      vertex 5.356421188557944 4.590589347511191 7
      vertex 5.5 6.5 7
      vertex 5.108421423339845 6.474334584121431 7
    endloop
  endfacet
  facet normal 0 0 1
    outer loop
      vertex 5.643578811442056 4.590589347511191 7
      vertex 5.891578576660155 6.474334584121431 7
      vertex 5.5 6.5 7
    endloop
  endfacet
  facet normal 0 0 1
    outer loop
      vertex 6.648050297095269 0.72836140246614 7
      vertex 6.648050297095269 6.27163859753386 7
      vertex 6.6 3.5 7
    endloop
  endfacet
  facet normal 0 0 1
    outer loop
      vertex 6.169637571909592 4.372688674320359 7
      vertex 6.2778174593052025 4.2778174593052025 7
      vertex 6.276457135307562 6.397777478867205 7
    endloop
  endfacet
  facet normal 0 0 1
    outer loop
      vertex 6.169637571909592 4.372688674320359 7
      vertex 6.276457135307562 6.397777478867205 7
      vertex 6.05 4.452627944162883 7
    endloop
  endfacet
  facet normal 0 0 1
    outer loop
      vertex 6.452627944162883 4.05 7
      vertex 6.276457135307562 6.397777478867205 7
      vertex 6.372688674320359 4.169637571909592 7
    endloop
  endfacet
  facet normal 0 0 1
    outer loop
      vertex 6.372688674320359 4.169637571909592 7
      vertex 6.276457135307562 6.397777478867205 7
      vertex 6.2778174593052025 4.2778174593052025 7
    endloop
  endfacet
  facet normal 0 0 1
    outer loop
      vertex 6.6 3.5 7
      vertex 6.648050297095269 6.27163859753386 7
      vertex 6.590589347511191 3.643578811442057 7
    endloop
  endfacet
  facet normal 0 0 1
    outer loop
      vertex 6.590589347511191 3.643578811442057 7
      vertex 6.648050297095269 6.27163859753386 7
      vertex 6.562518408917976 3.784700949612773 7
    endloop
  endfacet
  facet normal 0 0 1
    outer loop
      vertex 6.562518408917976 3.784700949612773 7
      vertex 6.648050297095269 6.27163859753386 7
      vertex 6.516267485762415 3.9209517756015986 7
    endloop
  endfacet
  facet normal 0 0 1
    outer loop
      vertex 6.452627944162883 4.05 7
      vertex 6.516267485762415 3.9209517756015986 7
      vertex 6.648050297095269 6.27163859753386 7
    endloop
  endfacet
  facet normal 0 0 1
    outer loop
      vertex 7 0.901923788646684 7
      vertex 7 6.098076211353316 7
      vertex 6.648050297095269 6.27163859753386 7
    endloop
  endfacet
  facet normal 0 0 1
    outer loop
      vertex 7.326284287026162 1.1199399791262943 7
      vertex 7.326284287026162 5.880060020873706 7
      vertex 7 6.098076211353316 7
    endloop
  endfacet
  facet normal 0 0 1
    outer loop
      vertex 7.621320343559643 1.3786796564403572 7
      vertex 7.621320343559643 5.621320343559643 7
      vertex 7.326284287026162 5.880060020873706 7
    endloop
  endfacet
  facet normal 0 0 1
    outer loop
      vertex 7.880060020873706 1.673715712973838 7
      vertex 7.880060020873706 5.326284287026162 7
      vertex 7.621320343559643 5.621320343559643 7
    endloop
  endfacet
  facet normal 0 0 1
    outer loop
      vertex 6.452627944162883 4.05 7
      vertex 6.648050297095269 6.27163859753386 7
      vertex 6.276457135307562 6.397777478867205 7
    endloop
  endfacet
  facet normal 0 0 1
    outer loop
      vertex 5.891578576660155 6.474334584121431 7
      vertex 6.05 4.452627944162883 7
      vertex 6.276457135307562 6.397777478867205 7
    endloop
  endfacet
  facet normal 0 0 1
    outer loop
      vertex 8.098076211353316 2 7
      vertex 8.27163859753386 2.3519497029047307 7
      vertex 8.098076211353316 5 7
    endloop
  endfacet
  facet normal 0 0 1
    outer loop
      vertex 8.27163859753386 2.3519497029047307 7
      vertex 8.397777478867205 2.723542864692438 7
      vertex 8.27163859753386 4.648050297095269 7
    endloop
  endfacet
  facet normal 0 0 1
    outer loop
      vertex 8.397777478867205 2.723542864692438 7
      vertex 8.474334584121431 3.1084214233398453 7
      vertex 8.397777478867205 4.276457135307562 7
    endloop
  endfacet
  facet normal 0 0 1
    outer loop
      vertex 8.474334584121431 3.1084214233398453 7
      vertex 8.5 3.5 7
      vertex 8.474334584121431 3.8915785766601547 7
    endloop
  endfacet
  facet normal 0 0 1
    outer loop
      vertex 8.397777478867205 2.723542864692438 7
      vertex 8.397777478867205 4.276457135307562 7
      vertex 8.27163859753386 4.648050297095269 7
    endloop
  endfacet
  facet normal 0 0 1
    outer loop
      vertex 8.474334584121431 3.1084214233398453 7
      vertex 8.474334584121431 3.8915785766601547 7
      vertex 8.397777478867205 4.276457135307562 7
    endloop
  endfacet
  facet normal 0 0 1
    outer loop
      vertex 7.880060020873706 5.326284287026162 7
      vertex 8.098076211353316 2 7
      vertex 8.098076211353316 5 7
    endloop
  endfacet
  facet normal 0 0 1
    outer loop
      vertex 8.27163859753386 2.3519497029047307 7
      vertex 8.27163859753386 4.648050297095269 7
      vertex 8.098076211353316 5 7
    endloop
  endfacet
  facet normal 0.5555702330196028 0.8314696123025449 -8.74222560593086e-19
    outer loop
      vertex 4.95 2.5473720558371173 2
      vertex 4.830362428090408 2.627311325679641 2
      vertex 4.830362428090408 2.627311325679641 7
    endloop
  endfacet
  facet normal 0.44228869021899925 0.8968727415326894 0
    outer loop
      vertex 4.95 2.5473720558371173 2
      vertex 4.95 2.5473720558371173 7
      vertex 5.079048224398401 2.483732514237585 2
    endloop
  endfacet
  facet normal 0.9469301294951037 0.32143946530316736 4.925999381642165e-19
    outer loop
      vertex 4.483732514237585 3.0790482243984014 2
      vertex 4.437481591082024 3.215299050387227 2
      vertex 4.437481591082024 3.215299050387227 7
    endloop
  endfacet
  facet normal 0.980785280403232 0.19509032201612078 4.152391637638558e-19
    outer loop
      vertex 4.437481591082024 3.215299050387227 2
      vertex 4.409410652488809 3.356421188557943 2
      vertex 4.409410652488809 3.356421188557943 7
    endloop
  endfacet
  facet normal 0.9978589232386035 0.06540312923014392 -6.136480304763045e-20
    outer loop
      vertex 4.409410652488809 3.356421188557943 2
      vertex 4.4 3.5 2
      vertex 4.4 3.5 7
    endloop
  endfacet
  facet normal 0.7518398074789783 0.6593458151000681 1.0096907165768779e-18
    outer loop
      vertex 4.7221825406947975 2.7221825406947975 2
      vertex 4.627311325679641 2.830362428090407 2
      vertex 4.627311325679641 2.830362428090407 7
    endloop
  endfacet
  facet normal 0.8314696123025458 0.5555702330196014 4.17105442837474e-19
    outer loop
      vertex 4.627311325679641 2.830362428090407 2
      vertex 4.547372055837117 2.95 2
      vertex 4.547372055837117 2.95 7
    endloop
  endfacet
  facet normal 0.8968727415326894 0.44228869021899925 0
    outer loop
      vertex 4.483732514237585 3.0790482243984014 2
      vertex 4.483732514237585 3.0790482243984014 7
      vertex 4.547372055837117 2.95 2
    endloop
  endfacet
  facet normal 0.6593458151000665 0.7518398074789796 0
    outer loop
      vertex 4.7221825406947975 2.7221825406947975 2
      vertex 4.7221825406947975 2.7221825406947975 7
      vertex 4.830362428090408 2.627311325679641 2
    endloop
  endfacet
  facet normal 0.32143946530316553 0.9469301294951042 0
    outer loop
      vertex 5.079048224398401 2.483732514237585 2
      vertex 5.079048224398401 2.483732514237585 7
      vertex 5.215299050387227 2.4374815910820247 2
    endloop
  endfacet
  facet normal 0.19509032201612556 0.9807852804032311 0
    outer loop
      vertex 5.215299050387227 2.4374815910820247 2
      vertex 5.215299050387227 2.4374815910820247 7
      vertex 5.356421188557944 2.4094106524888086 2
    endloop
  endfacet
  facet normal 0.06540312923014413 0.9978589232386035 0
    outer loop
      vertex 5.356421188557944 2.4094106524888086 2
      vertex 5.356421188557944 2.4094106524888086 7
      vertex 5.5 2.4 2
    endloop
  endfacet
  facet normal -0.06540312923014413 0.9978589232386035 0
    outer loop
      vertex 5.5 2.4 2
      vertex 5.5 2.4 7
      vertex 5.643578811442056 2.4094106524888086 2
    endloop
  endfacet
  facet normal -0.19509032201612556 0.9807852804032311 0
    outer loop
      vertex 5.643578811442056 2.4094106524888086 2
      vertex 5.643578811442056 2.4094106524888086 7
      vertex 5.784700949612773 2.4374815910820247 2
    endloop
  endfacet
  facet normal -0.32143946530316553 0.9469301294951042 0
    outer loop
      vertex 5.784700949612773 2.4374815910820247 2
      vertex 5.784700949612773 2.4374815910820247 7
      vertex 5.920951775601599 2.483732514237585 2
    endloop
  endfacet
  facet normal -0.44228869021899925 0.8968727415326894 0
    outer loop
      vertex 5.920951775601599 2.483732514237585 2
      vertex 5.920951775601599 2.483732514237585 7
      vertex 6.05 2.5473720558371173 2
    endloop
  endfacet
  facet normal -0.5555702330196028 0.8314696123025449 0
    outer loop
      vertex 6.05 2.5473720558371173 2
      vertex 6.05 2.5473720558371173 7
      vertex 6.169637571909592 2.627311325679641 2
    endloop
  endfacet
  facet normal -0.6593458151000665 0.7518398074789796 0
    outer loop
      vertex 6.169637571909592 2.627311325679641 2
      vertex 6.169637571909592 2.627311325679641 7
      vertex 6.2778174593052025 2.7221825406947975 2
    endloop
  endfacet
  facet normal -0.7518398074789783 0.6593458151000681 0
    outer loop
      vertex 6.2778174593052025 2.7221825406947975 2
      vertex 6.2778174593052025 2.7221825406947975 7
      vertex 6.372688674320359 2.830362428090407 2
    endloop
  endfacet
  facet normal -0.8314696123025458 0.5555702330196014 0
    outer loop
      vertex 6.372688674320359 2.830362428090407 2
      vertex 6.372688674320359 2.830362428090407 7
      vertex 6.452627944162883 2.95 2
    endloop
  endfacet
  facet normal -0.8968727415326894 0.44228869021899925 0
    outer loop
      vertex 6.452627944162883 2.95 2
      vertex 6.452627944162883 2.95 7
      vertex 6.516267485762415 3.0790482243984014 2
    endloop
  endfacet
  facet normal -0.9469301294951037 0.32143946530316736 0
    outer loop
      vertex 6.516267485762415 3.0790482243984014 2
      vertex 6.516267485762415 3.0790482243984014 7
      vertex 6.562518408917976 3.215299050387227 2
    endloop
  endfacet
  facet normal -0.980785280403232 0.19509032201612078 0
    outer loop
      vertex 6.562518408917976 3.215299050387227 2
      vertex 6.562518408917976 3.215299050387227 7
      vertex 6.590589347511191 3.356421188557943 2
    endloop
  endfacet
  facet normal -0.9978589232386035 0.06540312923014392 0
    outer loop
      vertex 6.590589347511191 3.356421188557943 2
      vertex 6.590589347511191 3.356421188557943 7
      vertex 6.6 3.5 2
    endloop
  endfacet
  facet normal 0.5555702330196028 0.8314696123025449 0
    outer loop
      vertex 4.95 2.5473720558371173 2
      vertex 4.830362428090408 2.627311325679641 7
      vertex 4.95 2.5473720558371173 7
    endloop
  endfacet
  facet normal 0.9469301294951037 0.32143946530316736 0
    outer loop
      vertex 4.483732514237585 3.0790482243984014 2
      vertex 4.437481591082024 3.215299050387227 7
      vertex 4.483732514237585 3.0790482243984014 7
    endloop
  endfacet
  facet normal 0.980785280403232 0.19509032201612078 0
    outer loop
      vertex 4.437481591082024 3.215299050387227 2
      vertex 4.409410652488809 3.356421188557943 7
      vertex 4.437481591082024 3.215299050387227 7
    endloop
  endfacet
  facet normal 0.9978589232386035 0.06540312923014392 0
    outer loop
      vertex 4.409410652488809 3.356421188557943 2
      vertex 4.4 3.5 7
      vertex 4.409410652488809 3.356421188557943 7
    endloop
  endfacet
  facet normal 0.7518398074789783 0.6593458151000681 0
    outer loop
      vertex 4.7221825406947975 2.7221825406947975 2
      vertex 4.627311325679641 2.830362428090407 7
      vertex 4.7221825406947975 2.7221825406947975 7
    endloop
  endfacet
  facet normal 0.8314696123025458 0.5555702330196014 0
    outer loop
      vertex 4.627311325679641 2.830362428090407 2
      vertex 4.547372055837117 2.95 7
      vertex 4.627311325679641 2.830362428090407 7
    endloop
  endfacet
  facet normal 0.8968727415326894 0.44228869021899925 0
    outer loop
      vertex 4.547372055837117 2.95 2
      vertex 4.483732514237585 3.0790482243984014 7
      vertex 4.547372055837117 2.95 7
    endloop
  endfacet
  facet normal 0.6593458151000665 0.7518398074789796 0
    outer loop
      vertex 4.830362428090408 2.627311325679641 2
      vertex 4.7221825406947975 2.7221825406947975 7
      vertex 4.830362428090408 2.627311325679641 7
    endloop
  endfacet
  facet normal 0.44228869021899925 0.8968727415326894 0
    outer loop
      vertex 5.079048224398401 2.483732514237585 2
      vertex 4.95 2.5473720558371173 7
      vertex 5.079048224398401 2.483732514237585 7
    endloop
  endfacet
  facet normal 0.32143946530316553 0.9469301294951042 0
    outer loop
      vertex 5.215299050387227 2.4374815910820247 2
      vertex 5.079048224398401 2.483732514237585 7
      vertex 5.215299050387227 2.4374815910820247 7
    endloop
  endfacet
  facet normal 0.06540312923014413 0.9978589232386035 0
    outer loop
      vertex 5.5 2.4 2
      vertex 5.356421188557944 2.4094106524888086 7
      vertex 5.5 2.4 7
    endloop
  endfacet
  facet normal 0.19509032201612556 0.9807852804032311 0
    outer loop
      vertex 5.356421188557944 2.4094106524888086 2
      vertex 5.215299050387227 2.4374815910820247 7
      vertex 5.356421188557944 2.4094106524888086 7
    endloop
  endfacet
  facet normal -0.06540312923014413 0.9978589232386035 0
    outer loop
      vertex 5.643578811442056 2.4094106524888086 2
      vertex 5.5 2.4 7
      vertex 5.643578811442056 2.4094106524888086 7
    endloop
  endfacet
  facet normal -0.19509032201612556 0.9807852804032311 0
    outer loop
      vertex 5.784700949612773 2.4374815910820247 2
      vertex 5.643578811442056 2.4094106524888086 7
      vertex 5.784700949612773 2.4374815910820247 7
    endloop
  endfacet
  facet normal -0.32143946530316553 0.9469301294951042 0
    outer loop
      vertex 5.920951775601599 2.483732514237585 2
      vertex 5.784700949612773 2.4374815910820247 7
      vertex 5.920951775601599 2.483732514237585 7
    endloop
  endfacet
  facet normal -0.44228869021899925 0.8968727415326894 0
    outer loop
      vertex 6.05 2.5473720558371173 2
      vertex 5.920951775601599 2.483732514237585 7
      vertex 6.05 2.5473720558371173 7
    endloop
  endfacet
  facet normal -0.5555702330196028 0.8314696123025449 0
    outer loop
      vertex 6.169637571909592 2.627311325679641 2
      vertex 6.05 2.5473720558371173 7
      vertex 6.169637571909592 2.627311325679641 7
    endloop
  endfacet
  facet normal -0.6593458151000665 0.7518398074789796 0
    outer loop
      vertex 6.2778174593052025 2.7221825406947975 2
      vertex 6.169637571909592 2.627311325679641 7
      vertex 6.2778174593052025 2.7221825406947975 7
    endloop
  endfacet
  facet normal -0.7518398074789783 0.6593458151000681 0
    outer loop
      vertex 6.372688674320359 2.830362428090407 2
      vertex 6.2778174593052025 2.7221825406947975 7
      vertex 6.372688674320359 2.830362428090407 7
    endloop
  endfacet
  facet normal -0.8314696123025458 0.5555702330196014 0
    outer loop
      vertex 6.452627944162883 2.95 2
      vertex 6.372688674320359 2.830362428090407 7
      vertex 6.452627944162883 2.95 7
    endloop
  endfacet
  facet normal -0.8968727415326894 0.44228869021899925 0
    outer loop
      vertex 6.516267485762415 3.0790482243984014 2
      vertex 6.452627944162883 2.95 7
      vertex 6.516267485762415 3.0790482243984014 7
    endloop
  endfacet
  facet normal -0.9469301294951037 0.32143946530316736 0
    outer loop
      vertex 6.562518408917976 3.215299050387227 2
      vertex 6.516267485762415 3.0790482243984014 7
      vertex 6.562518408917976 3.215299050387227 7
    endloop
  endfacet
  facet normal -0.980785280403232 0.19509032201612078 0
    outer loop
      vertex 6.590589347511191 3.356421188557943 2
      vertex 6.562518408917976 3.215299050387227 7
      vertex 6.590589347511191 3.356421188557943 7
    endloop
  endfacet
  facet normal -0.9978589232386035 0.06540312923014392 0
    outer loop
      vertex 6.6 3.5 2
      vertex 6.590589347511191 3.356421188557943 7
      vertex 6.6 3.5 7
    endloop
  endfacet
  facet normal 0.9978589232386035 -0.06540312923014392 6.136480304763045e-20
    outer loop
      vertex 4.4 3.5 2
      vertex 4.409410652488809 3.643578811442057 2
      vertex 4.409410652488809 3.643578811442057 7
    endloop
  endfacet
  facet normal 0.980785280403232 -0.19509032201612078 -4.152391637638558e-19
    outer loop
      vertex 4.409410652488809 3.643578811442057 2
      vertex 4.437481591082024 3.784700949612773 2
      vertex 4.437481591082024 3.784700949612773 7
    endloop
  endfacet
  facet normal 0.9469301294951037 -0.32143946530316736 -4.925999381642165e-19
    outer loop
      vertex 4.437481591082024 3.784700949612773 2
      vertex 4.483732514237585 3.9209517756015986 2
      vertex 4.483732514237585 3.9209517756015986 7
    endloop
  endfacet
  facet normal 0.8968727415326894 -0.44228869021899925 3.2602121818398097e-19
    outer loop
      vertex 4.483732514237585 3.9209517756015986 2
      vertex 4.547372055837117 4.05 2
      vertex 4.547372055837117 4.05 7
    endloop
  endfacet
  facet normal 0.8314696123025449 -0.5555702330196028 8.74222560593086e-19
    outer loop
      vertex 4.547372055837117 4.05 2
      vertex 4.627311325679641 4.169637571909592 2
      vertex 4.627311325679641 4.169637571909592 7
    endloop
  endfacet
  facet normal 0.7518398074789796 -0.6593458151000665 -3.175922080112517e-19
    outer loop
      vertex 4.627311325679641 4.169637571909592 2
      vertex 4.7221825406947975 4.2778174593052025 2
      vertex 4.7221825406947975 4.2778174593052025 7
    endloop
  endfacet
  facet normal 0.6593458151000665 -0.7518398074789796 -3.175922080112517e-19
    outer loop
      vertex 4.7221825406947975 4.2778174593052025 2
      vertex 4.830362428090408 4.372688674320359 2
      vertex 4.830362428090408 4.372688674320359 7
    endloop
  endfacet
  facet normal 0.5555702330196028 -0.8314696123025449 8.74222560593086e-19
    outer loop
      vertex 4.830362428090408 4.372688674320359 2
      vertex 4.95 4.452627944162883 2
      vertex 4.95 4.452627944162883 7
    endloop
  endfacet
  facet normal 0.44228869021899925 -0.8968727415326894 3.2602121818398097e-19
    outer loop
      vertex 4.95 4.452627944162883 2
      vertex 5.079048224398401 4.516267485762415 2
      vertex 5.079048224398401 4.516267485762415 7
    endloop
  endfacet
  facet normal 0.3214394653031683 -0.9469301294951034 -1.0737262009563542e-19
    outer loop
      vertex 5.079048224398401 4.516267485762415 2
      vertex 5.215299050387227 4.562518408917976 2
      vertex 5.215299050387227 4.562518408917976 7
    endloop
  endfacet
  facet normal 0.1950903220161196 -0.9807852804032321 4.825121756436344e-19
    outer loop
      vertex 5.215299050387227 4.562518408917976 2
      vertex 5.356421188557944 4.590589347511191 2
      vertex 5.356421188557944 4.590589347511191 7
    endloop
  endfacet
  facet normal 0.06540312923014413 -0.9978589232386035 -2.092340934791272e-20
    outer loop
      vertex 5.356421188557944 4.590589347511191 2
      vertex 5.5 4.6 2
      vertex 5.5 4.6 7
    endloop
  endfacet
  facet normal -0.06540312923014413 -0.9978589232386035 0
    outer loop
      vertex 5.643578811442056 4.590589347511191 2
      vertex 5.643578811442056 4.590589347511191 7
      vertex 5.5 4.6 2
    endloop
  endfacet
  facet normal -0.1950903220161196 -0.9807852804032321 -4.825121756436344e-19
    outer loop
      vertex 5.643578811442056 4.590589347511191 2
      vertex 5.784700949612773 4.562518408917976 2
      vertex 5.784700949612773 4.562518408917976 7
    endloop
  endfacet
  facet normal -0.3214394653031683 -0.9469301294951034 1.0737262009563542e-19
    outer loop
      vertex 5.784700949612773 4.562518408917976 2
      vertex 5.920951775601599 4.516267485762415 2
      vertex 5.920951775601599 4.516267485762415 7
    endloop
  endfacet
  facet normal -0.6593458151000665 -0.7518398074789796 3.175922080112517e-19
    outer loop
      vertex 6.169637571909592 4.372688674320359 2
      vertex 6.2778174593052025 4.2778174593052025 2
      vertex 6.2778174593052025 4.2778174593052025 7
    endloop
  endfacet
  facet normal -0.8968727415326894 -0.44228869021899925 -3.2602121818398097e-19
    outer loop
      vertex 6.452627944162883 4.05 2
      vertex 6.516267485762415 3.9209517756015986 2
      vertex 6.516267485762415 3.9209517756015986 7
    endloop
  endfacet
  facet normal -0.8314696123025449 -0.5555702330196028 0
    outer loop
      vertex 6.452627944162883 4.05 2
      vertex 6.452627944162883 4.05 7
      vertex 6.372688674320359 4.169637571909592 2
    endloop
  endfacet
  facet normal -0.7518398074789796 -0.6593458151000665 0
    outer loop
      vertex 6.372688674320359 4.169637571909592 2
      vertex 6.372688674320359 4.169637571909592 7
      vertex 6.2778174593052025 4.2778174593052025 2
    endloop
  endfacet
  facet normal -0.9978589232386035 -0.06540312923014392 0
    outer loop
      vertex 6.6 3.5 2
      vertex 6.6 3.5 7
      vertex 6.590589347511191 3.643578811442057 2
    endloop
  endfacet
  facet normal -0.980785280403232 -0.19509032201612078 0
    outer loop
      vertex 6.590589347511191 3.643578811442057 2
      vertex 6.590589347511191 3.643578811442057 7
      vertex 6.562518408917976 3.784700949612773 2
    endloop
  endfacet
  facet normal -0.9469301294951037 -0.32143946530316736 0
    outer loop
      vertex 6.562518408917976 3.784700949612773 2
      vertex 6.562518408917976 3.784700949612773 7
      vertex 6.516267485762415 3.9209517756015986 2
    endloop
  endfacet
  facet normal -0.44228869021899925 -0.8968727415326894 -3.2602121818398097e-19
    outer loop
      vertex 5.920951775601599 4.516267485762415 2
      vertex 6.05 4.452627944162883 2
      vertex 6.05 4.452627944162883 7
    endloop
  endfacet
  facet normal -0.5555702330196028 -0.8314696123025449 0
    outer loop
      vertex 6.169637571909592 4.372688674320359 2
      vertex 6.169637571909592 4.372688674320359 7
      vertex 6.05 4.452627944162883 2
    endloop
  endfacet
  facet normal 0.9978589232386035 -0.06540312923014392 0
    outer loop
      vertex 4.4 3.5 2
      vertex 4.409410652488809 3.643578811442057 7
      vertex 4.4 3.5 7
    endloop
  endfacet
  facet normal 0.980785280403232 -0.19509032201612078 0
    outer loop
      vertex 4.409410652488809 3.643578811442057 2
      vertex 4.437481591082024 3.784700949612773 7
      vertex 4.409410652488809 3.643578811442057 7
    endloop
  endfacet
  facet normal 0.9469301294951037 -0.32143946530316736 0
    outer loop
      vertex 4.437481591082024 3.784700949612773 2
      vertex 4.483732514237585 3.9209517756015986 7
      vertex 4.437481591082024 3.784700949612773 7
    endloop
  endfacet
  facet normal 0.8968727415326894 -0.44228869021899925 0
    outer loop
      vertex 4.483732514237585 3.9209517756015986 2
      vertex 4.547372055837117 4.05 7
      vertex 4.483732514237585 3.9209517756015986 7
    endloop
  endfacet
  facet normal 0.8314696123025449 -0.5555702330196028 0
    outer loop
      vertex 4.547372055837117 4.05 2
      vertex 4.627311325679641 4.169637571909592 7
      vertex 4.547372055837117 4.05 7
    endloop
  endfacet
  facet normal 0.7518398074789796 -0.6593458151000665 0
    outer loop
      vertex 4.627311325679641 4.169637571909592 2
      vertex 4.7221825406947975 4.2778174593052025 7
      vertex 4.627311325679641 4.169637571909592 7
    endloop
  endfacet
  facet normal 0.6593458151000665 -0.7518398074789796 0
    outer loop
      vertex 4.7221825406947975 4.2778174593052025 2
      vertex 4.830362428090408 4.372688674320359 7
      vertex 4.7221825406947975 4.2778174593052025 7
    endloop
  endfacet
  facet normal 0.5555702330196028 -0.8314696123025449 0
    outer loop
      vertex 4.830362428090408 4.372688674320359 2
      vertex 4.95 4.452627944162883 7
      vertex 4.830362428090408 4.372688674320359 7
    endloop
  endfacet
  facet normal 0.44228869021899925 -0.8968727415326894 0
    outer loop
      vertex 4.95 4.452627944162883 2
      vertex 5.079048224398401 4.516267485762415 7
      vertex 4.95 4.452627944162883 7
    endloop
  endfacet
  facet normal 0.3214394653031683 -0.9469301294951034 0
    outer loop
      vertex 5.079048224398401 4.516267485762415 2
      vertex 5.215299050387227 4.562518408917976 7
      vertex 5.079048224398401 4.516267485762415 7
    endloop
  endfacet
  facet normal 0.1950903220161196 -0.9807852804032321 0
    outer loop
      vertex 5.215299050387227 4.562518408917976 2
      vertex 5.356421188557944 4.590589347511191 7
      vertex 5.215299050387227 4.562518408917976 7
    endloop
  endfacet
  facet normal 0.06540312923014413 -0.9978589232386035 0
    outer loop
      vertex 5.356421188557944 4.590589347511191 2
      vertex 5.5 4.6 7
      vertex 5.356421188557944 4.590589347511191 7
    endloop
  endfacet
  facet normal -0.1950903220161196 -0.9807852804032321 0
    outer loop
      vertex 5.643578811442056 4.590589347511191 2
      vertex 5.784700949612773 4.562518408917976 7
      vertex 5.643578811442056 4.590589347511191 7
    endloop
  endfacet
  facet normal -0.06540312923014413 -0.9978589232386035 0
    outer loop
      vertex 5.5 4.6 2
      vertex 5.643578811442056 4.590589347511191 7
      vertex 5.5 4.6 7
    endloop
  endfacet
  facet normal -0.3214394653031683 -0.9469301294951034 0
    outer loop
      vertex 5.784700949612773 4.562518408917976 2
      vertex 5.920951775601599 4.516267485762415 7
      vertex 5.784700949612773 4.562518408917976 7
    endloop
  endfacet
  facet normal -0.44228869021899925 -0.8968727415326894 0
    outer loop
      vertex 5.920951775601599 4.516267485762415 2
      vertex 6.05 4.452627944162883 7
      vertex 5.920951775601599 4.516267485762415 7
    endloop
  endfacet
  facet normal -0.6593458151000665 -0.7518398074789796 0
    outer loop
      vertex 6.169637571909592 4.372688674320359 2
      vertex 6.2778174593052025 4.2778174593052025 7
      vertex 6.169637571909592 4.372688674320359 7
    endloop
  endfacet
  facet normal -0.8968727415326894 -0.44228869021899925 0
    outer loop
      vertex 6.452627944162883 4.05 2
      vertex 6.516267485762415 3.9209517756015986 7
      vertex 6.452627944162883 4.05 7
    endloop
  endfacet
  facet normal -0.8314696123025449 -0.5555702330196028 0
    outer loop
      vertex 6.372688674320359 4.169637571909592 2
      vertex 6.452627944162883 4.05 7
      vertex 6.372688674320359 4.169637571909592 7
    endloop
  endfacet
  facet normal -0.7518398074789796 -0.6593458151000665 0
    outer loop
      vertex 6.2778174593052025 4.2778174593052025 2
      vertex 6.372688674320359 4.169637571909592 7
      vertex 6.2778174593052025 4.2778174593052025 7
    endloop
  endfacet
  facet normal -0.9978589232386035 -0.06540312923014392 0
    outer loop
      vertex 6.590589347511191 3.643578811442057 2
      vertex 6.6 3.5 7
      vertex 6.590589347511191 3.643578811442057 7
    endloop
  endfacet
  facet normal -0.980785280403232 -0.19509032201612078 0
    outer loop
      vertex 6.562518408917976 3.784700949612773 2
      vertex 6.590589347511191 3.643578811442057 7
      vertex 6.562518408917976 3.784700949612773 7
    endloop
  endfacet
  facet normal -0.9469301294951037 -0.32143946530316736 0
    outer loop
      vertex 6.516267485762415 3.9209517756015986 2
      vertex 6.562518408917976 3.784700949612773 7
      vertex 6.516267485762415 3.9209517756015986 7
    endloop
  endfacet
  facet normal -0.5555702330196028 -0.8314696123025449 0
    outer loop
      vertex 6.05 4.452627944162883 2
      vertex 6.169637571909592 4.372688674320359 7
      vertex 6.05 4.452627944162883 7
    endloop
  endfacet
  facet normal 0 0 1
    outer loop
      vertex 3.1199399791262943 1.673715712973838 2
      vertex 2 1.3783959508686494 2
      vertex 2 0 2
    endloop
  endfacet
  facet normal 0 0 1
    outer loop
      vertex 3.1199399791262943 1.673715712973838 2
      vertex 2 0 2
      vertex 3.378679656440357 1.3786796564403572 2
    endloop
  endfacet
  facet normal 0 0 1
    outer loop
      vertex 3.1199399791262943 1.673715712973838 2
      vertex 2.901923788646684 2 2
      vertex 2 1.3783959508686494 2
    endloop
  endfacet
  facet normal 0 0 1
    outer loop
      vertex 3.378679656440357 1.3786796564403572 2
      vertex 2 0 2
      vertex 3.673715712973838 1.1199399791262943 2
    endloop
  endfacet
  facet normal 0 0 1
    outer loop
      vertex 3.673715712973838 1.1199399791262943 2
      vertex 2 0 2
      vertex 4 0.901923788646684 2
    endloop
  endfacet
  facet normal 0 0 1
    outer loop
      vertex 4.351949702904731 0.72836140246614 2
      vertex 4 0.901923788646684 2
      vertex 2 0 2
    endloop
  endfacet
  facet normal 0 0 1
    outer loop
      vertex 4.723542864692438 0.602222521132795 2
      vertex 2 0 2
      vertex 5.108421423339845 0.525665415878569 2
    endloop
  endfacet
  facet normal 0 0 1
    outer loop
      vertex 4.351949702904731 0.72836140246614 2
      vertex 2 0 2
      vertex 4.723542864692438 0.602222521132795 2
    endloop
  endfacet
  facet normal 0 0 1
    outer loop
      vertex 2.72836140246614 2.3519497029047307 2
      vertex 2.602222521132795 2.723542864692438 2
      vertex 2 1.3783959508686494 2
    endloop
  endfacet
  facet normal 0 0 1
    outer loop
      vertex 2.602222521132795 2.723542864692438 2
      vertex 2.525665415878569 3.1084214233398453 2
      vertex 2 1.3783959508686494 2
    endloop
  endfacet
  facet normal 0 0 1
    outer loop
      vertex 2.901923788646684 2 2
      vertex 2.72836140246614 2.3519497029047307 2
      vertex 2 1.3783959508686494 2
    endloop
  endfacet
  facet normal 0 0 1
    outer loop
      vertex 2.525665415878569 3.1084214233398453 2
      vertex 2.5 3.5 2
      vertex 2 1.3783959508686494 2
    endloop
  endfacet
  facet normal 0 0 1
    outer loop
      vertex 2.5 3.5 2
      vertex 2.525665415878569 3.8915785766601547 2
      vertex 2 1.3783959508686494 2
    endloop
  endfacet
  facet normal 0 0 1
    outer loop
      vertex 2.525665415878569 3.8915785766601547 2
      vertex 2.602222521132795 4.276457135307562 2
      vertex 2 1.3783959508686494 2
    endloop
  endfacet
  facet normal 0 0 1
    outer loop
      vertex 5.108421423339845 0.525665415878569 2
      vertex 2 0 2
      vertex 5.5 0.5 2
    endloop
  endfacet
  facet normal 0 0 1
    outer loop
      vertex 5.5 0.5 2
      vertex 2 0 2
      vertex 5.891578576660155 0.525665415878569 2
    endloop
  endfacet
  facet normal 0 0 1
    outer loop
      vertex 4.483732514237585 3.0790482243984014 2
      vertex 4.547372055837117 2.95 2
      vertex 4.830362428090408 4.372688674320359 2
    endloop
  endfacet
  facet normal 0 0 1
    outer loop
      vertex 4.7221825406947975 2.7221825406947975 2
      vertex 5.215299050387227 4.562518408917976 2
      vertex 4.627311325679641 2.830362428090407 2
    endloop
  endfacet
  facet normal 0 0 1
    outer loop
      vertex 4.627311325679641 2.830362428090407 2
      vertex 5.079048224398401 4.516267485762415 2
      vertex 4.547372055837117 2.95 2
    endloop
  endfacet
  facet normal 0 0 1
    outer loop
      vertex 4.7221825406947975 2.7221825406947975 2
      vertex 4.830362428090408 2.627311325679641 2
      vertex 5.356421188557944 4.590589347511191 2
    endloop
  endfacet
  facet normal 0 0 1
    outer loop
      vertex 4.95 2.5473720558371173 2
      vertex 5.356421188557944 4.590589347511191 2
      vertex 4.830362428090408 2.627311325679641 2
    endloop
  endfacet
  facet normal 0 0 1
    outer loop
      vertex 5.079048224398401 2.483732514237585 2
      vertex 5.215299050387227 2.4374815910820247 2
      vertex 5.356421188557944 4.590589347511191 2
    endloop
  endfacet
  facet normal 0 0 1
    outer loop
      vertex 4.95 2.5473720558371173 2
      vertex 5.079048224398401 2.483732514237585 2
      vertex 5.356421188557944 4.590589347511191 2
    endloop
  endfacet
  facet normal 0 0 1
    outer loop
      vertex 5.215299050387227 2.4374815910820247 2
      vertex 5.356421188557944 2.4094106524888086 2
      vertex 5.356421188557944 4.590589347511191 2
    endloop
  endfacet
  facet normal 0 0 1
    outer loop
      vertex 5.356421188557944 2.4094106524888086 2
      vertex 5.5 2.4 2
      vertex 5.356421188557944 4.590589347511191 2
    endloop
  endfacet
  facet normal 0 0 1
    outer loop
      vertex 5.5 2.4 2
      vertex 5.643578811442056 2.4094106524888086 2
      vertex 5.356421188557944 4.590589347511191 2
    endloop
  endfacet
  facet normal 0 0 1
    outer loop
      vertex 5.643578811442056 2.4094106524888086 2
      vertex 5.784700949612773 2.4374815910820247 2
      vertex 5.356421188557944 4.590589347511191 2
    endloop
  endfacet
  facet normal 0 0 1
    outer loop
      vertex 5.784700949612773 2.4374815910820247 2
      vertex 5.920951775601599 2.483732514237585 2
      vertex 5.356421188557944 4.590589347511191 2
    endloop
  endfacet
  facet normal 0 0 1
    outer loop
      vertex 5.920951775601599 2.483732514237585 2
      vertex 6.05 2.5473720558371173 2
      vertex 5.356421188557944 4.590589347511191 2
    endloop
  endfacet
  facet normal 0 0 1
    outer loop
      vertex 6.05 2.5473720558371173 2
      vertex 6.169637571909592 2.627311325679641 2
      vertex 5.356421188557944 4.590589347511191 2
    endloop
  endfacet
  facet normal 0 0 1
    outer loop
      vertex 6.169637571909592 2.627311325679641 2
      vertex 6.2778174593052025 2.7221825406947975 2
      vertex 5.356421188557944 4.590589347511191 2
    endloop
  endfacet
  facet normal 0 0 1
    outer loop
      vertex 6.2778174593052025 2.7221825406947975 2
      vertex 6.372688674320359 2.830362428090407 2
      vertex 5.356421188557944 4.590589347511191 2
    endloop
  endfacet
  facet normal 0 0 1
    outer loop
      vertex 6.372688674320359 2.830362428090407 2
      vertex 6.452627944162883 2.95 2
      vertex 5.356421188557944 4.590589347511191 2
    endloop
  endfacet
  facet normal 0 0 1
    outer loop
      vertex 4.4 3.5 2
      vertex 4.483732514237585 3.9209517756015986 2
      vertex 4.409410652488809 3.643578811442057 2
    endloop
  endfacet
  facet normal 0 0 1
    outer loop
      vertex 4.409410652488809 3.356421188557943 2
      vertex 4.627311325679641 4.169637571909592 2
      vertex 4.4 3.5 2
    endloop
  endfacet
  facet normal 0 0 1
    outer loop
      vertex 4.409410652488809 3.643578811442057 2
      vertex 4.483732514237585 3.9209517756015986 2
      vertex 4.437481591082024 3.784700949612773 2
    endloop
  endfacet
  facet normal 0 0 1
    outer loop
      vertex 4.4 3.5 2
      vertex 4.547372055837117 4.05 2
      vertex 4.483732514237585 3.9209517756015986 2
    endloop
  endfacet
  facet normal 0 0 1
    outer loop
      vertex 4.483732514237585 3.0790482243984014 2
      vertex 4.7221825406947975 4.2778174593052025 2
      vertex 4.437481591082024 3.215299050387227 2
    endloop
  endfacet
  facet normal 0 0 1
    outer loop
      vertex 4.437481591082024 3.215299050387227 2
      vertex 4.7221825406947975 4.2778174593052025 2
      vertex 4.409410652488809 3.356421188557943 2
    endloop
  endfacet
  facet normal 0 0 1
    outer loop
      vertex 4.4 3.5 2
      vertex 4.627311325679641 4.169637571909592 2
      vertex 4.547372055837117 4.05 2
    endloop
  endfacet
  facet normal 0 0 1
    outer loop
      vertex 4.409410652488809 3.356421188557943 2
      vertex 4.7221825406947975 4.2778174593052025 2
      vertex 4.627311325679641 4.169637571909592 2
    endloop
  endfacet
  facet normal 0 0 1
    outer loop
      vertex 4.483732514237585 3.0790482243984014 2
      vertex 4.830362428090408 4.372688674320359 2
      vertex 4.7221825406947975 4.2778174593052025 2
    endloop
  endfacet
  facet normal 0 0 1
    outer loop
      vertex 4.547372055837117 2.95 2
      vertex 4.95 4.452627944162883 2
      vertex 4.830362428090408 4.372688674320359 2
    endloop
  endfacet
  facet normal 0 0 1
    outer loop
      vertex 4.547372055837117 2.95 2
      vertex 5.079048224398401 4.516267485762415 2
      vertex 4.95 4.452627944162883 2
    endloop
  endfacet
  facet normal 0 0 1
    outer loop
      vertex 4.627311325679641 2.830362428090407 2
      vertex 5.215299050387227 4.562518408917976 2
      vertex 5.079048224398401 4.516267485762415 2
    endloop
  endfacet
  facet normal 0 0 1
    outer loop
      vertex 4.7221825406947975 2.7221825406947975 2
      vertex 5.356421188557944 4.590589347511191 2
      vertex 5.215299050387227 4.562518408917976 2
    endloop
  endfacet
  facet normal 0 0 1
    outer loop
      vertex 5.356421188557944 4.590589347511191 2
      vertex 6.516267485762415 3.9209517756015986 2
      vertex 5.5 4.6 2
    endloop
  endfacet
  facet normal 0 0 1
    outer loop
      vertex 5.643578811442056 4.590589347511191 2
      vertex 5.5 4.6 2
      vertex 6.516267485762415 3.9209517756015986 2
    endloop
  endfacet
  facet normal 0 0 1
    outer loop
      vertex 5.643578811442056 4.590589347511191 2
      vertex 5.920951775601599 4.516267485762415 2
      vertex 5.784700949612773 4.562518408917976 2
    endloop
  endfacet
  facet normal 0 0 1
    outer loop
      vertex 5.643578811442056 4.590589347511191 2
      vertex 6.05 4.452627944162883 2
      vertex 5.920951775601599 4.516267485762415 2
    endloop
  endfacet
  facet normal 0 0 1
    outer loop
      vertex 5.643578811442056 4.590589347511191 2
      vertex 6.169637571909592 4.372688674320359 2
      vertex 6.05 4.452627944162883 2
    endloop
  endfacet
  facet normal 0 0 1
    outer loop
      vertex 6.452627944162883 2.95 2
      vertex 6.516267485762415 3.0790482243984014 2
      vertex 5.356421188557944 4.590589347511191 2
    endloop
  endfacet
  facet normal 0 0 1
    outer loop
      vertex 6.516267485762415 3.0790482243984014 2
      vertex 6.562518408917976 3.215299050387227 2
      vertex 5.356421188557944 4.590589347511191 2
    endloop
  endfacet
  facet normal 0 0 1
    outer loop
      vertex 6.562518408917976 3.215299050387227 2
      vertex 6.590589347511191 3.356421188557943 2
      vertex 5.356421188557944 4.590589347511191 2
    endloop
  endfacet
  facet normal 0 0 1
    outer loop
      vertex 6.590589347511191 3.356421188557943 2
      vertex 6.6 3.5 2
      vertex 5.356421188557944 4.590589347511191 2
    endloop
  endfacet
  facet normal 0 0 1
    outer loop
      vertex 5.356421188557944 4.590589347511191 2
      vertex 6.6 3.5 2
      vertex 6.590589347511191 3.643578811442057 2
    endloop
  endfacet
  facet normal 0 0 1
    outer loop
      vertex 5.356421188557944 4.590589347511191 2
      vertex 6.590589347511191 3.643578811442057 2
      vertex 6.562518408917976 3.784700949612773 2
    endloop
  endfacet
  facet normal 0 0 1
    outer loop
      vertex 5.356421188557944 4.590589347511191 2
      vertex 6.562518408917976 3.784700949612773 2
      vertex 6.516267485762415 3.9209517756015986 2
    endloop
  endfacet
  facet normal 0 0 1
    outer loop
      vertex 5.643578811442056 4.590589347511191 2
      vertex 6.372688674320359 4.169637571909592 2
      vertex 6.2778174593052025 4.2778174593052025 2
    endloop
  endfacet
  facet normal 0 0 1
    outer loop
      vertex 5.643578811442056 4.590589347511191 2
      vertex 6.516267485762415 3.9209517756015986 2
      vertex 6.452627944162883 4.05 2
    endloop
  endfacet
  facet normal 0 0 1
    outer loop
      vertex 5.643578811442056 4.590589347511191 2
      vertex 6.452627944162883 4.05 2
      vertex 6.372688674320359 4.169637571909592 2
    endloop
  endfacet
  facet normal 0 0 1
    outer loop
      vertex 5.643578811442056 4.590589347511191 2
      vertex 6.2778174593052025 4.2778174593052025 2
      vertex 6.169637571909592 4.372688674320359 2
    endloop
  endfacet
  facet normal -1 0 0
    outer loop
      vertex 0 26 2
      vertex 0 0 0
      vertex 0 0 2
    endloop
  endfacet
  facet normal 0 0 1
    outer loop
      vertex 2.602222521132795 4.276457135307562 2
      vertex 2 26 2
      vertex 2 1.3783959508686494 2
    endloop
  endfacet
  facet normal 0 0 1
    outer loop
      vertex 2.602222521132795 4.276457135307562 2
      vertex 2.72836140246614 4.648050297095269 2
      vertex 2 26 2
    endloop
  endfacet
  facet normal 0 0 1
    outer loop
      vertex 2.72836140246614 4.648050297095269 2
      vertex 2.901923788646684 5 2
      vertex 2 26 2
    endloop
  endfacet
  facet normal 0 0 1
    outer loop
      vertex 2.901923788646684 5 2
      vertex 3.1199399791262943 5.326284287026162 2
      vertex 2 26 2
    endloop
  endfacet
  facet normal 0 0 1
    outer loop
      vertex 3.1199399791262943 5.326284287026162 2
      vertex 3.378679656440357 5.621320343559643 2
      vertex 2 26 2
    endloop
  endfacet
  facet normal 0 0 1
    outer loop
      vertex 3.378679656440357 5.621320343559643 2
      vertex 3.673715712973838 5.880060020873706 2
      vertex 2 26 2
    endloop
  endfacet
  facet normal 0 0 1
    outer loop
      vertex 3.673715712973838 5.880060020873706 2
      vertex 4 6.098076211353316 2
      vertex 2 26 2
    endloop
  endfacet
  facet normal 0 0 1
    outer loop
      vertex 4 6.098076211353316 2
      vertex 4.351949702904731 6.27163859753386 2
      vertex 2 26 2
    endloop
  endfacet
  facet normal 0 0 1
    outer loop
      vertex 4.351949702904731 6.27163859753386 2
      vertex 4.723542864692438 6.397777478867205 2
      vertex 2 26 2
    endloop
  endfacet
  facet normal 0 -1 0
    outer loop
      vertex 32 0 2
      vertex 2 0 2
      vertex 2 0 0
    endloop
  endfacet
  facet normal 0 0 1
    outer loop
      vertex 5.891578576660155 0.525665415878569 2
      vertex 2 0 2
      vertex 32 0 2
    endloop
  endfacet
  facet normal 0 0 1
    outer loop
      vertex 5.891578576660155 0.525665415878569 2
      vertex 32 0 2
      vertex 6.276457135307562 0.602222521132795 2
    endloop
  endfacet
  facet normal 0 0 1
    outer loop
      vertex 6.276457135307562 0.602222521132795 2
      vertex 32 0 2
      vertex 6.648050297095269 0.72836140246614 2
    endloop
  endfacet
  facet normal 0 0 1
    outer loop
      vertex 6.648050297095269 0.72836140246614 2
      vertex 32 0 2
      vertex 7 0.901923788646684 2
    endloop
  endfacet
  facet normal 0 0 1
    outer loop
      vertex 7 0.901923788646684 2
      vertex 32 0 2
      vertex 7.326284287026162 1.1199399791262943 2
    endloop
  endfacet
  facet normal 0 0 1
    outer loop
      vertex 7.326284287026162 1.1199399791262943 2
      vertex 32 0 2
      vertex 7.621320343559643 1.3786796564403572 2
    endloop
  endfacet
  facet normal 0 0 1
    outer loop
      vertex 7.621320343559643 1.3786796564403572 2
      vertex 32 0 2
      vertex 7.880060020873706 1.673715712973838 2
    endloop
  endfacet
  facet normal 0 0 1
    outer loop
      vertex 7.880060020873706 1.673715712973838 2
      vertex 32 0 2
      vertex 8.098076211353316 2 2
    endloop
  endfacet
  facet normal 0 0 -1
    outer loop
      vertex 32 0 0
      vertex 2 0 0
      vertex 2 27.865384615384617 0
    endloop
  endfacet
  facet normal 0 0 1
    outer loop
      vertex 4.723542864692438 6.397777478867205 2
      vertex 5.108421423339845 6.474334584121431 2
      vertex 32 26 2
    endloop
  endfacet
  facet normal 0 0 1
    outer loop
      vertex 7.880060020873706 5.326284287026162 2
      vertex 8.098076211353316 5 2
      vertex 32 26 2
    endloop
  endfacet
  facet normal 0 0 1
    outer loop
      vertex 5.108421423339845 6.474334584121431 2
      vertex 5.5 6.5 2
      vertex 32 26 2
    endloop
  endfacet
  facet normal 0 0 1
    outer loop
      vertex 5.5 6.5 2
      vertex 5.891578576660155 6.474334584121431 2
      vertex 32 26 2
    endloop
  endfacet
  facet normal 0 0 1
    outer loop
      vertex 5.891578576660155 6.474334584121431 2
      vertex 6.276457135307562 6.397777478867205 2
      vertex 32 26 2
    endloop
  endfacet
  facet normal 0 0 1
    outer loop
      vertex 6.276457135307562 6.397777478867205 2
      vertex 6.648050297095269 6.27163859753386 2
      vertex 32 26 2
    endloop
  endfacet
  facet normal 0 0 1
    outer loop
      vertex 7 6.098076211353316 2
      vertex 7.326284287026162 5.880060020873706 2
      vertex 32 26 2
    endloop
  endfacet
  facet normal 0 0 1
    outer loop
      vertex 6.648050297095269 6.27163859753386 2
      vertex 7 6.098076211353316 2
      vertex 32 26 2
    endloop
  endfacet
  facet normal 0 0 1
    outer loop
      vertex 7.326284287026162 5.880060020873706 2
      vertex 7.621320343559643 5.621320343559643 2
      vertex 32 26 2
    endloop
  endfacet
  facet normal 0 0 1
    outer loop
      vertex 7.621320343559643 5.621320343559643 2
      vertex 7.880060020873706 5.326284287026162 2
      vertex 32 26 2
    endloop
  endfacet
  facet normal -1 0 0
    outer loop
      vertex 0 26 0
      vertex 0 0 0
      vertex 0 26 2
    endloop
  endfacet
  facet normal 0 1 0
    outer loop
      vertex 0 28 2
      vertex 2 28 0
      vertex 0 28 0
    endloop
  endfacet
  facet normal 0 0 -1
    outer loop
      vertex 2 27.865384615384617 0
      vertex 1.9904306220095696 27.86602870813397 0
      vertex 2 28 0
    endloop
  endfacet
  facet normal 0 0 1
    outer loop
      vertex 4.723542864692438 6.397777478867205 2
      vertex 32 26 2
      vertex 2 26 2
    endloop
  endfacet
  facet normal 0 0 -1
    outer loop
      vertex 29.714285714285715 26 0
      vertex 2 27.865384615384617 0
      vertex 2 28 0
    endloop
  endfacet
  facet normal 0 1 0
    outer loop
      vertex 0 28 2
      vertex 32 28 0
      vertex 2 28 0
    endloop
  endfacet
  facet normal 0 0 1
    outer loop
      vertex 8.098076211353316 2 2
      vertex 32 0 2
      vertex 8.27163859753386 2.3519497029047307 2
    endloop
  endfacet
  facet normal 0 0 1
    outer loop
      vertex 8.27163859753386 2.3519497029047307 2
      vertex 32 0 2
      vertex 8.397777478867205 2.723542864692438 2
    endloop
  endfacet
  facet normal 0 0 1
    outer loop
      vertex 8.397777478867205 2.723542864692438 2
      vertex 32 0 2
      vertex 8.474334584121431 3.1084214233398453 2
    endloop
  endfacet
  facet normal 0 0 1
    outer loop
      vertex 8.474334584121431 3.1084214233398453 2
      vertex 32 0 2
      vertex 8.5 3.5 2
    endloop
  endfacet
  facet normal 0 0 1
    outer loop
      vertex 8.474334584121431 3.8915785766601547 2
      vertex 8.5 3.5 2
      vertex 32 0 2
    endloop
  endfacet
  facet normal 0 0 1
    outer loop
      vertex 8.474334584121431 3.8915785766601547 2
      vertex 32 0 2
      vertex 8.397777478867205 4.276457135307562 2
    endloop
  endfacet
  facet normal 0 -1 0
    outer loop
      vertex 32 0 0
      vertex 32 0 2
      vertex 2 0 0
    endloop
  endfacet
  facet normal 0 0 1
    outer loop
      vertex 8.397777478867205 4.276457135307562 2
      vertex 32 26 2
      vertex 8.27163859753386 4.648050297095269 2
    endloop
  endfacet
  facet normal 0 0 1
    outer loop
      vertex 8.27163859753386 4.648050297095269 2
      vertex 32 26 2
      vertex 8.098076211353316 5 2
    endloop
  endfacet
  facet normal 0 0 1
    outer loop
      vertex 8.397777478867205 4.276457135307562 2
      vertex 32 0 2
      vertex 32 26 2
    endloop
  endfacet
  facet normal 1 0 0
    outer loop
      vertex 32 0 0
      vertex 32 26 0
      vertex 32 0 2
    endloop
  endfacet
  facet normal 0 0 -1
    outer loop
      vertex 32 0 0
      vertex 2 27.865384615384617 0
      vertex 29.714285714285715 26 0
    endloop
  endfacet
  facet normal 0 0 -1
    outer loop
      vertex 29.714285714285715 26 0
      vertex 2 28 0
      vertex 32 28 0
    endloop
  endfacet
  facet normal 0 0 -1
    outer loop
      vertex 32 0 0
      vertex 29.714285714285715 26 0
      vertex 32 26 0
    endloop
  endfacet
  facet normal 1 0 0
    outer loop
      vertex 32 0 2
      vertex 32 26 0
      vertex 32 26 2
    endloop
  endfacet
  facet normal 0 -1 0
    outer loop
      vertex 0 0 0
      vertex 2 0 0
      vertex 2 0 2
    endloop
  endfacet
  facet normal 0 -1 0
    outer loop
      vertex 0 0 0
      vertex 2 0 12
      vertex 0 0 2
    endloop
  endfacet
  facet normal 0 -1 0
    outer loop
      vertex 0 0 0
      vertex 2 0 2
      vertex 2 0 12
    endloop
  endfacet
  facet normal 1 0 0
    outer loop
      vertex 2 0 12
      vertex 2 0 2
      vertex 2 1.3783959508686494 2
    endloop
  endfacet
  facet normal 0 0 -1
    outer loop
      vertex 0 0 0
      vertex 2 27.865384615384617 0
      vertex 2 0 0
    endloop
  endfacet
  facet normal -1 0 0
    outer loop
      vertex 0 0 12
      vertex 0 26 2
      vertex 0 0 2
    endloop
  endfacet
  facet normal 1 0 0
    outer loop
      vertex 2 0 12
      vertex 2 1.3783959508686494 2
      vertex 2 26 2
    endloop
  endfacet
  facet normal 0 -1 0
    outer loop
      vertex 2 0 12
      vertex 0 0 12
      vertex 0 0 2
    endloop
  endfacet
  facet normal 0 0 1
    outer loop
      vertex 0 0 12
      vertex 2 0 12
      vertex 0 28 12
    endloop
  endfacet
  facet normal 0 0 -1
    outer loop
      vertex 0 0 0
      vertex 0 26 0
      vertex 1.9904306220095696 27.86602870813397 0
    endloop
  endfacet
  facet normal 0 0 -1
    outer loop
      vertex 0 0 0
      vertex 1.9904306220095696 27.86602870813397 0
      vertex 2 27.865384615384617 0
    endloop
  endfacet
  facet normal 0 0 -1
    outer loop
      vertex 0 28 0
      vertex 1.9904306220095696 27.86602870813397 0
      vertex 0 26 0
    endloop
  endfacet
  facet normal 0 0 -1
    outer loop
      vertex 0 28 0
      vertex 2 28 0
      vertex 1.9904306220095696 27.86602870813397 0
    endloop
  endfacet
  facet normal -1 0 0
    outer loop
      vertex 0 26 2
      vertex 0 28 2
      vertex 0 26 0
    endloop
  endfacet
  facet normal -1 0 0
    outer loop
      vertex 0 28 12
      vertex 0 28 2
      vertex 0 26 2
    endloop
  endfacet
  facet normal 0 1 0
    outer loop
      vertex 0 28 12
      vertex 2 28 3.75
      vertex 0 28 2
    endloop
  endfacet
  facet normal 1 0 0
    outer loop
      vertex 2 0 12
      vertex 2 26 2
      vertex 2 26 4
    endloop
  endfacet
  facet normal -1 0 0
    outer loop
      vertex 0 0 12
      vertex 0 28 12
      vertex 0 26 2
    endloop
  endfacet
  facet normal 1 0 0
    outer loop
      vertex 2 0 12
      vertex 2 26 4
      vertex 2 28 12
    endloop
  endfacet
  facet normal 0 0 1
    outer loop
      vertex 0 28 12
      vertex 2 0 12
      vertex 2 28 12
    endloop
  endfacet
  facet normal 0 1 0
    outer loop
      vertex 0 28 12
      vertex 2 28 4
      vertex 2 28 3.75
    endloop
  endfacet
  facet normal 1 0 0
    outer loop
      vertex 2 28 12
      vertex 2 26 4
      vertex 2 28 4
    endloop
  endfacet
  facet normal 0 1 0
    outer loop
      vertex 0 28 12
      vertex 2 28 12
      vertex 2 28 4
    endloop
  endfacet
  facet normal -1 0 0
    outer loop
      vertex 0 26 0
      vertex 0 28 2
      vertex 0 28 0
    endloop
  endfacet
  facet normal 0 1 0
    outer loop
      vertex 32 28 0
      vertex 0 28 2
      vertex 2 28 3.75
    endloop
  endfacet
  facet normal 0 -1 0
    outer loop
      vertex 32 26 4
      vertex 2 26 4
      vertex 2 26 2
    endloop
  endfacet
  facet normal 0 0 1
    outer loop
      vertex 32 28 4
      vertex 2 28 4
      vertex 2 26 4
    endloop
  endfacet
  facet normal 0 1 0
    outer loop
      vertex 32 28 4
      vertex 2 28 3.75
      vertex 2 28 4
    endloop
  endfacet
  facet normal 0 -1 0
    outer loop
      vertex 32 26 2
      vertex 32 26 4
      vertex 2 26 2
    endloop
  endfacet
  facet normal 0 1 0
    outer loop
      vertex 32 28 0
      vertex 2 28 3.75
      vertex 32 28 4
    endloop
  endfacet
  facet normal 0 0 1
    outer loop
      vertex 32 26 4
      vertex 32 28 4
      vertex 2 26 4
    endloop
  endfacet
  facet normal 0 0 -1
    outer loop
      vertex 29.714285714285715 26 0
      vertex 32 28 0
      vertex 32 26 0
    endloop
  endfacet
  facet normal 1 0 0
    outer loop
      vertex 32 26 0
      vertex 32 28 0
      vertex 32 26 2
    endloop
  endfacet
  facet normal 1 0 0
    outer loop
      vertex 32 28 0
      vertex 32 26 4
      vertex 32 26 2
    endloop
  endfacet
  facet normal 1 0 0
    outer loop
      vertex 32 28 0
      vertex 32 28 4
      vertex 32 26 4
    endloop
  endfacet
endsolid OpenSCAD_Model
