solid OpenSCAD_Model
  facet normal 0 0 1
    outer loop
      vertex 8.021320343559644 11.121320343559638 31.299999999999997
      vertex 8 11.140017783044364 31.299999999999997
      vertex 8 6.859982216955622 31.299999999999997
    endloop
  endfacet
  facet normal 0 0 1
    outer loop
      vertex 8.021320343559644 11.121320343559638 31.299999999999997
      vertex 8.280060020873705 7.173715712973831 31.299999999999997
      vertex 8.280060020873705 10.826284287026155 31.299999999999997
    endloop
  endfacet
  facet normal 0 0 1
    outer loop
      vertex 8.280060020873705 10.826284287026155 31.299999999999997
      vertex 8.498076211353316 7.499999999999993 31.299999999999997
      vertex 8.498076211353316 10.499999999999993 31.299999999999997
    endloop
  endfacet
  facet normal 0 0 1
    outer loop
      vertex 8.498076211353316 10.499999999999993 31.299999999999997
      vertex 8.67163859753386 7.851949702904726 31.299999999999997
      vertex 8.67163859753386 10.14805029709526 31.299999999999997
    endloop
  endfacet
  facet normal 0 0 1
    outer loop
      vertex 8.280060020873705 10.826284287026155 31.299999999999997
      vertex 8.280060020873705 7.173715712973831 31.299999999999997
      vertex 8.498076211353316 7.499999999999993 31.299999999999997
    endloop
  endfacet
  facet normal 0 0 1
    outer loop
      vertex 8.498076211353316 10.499999999999993 31.299999999999997
      vertex 8.498076211353316 7.499999999999993 31.299999999999997
      vertex 8.67163859753386 7.851949702904726 31.299999999999997
    endloop
  endfacet
  facet normal 0 0 1
    outer loop
      vertex 8.67163859753386 10.14805029709526 31.299999999999997
      vertex 8.797777478867205 8.223542864692433 31.299999999999997
      vertex 8.797777478867205 9.776457135307552 31.299999999999997
    endloop
  endfacet
  facet normal 0 0 1
    outer loop
      vertex 8.797777478867205 9.776457135307552 31.299999999999997
      vertex 8.874334584121431 8.608421423339841 31.299999999999997
      vertex 8.874334584121431 9.391578576660145 31.299999999999997
    endloop
  endfacet
  facet normal 0 0 1
    outer loop
      vertex 8.874334584121431 9.391578576660145 31.299999999999997
      vertex 8.874334584121431 8.608421423339841 31.299999999999997
      vertex 8.9 8.999999999999993 31.299999999999997
    endloop
  endfacet
  facet normal 0 0 1
    outer loop
      vertex 8.67163859753386 10.14805029709526 31.299999999999997
      vertex 8.67163859753386 7.851949702904726 31.299999999999997
      vertex 8.797777478867205 8.223542864692433 31.299999999999997
    endloop
  endfacet
  facet normal 0 0 1
    outer loop
      vertex 8.797777478867205 9.776457135307552 31.299999999999997
      vertex 8.797777478867205 8.223542864692433 31.299999999999997
      vertex 8.874334584121431 8.608421423339841 31.299999999999997
    endloop
  endfacet
  facet normal 0 0 1
    outer loop
      vertex 8.021320343559644 11.121320343559638 31.299999999999997
      vertex 8 6.859982216955622 31.299999999999997
      vertex 8.021320343559644 6.878679656440347 31.299999999999997
    endloop
  endfacet
  facet normal 0 0 1
    outer loop
      vertex 8.021320343559644 11.121320343559638 31.299999999999997
      vertex 8.021320343559644 6.878679656440347 31.299999999999997
      vertex 8.280060020873705 7.173715712973831 31.299999999999997
    endloop
  endfacet
  facet normal 0.659345815100037 0.7518398074790054 0
    outer loop
      vertex 8.021320343559644 11.121320343559638 31.299999999999997
      vertex 8.021320343559644 11.121320343559638 7
      vertex 8 11.140017783044364 31.299999999999997
    endloop
  endfacet
  facet normal 0.7518398074789826 0.659345815100063 0
    outer loop
      vertex 8.021320343559644 11.121320343559638 31.299999999999997
      vertex 8.280060020873705 10.826284287026155 31.299999999999997
      vertex 8.021320343559644 11.121320343559638 7
    endloop
  endfacet
  facet normal 0.8314696123025445 0.5555702330196032 0
    outer loop
      vertex 8.280060020873705 10.826284287026155 31.299999999999997
      vertex 8.498076211353316 10.499999999999993 31.299999999999997
      vertex 8.280060020873705 10.826284287026155 7
    endloop
  endfacet
  facet normal 0.8968727415326897 0.44228869021899825 0
    outer loop
      vertex 8.498076211353316 10.499999999999993 31.299999999999997
      vertex 8.67163859753386 10.14805029709526 31.299999999999997
      vertex 8.498076211353316 10.499999999999993 7
    endloop
  endfacet
  facet normal 0.9469301294951055 0.3214394653031623 0
    outer loop
      vertex 8.67163859753386 10.14805029709526 31.299999999999997
      vertex 8.797777478867205 9.776457135307552 31.299999999999997
      vertex 8.67163859753386 10.14805029709526 7
    endloop
  endfacet
  facet normal 0.9807852804032308 0.19509032201612714 0
    outer loop
      vertex 8.797777478867205 9.776457135307552 31.299999999999997
      vertex 8.874334584121431 9.391578576660145 31.299999999999997
      vertex 8.797777478867205 9.776457135307552 7
    endloop
  endfacet
  facet normal 0.9978589232386034 0.0654031292301441 0
    outer loop
      vertex 8.874334584121431 9.391578576660145 31.299999999999997
      vertex 8.9 8.999999999999993 31.299999999999997
      vertex 8.874334584121431 9.391578576660145 7
    endloop
  endfacet
  facet normal 0.9978589232386034 -0.0654031292301441 0
    outer loop
      vertex 8.9 8.999999999999993 31.299999999999997
      vertex 8.874334584121431 8.608421423339841 31.299999999999997
      vertex 8.9 8.999999999999993 7
    endloop
  endfacet
  facet normal 0.9807852804032308 -0.19509032201612714 0
    outer loop
      vertex 8.874334584121431 8.608421423339841 31.299999999999997
      vertex 8.797777478867205 8.223542864692433 31.299999999999997
      vertex 8.874334584121431 8.608421423339841 7
    endloop
  endfacet
  facet normal 0.8968727415326897 -0.44228869021899825 0
    outer loop
      vertex 8.67163859753386 7.851949702904726 31.299999999999997
      vertex 8.498076211353316 7.499999999999993 31.299999999999997
      vertex 8.67163859753386 7.851949702904726 7
    endloop
  endfacet
  facet normal 0.659345815100037 -0.7518398074790054 2.490355681076561e-20
    outer loop
      vertex 8.021320343559644 6.878679656440347 31.299999999999997
      vertex 8 6.859982216955622 31.299999999999997
      vertex 8 6.859982216955622 7
    endloop
  endfacet
  facet normal 0.7518398074789826 -0.659345815100063 0
    outer loop
      vertex 8.280060020873705 7.173715712973831 31.299999999999997
      vertex 8.021320343559644 6.878679656440347 31.299999999999997
      vertex 8.280060020873705 7.173715712973831 7
    endloop
  endfacet
  facet normal 0.8314696123025445 -0.5555702330196032 3.4709051460241405e-21
    outer loop
      vertex 8.280060020873705 7.173715712973831 31.299999999999997
      vertex 8.498076211353316 7.499999999999993 7
      vertex 8.498076211353316 7.499999999999993 31.299999999999997
    endloop
  endfacet
  facet normal 0.9469301294951055 -0.3214394653031623 0
    outer loop
      vertex 8.797777478867205 8.223542864692433 31.299999999999997
      vertex 8.67163859753386 7.851949702904726 31.299999999999997
      vertex 8.797777478867205 8.223542864692433 7
    endloop
  endfacet
  facet normal 0.659345815100037 0.7518398074790054 -2.490355681076561e-20
    outer loop
      vertex 8.021320343559644 11.121320343559638 7
      vertex 8 11.140017783044364 7
      vertex 8 11.140017783044364 31.299999999999997
    endloop
  endfacet
  facet normal 0.7518398074789826 0.659345815100063 0
    outer loop
      vertex 8.280060020873705 10.826284287026155 31.299999999999997
      vertex 8.280060020873705 10.826284287026155 7
      vertex 8.021320343559644 11.121320343559638 7
    endloop
  endfacet
  facet normal 0.8314696123025445 0.5555702330196032 0
    outer loop
      vertex 8.498076211353316 10.499999999999993 31.299999999999997
      vertex 8.498076211353316 10.499999999999993 7
      vertex 8.280060020873705 10.826284287026155 7
    endloop
  endfacet
  facet normal 0.8968727415326897 0.44228869021899825 0
    outer loop
      vertex 8.67163859753386 10.14805029709526 31.299999999999997
      vertex 8.67163859753386 10.14805029709526 7
      vertex 8.498076211353316 10.499999999999993 7
    endloop
  endfacet
  facet normal 0.9469301294951055 0.3214394653031623 0
    outer loop
      vertex 8.797777478867205 9.776457135307552 31.299999999999997
      vertex 8.797777478867205 9.776457135307552 7
      vertex 8.67163859753386 10.14805029709526 7
    endloop
  endfacet
  facet normal 0.9807852804032308 0.19509032201612714 0
    outer loop
      vertex 8.874334584121431 9.391578576660145 31.299999999999997
      vertex 8.874334584121431 9.391578576660145 7
      vertex 8.797777478867205 9.776457135307552 7
    endloop
  endfacet
  facet normal 0.9978589232386034 0.0654031292301441 0
    outer loop
      vertex 8.9 8.999999999999993 31.299999999999997
      vertex 8.9 8.999999999999993 7
      vertex 8.874334584121431 9.391578576660145 7
    endloop
  endfacet
  facet normal 0.9978589232386034 -0.0654031292301441 0
    outer loop
      vertex 8.874334584121431 8.608421423339841 31.299999999999997
      vertex 8.874334584121431 8.608421423339841 7
      vertex 8.9 8.999999999999993 7
    endloop
  endfacet
  facet normal 0.659345815100037 -0.7518398074790054 0
    outer loop
      vertex 8.021320343559644 6.878679656440347 31.299999999999997
      vertex 8 6.859982216955622 7
      vertex 8.021320343559644 6.878679656440347 7
    endloop
  endfacet
  facet normal 0.7518398074789826 -0.659345815100063 0
    outer loop
      vertex 8.021320343559644 6.878679656440347 31.299999999999997
      vertex 8.021320343559644 6.878679656440347 7
      vertex 8.280060020873705 7.173715712973831 7
    endloop
  endfacet
  facet normal 0.8314696123025445 -0.5555702330196032 0
    outer loop
      vertex 8.280060020873705 7.173715712973831 31.299999999999997
      vertex 8.280060020873705 7.173715712973831 7
      vertex 8.498076211353316 7.499999999999993 7
    endloop
  endfacet
  facet normal 0.8968727415326897 -0.44228869021899825 0
    outer loop
      vertex 8.498076211353316 7.499999999999993 31.299999999999997
      vertex 8.498076211353316 7.499999999999993 7
      vertex 8.67163859753386 7.851949702904726 7
    endloop
  endfacet
  facet normal 0.9807852804032308 -0.19509032201612714 0
    outer loop
      vertex 8.797777478867205 8.223542864692433 31.299999999999997
      vertex 8.797777478867205 8.223542864692433 7
      vertex 8.874334584121431 8.608421423339841 7
    endloop
  endfacet
  facet normal 0.9469301294951055 -0.3214394653031623 0
    outer loop
      vertex 8.67163859753386 7.851949702904726 31.299999999999997
      vertex 8.67163859753386 7.851949702904726 7
      vertex 8.797777478867205 8.223542864692433 7
    endloop
  endfacet
  facet normal 0.6466443475053271 0.7373565594892405 0.19533661207669173
    outer loop
      vertex 8.021320343559644 11.121320343559638 7
      vertex 8 11.736773282966524 4.747367594836099
      vertex 8 11.140017783044364 7
    endloop
  endfacet
  facet normal 0.6466443475053505 0.7373565594892214 0.19533661207668632
    outer loop
      vertex 8.021320343559644 11.121320343559638 7
      vertex 8.33383062336221 12.171829821563556 2
      vertex 8 11.736773282966524 4.747367594836099
    endloop
  endfacet
  facet normal 0.7373565594892191 0.6466443475053534 0.1953366120766854
    outer loop
      vertex 8.021320343559644 11.121320343559638 7
      vertex 8.280060020873705 10.826284287026155 7
      vertex 8.727015733965379 11.827015733965375 2
    endloop
  endfacet
  facet normal 0.8154523963063472 0.5448678714520049 0.1953366120766859
    outer loop
      vertex 8.280060020873705 10.826284287026155 7
      vertex 8.498076211353316 10.499999999999993 7
      vertex 9.071829821563561 11.433830623362205 2
    endloop
  endfacet
  facet normal 0.8795956165365647 0.43376855505218814 0.19533661207668537
    outer loop
      vertex 8.498076211353316 10.499999999999993 7
      vertex 8.67163859753386 10.14805029709526 7
      vertex 9.362373021517426 10.999001996007976 2
    endloop
  endfacet
  facet normal 0.5448678714520035 0.815452396306348 0.1953366120766862
    outer loop
      vertex 8.33383062336221 12.171829821563556 2
      vertex 8 12.394888312777468 2
      vertex 8 11.736773282966524 4.747367594836099
    endloop
  endfacet
  facet normal 0.6466443475053573 0.7373565594892156 0.1953366120766855
    outer loop
      vertex 8.021320343559644 11.121320343559638 7
      vertex 8.727015733965379 11.827015733965375 2
      vertex 8.33383062336221 12.171829821563556 2
    endloop
  endfacet
  facet normal 0.7373565594892154 0.6466443475053575 0.1953366120766859
    outer loop
      vertex 8.280060020873705 10.826284287026155 7
      vertex 9.071829821563561 11.433830623362205 2
      vertex 8.727015733965379 11.827015733965375 2
    endloop
  endfacet
  facet normal 0.8154523963063499 0.544867871452001 0.19533661207668546
    outer loop
      vertex 8.498076211353316 10.499999999999993 7
      vertex 9.362373021517426 10.999001996007976 2
      vertex 9.071829821563561 11.433830623362205 2
    endloop
  endfacet
  facet normal 0.8795956165365629 0.43376855505219164 0.1953366120766857
    outer loop
      vertex 8.67163859753386 10.14805029709526 7
      vertex 9.59367405912197 10.529969890273996 2
      vertex 9.362373021517426 10.999001996007976 2
    endloop
  endfacet
  facet normal 0.9286887118978603 0.31524733841207203 0.19533661207668562
    outer loop
      vertex 8.67163859753386 10.14805029709526 7
      vertex 8.797777478867205 9.776457135307552 7
      vertex 9.59367405912197 10.529969890273996 2
    endloop
  endfacet
  facet normal 0.961891685917431 0.19133215240864546 0.1953366120766855
    outer loop
      vertex 8.797777478867205 9.776457135307552 7
      vertex 8.874334584121431 9.391578576660145 7
      vertex 9.761775309495016 10.034759575529634 2
    endloop
  endfacet
  facet normal 0.978636426504195 0.06414322023021633 0.19533661207668562
    outer loop
      vertex 8.874334584121431 9.391578576660145 7
      vertex 8.9 8.999999999999993 7
      vertex 9.863800513636212 9.521844237558398 2
    endloop
  endfacet
  facet normal 0.978636426504195 -0.06414322023021633 0.19533661207668543
    outer loop
      vertex 8.9 8.999999999999993 7
      vertex 8.874334584121431 8.608421423339841 7
      vertex 9.898003992015967 8.999999999999993 2
    endloop
  endfacet
  facet normal 0.7373565594892191 -0.6466443475053534 0.19533661207668598
    outer loop
      vertex 8.280060020873705 7.173715712973831 7
      vertex 8.021320343559644 6.878679656440347 7
      vertex 9.071829821563561 6.566169376637781 2
    endloop
  endfacet
  facet normal 0.961891685917431 -0.19133215240864546 0.19533661207668557
    outer loop
      vertex 8.874334584121431 8.608421423339841 7
      vertex 8.797777478867205 8.223542864692433 7
      vertex 9.863800513636212 8.478155762441588 2
    endloop
  endfacet
  facet normal 0.9286887118978603 -0.31524733841207203 0.1953366120766856
    outer loop
      vertex 8.797777478867205 8.223542864692433 7
      vertex 8.67163859753386 7.851949702904726 7
      vertex 9.761775309495016 7.965240424470352 2
    endloop
  endfacet
  facet normal 0.8154523963063472 -0.5448678714520049 0.1953366120766854
    outer loop
      vertex 8.280060020873705 7.173715712973831 7
      vertex 9.362373021517426 7.0009980039920094 2
      vertex 8.498076211353316 7.499999999999993 7
    endloop
  endfacet
  facet normal 0.8795956165365647 -0.43376855505218814 0.1953366120766858
    outer loop
      vertex 8.67163859753386 7.851949702904726 7
      vertex 8.498076211353316 7.499999999999993 7
      vertex 9.59367405912197 7.47003010972599 2
    endloop
  endfacet
  facet normal 0.8154523963063499 -0.544867871452001 0.19533661207668584
    outer loop
      vertex 8.280060020873705 7.173715712973831 7
      vertex 9.071829821563561 6.566169376637781 2
      vertex 9.362373021517426 7.0009980039920094 2
    endloop
  endfacet
  facet normal 0.8795956165365629 -0.43376855505219164 0.19533661207668546
    outer loop
      vertex 8.498076211353316 7.499999999999993 7
      vertex 9.362373021517426 7.0009980039920094 2
      vertex 9.59367405912197 7.47003010972599 2
    endloop
  endfacet
  facet normal 0.9286887118978604 0.31524733841207175 0.19533661207668557
    outer loop
      vertex 8.797777478867205 9.776457135307552 7
      vertex 9.761775309495016 10.034759575529634 2
      vertex 9.59367405912197 10.529969890273996 2
    endloop
  endfacet
  facet normal 0.9618916859174307 0.1913321524086461 0.1953366120766855
    outer loop
      vertex 8.874334584121431 9.391578576660145 7
      vertex 9.863800513636212 9.521844237558398 2
      vertex 9.761775309495016 10.034759575529634 2
    endloop
  endfacet
  facet normal 0.9786364265041949 0.06414322023021435 0.1953366120766854
    outer loop
      vertex 8.9 8.999999999999993 7
      vertex 9.898003992015967 8.999999999999993 2
      vertex 9.863800513636212 9.521844237558398 2
    endloop
  endfacet
  facet normal 0.9786364265041949 -0.06414322023021435 0.19533661207668554
    outer loop
      vertex 8.874334584121431 8.608421423339841 7
      vertex 9.863800513636212 8.478155762441588 2
      vertex 9.898003992015967 8.999999999999993 2
    endloop
  endfacet
  facet normal 0.9618916859174307 -0.1913321524086461 0.19533661207668546
    outer loop
      vertex 8.797777478867205 8.223542864692433 7
      vertex 9.761775309495016 7.965240424470352 2
      vertex 9.863800513636212 8.478155762441588 2
    endloop
  endfacet
  facet normal 0.9286887118978604 -0.31524733841207175 0.19533661207668562
    outer loop
      vertex 8.67163859753386 7.851949702904726 7
      vertex 9.59367405912197 7.47003010972599 2
      vertex 9.761775309495016 7.965240424470352 2
    endloop
  endfacet
  facet normal 0.6466443475053271 -0.7373565594892405 0.19533661207669173
    outer loop
      vertex 8.021320343559644 6.878679656440347 7
      vertex 8 6.859982216955622 7
      vertex 8 6.2632267170334615 4.747367594836099
    endloop
  endfacet
  facet normal 0.6466443475053542 -0.7373565594892184 0.19533661207668546
    outer loop
      vertex 8.021320343559644 6.878679656440347 7
      vertex 8 6.2632267170334615 4.747367594836099
      vertex 8.727015733965379 6.172984266034611 2
    endloop
  endfacet
  facet normal 0.7373565594892155 -0.6466443475053576 0.19533661207668548
    outer loop
      vertex 8.021320343559644 6.878679656440347 7
      vertex 8.727015733965379 6.172984266034611 2
      vertex 9.071829821563561 6.566169376637781 2
    endloop
  endfacet
  facet normal 0.6466443475053573 -0.7373565594892155 0.19533661207668618
    outer loop
      vertex 8.727015733965379 6.172984266034611 2
      vertex 8 6.2632267170334615 4.747367594836099
      vertex 8.33383062336221 5.82817017843643 2
    endloop
  endfacet
  facet normal 0.5448678714520035 -0.815452396306348 0.1953366120766862
    outer loop
      vertex 8.33383062336221 5.82817017843643 2
      vertex 8 6.2632267170334615 4.747367594836099
      vertex 8 5.605111687222518 2
    endloop
  endfacet
  facet normal 0 0 -1
    outer loop
      vertex 8 2.799999999999997 31.4
      vertex 28 2 31.4
      vertex 8 2 31.4
    endloop
  endfacet
  facet normal 0 0 1
    outer loop
      vertex 8 2 29.4
      vertex 28 2.799999999999997 29.4
      vertex 8 2.799999999999997 29.4
    endloop
  endfacet
  facet normal 0 1 0
    outer loop
      vertex 8 2 31.4
      vertex 28 2 29.4
      vertex 8 2 29.4
    endloop
  endfacet
  facet normal 0 0 -1
    outer loop
      vertex 8 2.799999999999997 31.4
      vertex 28 2.799999999999997 31.4
      vertex 28 2 31.4
    endloop
  endfacet
  facet normal 0 1 0
    outer loop
      vertex 8 2 31.4
      vertex 28 2 31.4
      vertex 28 2 29.4
    endloop
  endfacet
  facet normal 0 0 1
    outer loop
      vertex 8 2 29.4
      vertex 28 2 29.4
      vertex 28 2.799999999999997 29.4
    endloop
  endfacet
  facet normal 0 1 0
    outer loop
      vertex 8 2.799999999999997 34.4
      vertex 28 2.799999999999997 31.4
      vertex 8 2.799999999999997 31.4
    endloop
  endfacet
  facet normal 0 0 1
    outer loop
      vertex 8 0 34.4
      vertex 28 2.799999999999997 34.4
      vertex 8 2.799999999999997 34.4
    endloop
  endfacet
  facet normal 0 -1 0
    outer loop
      vertex 8 0 34.4
      vertex 8 0 2
      vertex 28 0 34.4
    endloop
  endfacet
  facet normal 0 1 0
    outer loop
      vertex 8 2.799999999999997 2
      vertex 8 2.799999999999997 29.4
      vertex 28 2.799999999999997 2
    endloop
  endfacet
  facet normal 0 0 -1
    outer loop
      vertex 8 0 0
      vertex 8 0.340789473684211 0
      vertex 28 0 0
    endloop
  endfacet
  facet normal 0 1 0
    outer loop
      vertex 8 2.799999999999997 34.4
      vertex 28 2.799999999999997 34.4
      vertex 28 2.799999999999997 31.4
    endloop
  endfacet
  facet normal 0 0 1
    outer loop
      vertex 8 0 34.4
      vertex 28 0 34.4
      vertex 28 2.799999999999997 34.4
    endloop
  endfacet
  facet normal 0 1 0
    outer loop
      vertex 8 2.799999999999997 29.4
      vertex 28 2.799999999999997 29.4
      vertex 28 2.799999999999997 2
    endloop
  endfacet
  facet normal 0 -1 0
    outer loop
      vertex 28 0 34.4
      vertex 8 0 2
      vertex 28 0 2
    endloop
  endfacet
  facet normal 0 0 -1
    outer loop
      vertex 28 0 0
      vertex 8 0.340789473684211 0
      vertex 28 0.9548245614035054 0
    endloop
  endfacet
  facet normal 0 0 1
    outer loop
      vertex 8.33383062336221 12.171829821563556 2
      vertex 8 27.099999999999994 2
      vertex 8 12.394888312777468 2
    endloop
  endfacet
  facet normal 0 0 1
    outer loop
      vertex 8.33383062336221 12.171829821563556 2
      vertex 8.727015733965379 11.827015733965375 2
      vertex 8 27.099999999999994 2
    endloop
  endfacet
  facet normal 0 0 1
    outer loop
      vertex 8.727015733965379 11.827015733965375 2
      vertex 9.071829821563561 11.433830623362205 2
      vertex 8 27.099999999999994 2
    endloop
  endfacet
  facet normal 0 0 1
    outer loop
      vertex 9.071829821563561 11.433830623362205 2
      vertex 9.362373021517426 10.999001996007976 2
      vertex 8 27.099999999999994 2
    endloop
  endfacet
  facet normal 0 0 1
    outer loop
      vertex 9.362373021517426 10.999001996007976 2
      vertex 9.59367405912197 10.529969890273996 2
      vertex 8 27.099999999999994 2
    endloop
  endfacet
  facet normal 0 0 1
    outer loop
      vertex 9.59367405912197 10.529969890273996 2
      vertex 23 19.099999999999994 2
      vertex 8 27.099999999999994 2
    endloop
  endfacet
  facet normal 0 0 -1
    outer loop
      vertex 23 19.099999999999994 0
      vertex 8 0.340789473684211 0
      vertex 8 27.099999999999994 0
    endloop
  endfacet
  facet normal 0 0 1
    outer loop
      vertex 9.59367405912197 10.529969890273996 2
      vertex 9.761775309495016 10.034759575529634 2
      vertex 28 2.799999999999997 2
    endloop
  endfacet
  facet normal 0 0 1
    outer loop
      vertex 9.761775309495016 10.034759575529634 2
      vertex 9.863800513636212 9.521844237558398 2
      vertex 28 2.799999999999997 2
    endloop
  endfacet
  facet normal 0 0 1
    outer loop
      vertex 9.863800513636212 9.521844237558398 2
      vertex 9.898003992015967 8.999999999999993 2
      vertex 28 2.799999999999997 2
    endloop
  endfacet
  facet normal 0 0 1
    outer loop
      vertex 8.727015733965379 6.172984266034611 2
      vertex 28 2.799999999999997 2
      vertex 9.071829821563561 6.566169376637781 2
    endloop
  endfacet
  facet normal 0 0 1
    outer loop
      vertex 9.362373021517426 7.0009980039920094 2
      vertex 9.071829821563561 6.566169376637781 2
      vertex 28 2.799999999999997 2
    endloop
  endfacet
  facet normal 0 0 1
    outer loop
      vertex 8.33383062336221 5.82817017843643 2
      vertex 8 5.605111687222518 2
      vertex 28 2.799999999999997 2
    endloop
  endfacet
  facet normal 0 0 1
    outer loop
      vertex 8 5.605111687222518 2
      vertex 8 2.799999999999997 2
      vertex 28 2.799999999999997 2
    endloop
  endfacet
  facet normal 0 0 1
    outer loop
      vertex 8.727015733965379 6.172984266034611 2
      vertex 8.33383062336221 5.82817017843643 2
      vertex 28 2.799999999999997 2
    endloop
  endfacet
  facet normal 0 -1 0
    outer loop
      vertex 8 0 2
      vertex 8 0 0
      vertex 28 0 2
    endloop
  endfacet
  facet normal 0 0 1
    outer loop
      vertex 9.761775309495016 7.965240424470352 2
      vertex 9.59367405912197 7.47003010972599 2
      vertex 28 2.799999999999997 2
    endloop
  endfacet
  facet normal 0 0 1
    outer loop
      vertex 9.898003992015967 8.999999999999993 2
      vertex 9.863800513636212 8.478155762441588 2
      vertex 28 2.799999999999997 2
    endloop
  endfacet
  facet normal 0 0 1
    outer loop
      vertex 9.863800513636212 8.478155762441588 2
      vertex 9.761775309495016 7.965240424470352 2
      vertex 28 2.799999999999997 2
    endloop
  endfacet
  facet normal 0 0 1
    outer loop
      vertex 9.59367405912197 7.47003010972599 2
      vertex 9.362373021517426 7.0009980039920094 2
      vertex 28 2.799999999999997 2
    endloop
  endfacet
  facet normal 0 0 1
    outer loop
      vertex 23 19.099999999999994 2
      vertex 23 27.099999999999994 2
      vertex 8 27.099999999999994 2
    endloop
  endfacet
  facet normal 0 0 -1
    outer loop
      vertex 23 19.099999999999994 0
      vertex 8 27.099999999999994 0
      vertex 23 27.099999999999994 0
    endloop
  endfacet
  facet normal 0 0 1
    outer loop
      vertex 9.59367405912197 10.529969890273996 2
      vertex 26 19.099999999999994 2
      vertex 23 19.099999999999994 2
    endloop
  endfacet
  facet normal 0 0 1
    outer loop
      vertex 26 19.099999999999994 2
      vertex 28 27.099999999999994 2
      vertex 26 27.099999999999994 2
    endloop
  endfacet
  facet normal 0 0 -1
    outer loop
      vertex 26 19.099999999999994 0
      vertex 26 27.099999999999994 0
      vertex 28 27.099999999999994 0
    endloop
  endfacet
  facet normal 0 0 1
    outer loop
      vertex 26 19.099999999999994 2
      vertex 28 2.799999999999997 2
      vertex 28 27.099999999999994 2
    endloop
  endfacet
  facet normal 0 0 -1
    outer loop
      vertex 26 19.099999999999994 0
      vertex 28 27.099999999999994 0
      vertex 28 0.9548245614035054 0
    endloop
  endfacet
  facet normal 0 0 -1
    outer loop
      vertex 23 19.099999999999994 0
      vertex 26 19.099999999999994 0
      vertex 8 0.340789473684211 0
    endloop
  endfacet
  facet normal 0 0 1
    outer loop
      vertex 9.59367405912197 10.529969890273996 2
      vertex 28 2.799999999999997 2
      vertex 26 19.099999999999994 2
    endloop
  endfacet
  facet normal 0 0 -1
    outer loop
      vertex 26 19.099999999999994 0
      vertex 28 0.9548245614035054 0
      vertex 8 0.340789473684211 0
    endloop
  endfacet
  facet normal 0 -1 0
    outer loop
      vertex 8 0 0
      vertex 28 0 0
      vertex 28 0 2
    endloop
  endfacet
  facet normal 1 0 0
    outer loop
      vertex 23 19.099999999999994 0
      vertex 23 27.099999999999994 0
      vertex 23 27.099999999999994 2
    endloop
  endfacet
  facet normal 1 0 0
    outer loop
      vertex 23 19.099999999999994 2
      vertex 23 19.099999999999994 0
      vertex 23 27.099999999999994 2
    endloop
  endfacet
  facet normal -1 0 0
    outer loop
      vertex 26 19.099999999999994 2
      vertex 26 27.099999999999994 2
      vertex 26 27.099999999999994 0
    endloop
  endfacet
  facet normal -1 0 0
    outer loop
      vertex 26 19.099999999999994 2
      vertex 26 27.099999999999994 0
      vertex 26 19.099999999999994 0
    endloop
  endfacet
  facet normal 0 1 0
    outer loop
      vertex 23 19.099999999999994 2
      vertex 26 19.099999999999994 0
      vertex 23 19.099999999999994 0
    endloop
  endfacet
  facet normal 0 1 0
    outer loop
      vertex 23 19.099999999999994 2
      vertex 26 19.099999999999994 2
      vertex 26 19.099999999999994 0
    endloop
  endfacet
  facet normal -1 0 0
    outer loop
      vertex 8 12.394888312777468 2
      vertex 8 27.099999999999994 2
      vertex 8 27.099999999999994 0
    endloop
  endfacet
  facet normal 0 1 0
    outer loop
      vertex 8 27.099999999999994 2
      vertex 23 27.099999999999994 0
      vertex 8 27.099999999999994 0
    endloop
  endfacet
  facet normal -1 0 0
    outer loop
      vertex 8 6.859982216955622 31.299999999999997
      vertex 8 11.140017783044364 31.299999999999997
      vertex 8 6.859982216955622 7
    endloop
  endfacet
  facet normal -1 0 0
    outer loop
      vertex 8 2.799999999999997 31.4
      vertex 8 2 31.4
      vertex 8 2.799999999999997 34.4
    endloop
  endfacet
  facet normal -1 0 0
    outer loop
      vertex 8 0 34.4
      vertex 8 2.799999999999997 34.4
      vertex 8 2 31.4
    endloop
  endfacet
  facet normal -1 0 0
    outer loop
      vertex 8 0 34.4
      vertex 8 2 31.4
      vertex 8 0 2
    endloop
  endfacet
  facet normal -1 0 0
    outer loop
      vertex 8 2 31.4
      vertex 8 2 29.4
      vertex 8 0 2
    endloop
  endfacet
  facet normal -1 0 0
    outer loop
      vertex 8 0 2
      vertex 8 2 29.4
      vertex 8 2.799999999999997 29.4
    endloop
  endfacet
  facet normal -1 0 0
    outer loop
      vertex 8 11.140017783044364 31.299999999999997
      vertex 8 11.140017783044364 7
      vertex 8 6.859982216955622 7
    endloop
  endfacet
  facet normal -1 0 0
    outer loop
      vertex 8 27.099999999999994 0
      vertex 8 0.340789473684211 0
      vertex 8 12.394888312777468 2
    endloop
  endfacet
  facet normal -1 0 0
    outer loop
      vertex 8 11.140017783044364 7
      vertex 8 11.736773282966524 4.747367594836099
      vertex 8 6.2632267170334615 4.747367594836099
    endloop
  endfacet
  facet normal -1 0 0
    outer loop
      vertex 8 11.140017783044364 7
      vertex 8 6.2632267170334615 4.747367594836099
      vertex 8 6.859982216955622 7
    endloop
  endfacet
  facet normal -1 0 0
    outer loop
      vertex 8 12.394888312777468 2
      vertex 8 6.2632267170334615 4.747367594836099
      vertex 8 11.736773282966524 4.747367594836099
    endloop
  endfacet
  facet normal -1 0 0
    outer loop
      vertex 8 12.394888312777468 2
      vertex 8 5.605111687222518 2
      vertex 8 6.2632267170334615 4.747367594836099
    endloop
  endfacet
  facet normal -1 0 0
    outer loop
      vertex 8 2.799999999999997 2
      vertex 8 0 0
      vertex 8 2.799999999999997 29.4
    endloop
  endfacet
  facet normal -1 0 0
    outer loop
      vertex 8 0 2
      vertex 8 2.799999999999997 29.4
      vertex 8 0 0
    endloop
  endfacet
  facet normal -1 0 0
    outer loop
      vertex 8 12.394888312777468 2
      vertex 8 0.340789473684211 0
      vertex 8 5.605111687222518 2
    endloop
  endfacet
  facet normal -1 0 0
    outer loop
      vertex 8 5.605111687222518 2
      vertex 8 0.340789473684211 0
      vertex 8 2.799999999999997 2
    endloop
  endfacet
  facet normal -1 0 0
    outer loop
      vertex 8 2.799999999999997 2
      vertex 8 0.340789473684211 0
      vertex 8 0 0
    endloop
  endfacet
  facet normal 0 1 0
    outer loop
      vertex 23 27.099999999999994 2
      vertex 23 27.099999999999994 0
      vertex 8 27.099999999999994 2
    endloop
  endfacet
  facet normal 0 1 0
    outer loop
      vertex 26 27.099999999999994 0
      vertex 26 27.099999999999994 2
      vertex 28 27.099999999999994 0
    endloop
  endfacet
  facet normal 0 1 0
    outer loop
      vertex 26 27.099999999999994 2
      vertex 28 27.099999999999994 2
      vertex 28 27.099999999999994 0
    endloop
  endfacet
  facet normal 1 0 0
    outer loop
      vertex 28 27.099999999999994 0
      vertex 28 27.099999999999994 2
      vertex 28 0.9548245614035054 0
    endloop
  endfacet
  facet normal 1 0 0
    outer loop
      vertex 28 2 31.4
      vertex 28 2.799999999999997 31.4
      vertex 28 2.799999999999997 34.4
    endloop
  endfacet
  facet normal 1 0 0
    outer loop
      vertex 28 0 34.4
      vertex 28 2 31.4
      vertex 28 2.799999999999997 34.4
    endloop
  endfacet
  facet normal 1 0 0
    outer loop
      vertex 28 0 34.4
      vertex 28 0 2
      vertex 28 2 31.4
    endloop
  endfacet
  facet normal 1 0 0
    outer loop
      vertex 28 2.799999999999997 29.4
      vertex 28 2 29.4
      vertex 28 2.799999999999997 2
    endloop
  endfacet
  facet normal 1 0 0
    outer loop
      vertex 28 2 31.4
      vertex 28 0 2
      vertex 28 2 29.4
    endloop
  endfacet
  facet normal 1 0 0
    outer loop
      vertex 28 0.9548245614035054 0
      vertex 28 27.099999999999994 2
      vertex 28 2.799999999999997 2
    endloop
  endfacet
  facet normal 1 0 0
    outer loop
      vertex 28 2.799999999999997 2
      vertex 28 2 29.4
      vertex 28 0 2
    endloop
  endfacet
  facet normal 1 0 0
    outer loop
      vertex 28 2.799999999999997 2
      vertex 28 0 2
      vertex 28 0.9548245614035054 0
    endloop
  endfacet
  facet normal 1 0 0
    outer loop
      vertex 28 0 2
      vertex 28 0 0
      vertex 28 0.9548245614035054 0
    endloop
  endfacet
endsolid OpenSCAD_Model
